<?xml version="1.0" encoding="utf-8"?>
<!-- Generator: Adobe Illustrator 27.9.0, SVG Export Plug-In . SVG Version: 6.00 Build 0)  -->
<svg version="1.1" xmlns="http://www.w3.org/2000/svg" xmlns:xlink="http://www.w3.org/1999/xlink" x="0px" y="0px"
	 viewBox="0 0 576 576" style="enable-background:new 0 0 576 576;" xml:space="preserve">
<g id="Layer_1">
</g>
<g id="Layer_2">
	<g>
		<path d="M202.33,306c4.45-3.01,8.86-5.98,13.54-9.14c-3.4,0-6.51,0-9.93,0c4.99-7.66,9.83-15.08,14.67-22.51
			c-0.07-0.08-0.14-0.17-0.21-0.25c-4.23,2.85-8.42,5.77-12.7,8.55c-15.84,10.34-31.72,20.62-47.53,31
			c-0.93,0.61-1.86,1.77-2.1,2.83c-3.2,14.39-6.38,28.79-9.34,43.24c-3.62,17.64-7.04,35.32-10.55,52.98
			c-0.37,1.88-0.76,3.76-1.61,5.6c0.25-3.6,0.39-7.21,0.76-10.8c1.08-10.71,2.11-21.43,3.41-32.11c1.42-11.71,3.08-23.39,4.7-35.07
			c1.28-9.26,2.66-18.51,3.93-27.77c0.19-1.39,0.77-2.13,2-2.84c23.16-13.3,46.62-26.12,68.41-41.68
			c5.68-4.06,11.18-8.37,16.73-12.6c0.69-0.53,1.27-1.24,1.79-1.94c1.84-2.49,3.67-5,5.43-7.55c0.47-0.68,0.94-1.51,0.99-2.3
			c0.27-4.6,0.65-9.22,0.52-13.82c-0.08-3-0.98-5.98-1.45-8.98c-0.54-3.44-1.02-6.89-1.52-10.34c-0.1-0.1-0.2-0.27-0.32-0.29
			c-6.05-0.88-9.41-4.25-10.46-10.37c-0.5-2.93-1.94-5.72-3.08-8.52c-1.44-3.52-2.81-7-2.13-10.96c0.36-2.07,1.32-3.71,3.16-4.56
			c1.5-0.69,1.62-1.67,1.4-3.01c-0.82-4.9-1.75-9.79-2.4-14.71c-1.09-8.26-1.88-16.55-0.04-24.83c3.14-14.07,12.73-22.17,25.63-26.6
			c15.57-5.35,31.01-3.48,46.12,2.35c5.57,2.15,10.73,5.01,15.46,8.71c7.92,6.19,12.06,14.23,12.58,24.27
			c0.47,8.98,1.13,17.94,1.78,26.91c0.06,0.9,0.34,2.1,0.97,2.59c3.85,3.04,3.64,7.06,2.91,11.19c-1.04,5.91-2.32,11.77-3.25,17.7
			c-0.64,4.07-2.84,6.69-6.35,8.55c-0.67,0.35-1.32,1.3-1.42,2.05c-0.67,4.78-1.09,9.59-1.81,14.36c-0.3,2.02-0.76,4.19-1.79,5.91
			c-2.1,3.48-1.75,7-1.21,10.71c0.31,2.15,0.89,3.95,2.56,5.41c0.82,0.72,1.58,1.65,2.02,2.64c2.11,4.72,6.15,7.71,9.71,11.14
			c0.7,0.67,1.49,1.26,2.09,2.01c5.96,7.53,14.87,10.37,23.04,14.24c19.35,9.18,38.86,18.01,58.26,27.08
			c0.94,0.44,1.87,1.69,2.12,2.72c3.81,15.61,7.74,31.2,11.17,46.89c3.11,14.25,5.71,28.62,8.4,42.96
			c1.02,5.45,1.66,10.98,2.02,16.57c-0.91-3.56-1.82-7.12-2.72-10.69c-7.87-31.32-16.45-62.43-28.12-92.6
			c-0.32-0.82-0.95-1.75-1.69-2.14c-19.69-10.43-39.42-20.79-59.67-31.44c4.55,6.21,8.78,11.98,13.26,18.08
			c-3.14,0.16-5.78,0.29-9.02,0.45c5.15,3.3,9.84,6.3,14.57,9.33c-6.6,23.72-15.96,46.26-26.34,68.6
			c13.06-1.56,25.92-3.09,39.26-4.68c-1.36,4.01-2.57,7.69-3.91,11.33c-0.15,0.41-1.01,0.7-1.58,0.79
			c-9.83,1.5-19.66,2.95-29.49,4.42c-2.64,0.4-5.26,1-7.92,1.17c-1.84,0.11-2.5,1.1-3.16,2.53c-5.24,11.38-10.45,22.77-15.82,34.09
			c-7.43,15.68-15,31.28-22.45,46.95c-0.85,1.8-1.85,2.89-3.96,2.61c-0.87-0.12-1.77-0.02-3.03-0.02
			c25.32-54.84,52.13-108.89,71.84-165.95c-6.9-4.92-13.61-9.71-20.68-14.75c4.85-0.24,9.12-0.44,14.1-0.68
			c-8.15-10.52-16.93-19.56-26.05-29.15c0,6.36,0.41,12.08-0.09,17.73c-0.93,10.64-1.93,21.31-3.69,31.83
			c-5.3,31.6-12.92,62.71-20.85,93.73c-3.41,13.35-7.09,26.63-10.65,39.95c-0.11,0.41-0.29,0.81-0.54,1.51
			c-3.97-12.2-7.89-24.09-11.7-36.02c-9.4-29.49-18.82-58.97-28.09-88.5c-4.24-13.51-7.73-27.24-9.95-41.24
			c-1.04-6.58-1.59-13.24-2.39-20.13c-8.47,10.6-16.93,21.19-25.67,32.13c5.4,0,10.25,0,15.73,0c-6.65,5.19-12.86,10.03-19.47,15.19
			c4.47,10.64,8.67,21.49,13.53,32.04c18.51,40.26,40.71,78.47,64.38,115.88c1.32,2.09,1.03,5.2,1.48,7.84
			c-0.25,0.1-0.49,0.19-0.74,0.29c-0.44-0.52-0.92-1-1.3-1.55c-25.5-37-48.69-75.36-68.27-115.85
			C212.27,333.67,206.75,320.26,202.33,306z M317.77,125.61c0.6,4.2-0.31,7.76-3.45,10.63c-1.03,0.94-1.91,1.22-3.31,0.39
			c-3.52-2.09-7.46-2.73-11.37-1.58c-6.17,1.81-12.22,4.01-18.36,5.94c-1.04,0.33-2.32,0.4-3.35,0.11
			c-6.59-1.9-13.29-3.28-20.14-3.13c-3.11,0.07-6.42,0.68-9.24,1.93c-4.15,1.84-7.33,6.25-5,13.9c2.42,7.95,2.49,15.61-0.4,23.52
			c-1.11,3.05-1.13,6.76-0.71,10.05c1.26,9.92,3.35,19.74,4.44,29.67c1.28,11.71,6.76,20.29,16.93,26.12
			c3.14,1.8,5.93,4.19,8.93,6.24c0.69,0.47,1.58,0.91,2.39,0.92c6.24,0.05,12.47,0.02,18.71-0.07c0.66-0.01,1.41-0.41,1.95-0.84
			c3.45-2.7,6.78-5.55,10.27-8.17c6.82-5.12,10.87-11.71,11.95-20.27c1.39-10.96,3.22-21.86,4.62-32.81
			c0.52-4.04,1.64-8.32-1.04-12.11c-2.86-4.05-3.36-8.53-3.19-13.34c0.14-3.68-0.43-7.38-0.58-11.08c-0.05-1.24-0.1-2.66,0.42-3.73
			c2.2-4.54,3.88-9.14,3.29-14.32C321.16,130.48,319.93,127.83,317.77,125.61z M279.28,281.13c-7.51-5.12-14.65-9.79-21.56-14.78
			c-5.69-4.11-11.7-8.1-13.33-15.85c-3.9,6.16,5.18,51.16,10.02,62.38C262.8,302.17,270.99,291.72,279.28,281.13z M290.74,280.76
			c8.25,9.89,16.63,19.94,25.27,30.3c0.27-1.15,0.47-1.79,0.57-2.44c1.45-9.59,3.03-19.17,4.29-28.79
			c1.06-8.12,1.22-16.3,0.03-24.44c-0.29-2-1.26-3.91-1.84-5.64c-1.56,2.85-2.72,5.69-4.51,8.06c-2.32,3.06-4.97,5.92-7.78,8.56
			C301.6,271.24,296.2,275.89,290.74,280.76z M269.09,361.4c0.13-0.01,0.25-0.03,0.38-0.04c0.63-3.71,1.25-7.42,1.9-11.13
			c2.31-13.16,5.93-25.97,10.42-38.55c0.22-0.62,0.38-1.6,0.05-2.02c-3.04-3.99-6.19-7.9-9.41-11.96c-0.56,0.66-0.93,1.1-1.31,1.54
			c-5.01,5.77-10.04,11.52-15,17.34c-0.4,0.47-0.55,1.46-0.37,2.09c1.46,5.12,2.98,10.23,4.58,15.31
			C263.22,343.13,266.17,352.26,269.09,361.4z M249.03,237.14c0,2.48,0.37,5.35-0.07,8.09c-1.06,6.56,1.94,10.87,6.99,14.38
			c9.19,6.39,18.32,12.88,27.51,19.28c0.45,0.31,1.5,0.34,1.9,0.03c5-3.95,9.93-8,15.07-12.17c-4.17-4.62-8.28-8.54-14.69-8.14
			c-8.87,0.54-16.82-1.75-23.35-7.84C257.74,246.44,253.48,241.72,249.03,237.14z M253.34,122.17c18.85-3.31,37.76-2.1,57.04-1.44
			c-8.43-7.66-18.01-11.57-29.01-11.89c-9.4-0.27-17.92,2.83-26,7.32c-4.79,2.66-9.55,5.38-14.35,8.03
			c-1.12,0.62-2.34,1.08-3.51,1.61c13.65-1.34,26.16,2.3,38.53,8.19C270.72,125.16,262.5,122.83,253.34,122.17z M300.15,299.46
			c-1.91,2.58-3.84,5.11-5.66,7.73c-0.33,0.48-0.44,1.4-0.22,1.93c5.41,12.83,10.6,25.73,13.61,39.7c0.31-0.56,0.51-0.8,0.57-1.07
			c2.21-10.04,4.41-20.08,6.57-30.13c0.1-0.48-0.05-1.19-0.37-1.56C309.89,310.57,305.09,305.11,300.15,299.46z M241.84,205.65
			c-0.25-2.52-0.4-4.73-0.72-6.91c-0.7-4.83-1.27-9.69-2.3-14.45c-0.94-4.33-4.03-4.88-8.15-4.47c-0.45,0.04-1.17,1.02-1.14,1.53
			c0.11,1.75,0.25,3.57,0.81,5.22c1.61,4.75,3.36,9.46,5.18,14.13C236.57,203.41,238.47,205.24,241.84,205.65z M331.18,177.72
			c-0.28-0.13-0.57-0.26-0.85-0.4c-0.78,0.71-1.82,1.29-2.29,2.17c-1.28,2.39-2.81,4.82-3.33,7.41c-0.86,4.34-1.01,8.82-1.44,13.25
			c-0.14,1.41-0.2,2.84-0.33,4.72c2.42-1.64,3.88-3.29,4.38-5.66c1.04-4.91,2.12-9.82,3.06-14.75
			C330.8,182.24,330.92,179.97,331.18,177.72z M314.2,245.58c-3.12,5.52-6.26,11.07-9.4,16.62
			C309.11,257.28,315.73,253.68,314.2,245.58z"/>
		<path d="M429.16,438.16c-7.05,3.69-13.93,7.47-20.96,10.94c-13.74,6.8-27.55,13.46-41.37,20.1c-1.8,0.86-3.82,1.27-6.37,2.09
			c4.12-15.98,7.79-31.24,11.99-46.34c7.4-26.59,14.89-53.16,22.83-79.6c2.39-7.95,6.37-15.43,9.67-23.1
			c0.4-0.92,1.12-1.7,2.06-2.38c-1.05,5.1-2.22,10.18-3.14,15.31c-3.08,17.12-4.37,34.36-2.32,51.67c0.48,4.1,1.94,8.25,3.74,12
			c6.32,13.21,14.4,25.41,22.65,37.48C428.3,436.89,428.67,437.43,429.16,438.16z"/>
		<path d="M171.75,333.85c4.52,18.77,8.81,37.61,13.63,56.31c5.16,20,10.67,39.91,16.34,59.76c1.68,5.87,4.44,11.44,6.86,17.53
			c-23.88-7.28-46.72-16.44-68.54-28.38c3.65-0.42,7.29-0.85,10.94-1.24c5.9-0.64,11.81-1.26,17.72-1.86
			c1.22-0.12,1.82-0.62,1.9-1.94c0.85-14.84,1.91-29.67,2.54-44.51c0.19-4.4-1-8.84-1.18-13.28c-0.44-10.76-0.67-21.54-0.94-32.31
			c-0.06-2.6,0.05-5.21,0.11-7.81c0.02-0.78,0.12-1.56,0.19-2.34C171.44,333.8,171.6,333.83,171.75,333.85z"/>
		<path d="M315.48,175c-1.12-0.1-2.38,0.11-3.33-0.34c-5.29-2.49-9.74-0.16-14.26,2.23c5.12-0.72,9.73,0.53,13.91,3.8
			c-1.45-0.17-2.9-0.33-4.35-0.52c-0.99-0.13-1.64-0.18-2.24,1.06c-1.03,2.15-4.72,2.39-6.39,0.66c-1.56-1.62-2.96-1.62-4.57-0.1
			c-1.22,1.16-2.53,2.22-3.8,3.33c-1.04,0.9-1.91,0.54-2.19-0.61c-0.67-2.71-1.29-5.46-1.65-8.22c-0.25-1.99,1.19-3.25,2.93-3.68
			c4.71-1.18,9.49-2.08,14.22-3.22c4.01-0.97,7.28,0.37,10.2,2.96c0.65,0.57,1.15,1.31,1.72,1.97
			C315.61,174.52,315.54,174.76,315.48,175z"/>
		<path d="M252.6,182.43c3.84-2.45,7.93-4.14,12.84-4.11c-5.42-4.03-11.09-2.28-16.88-0.86c1.16-3.67,4.99-6.57,8.69-6.32
			c4.92,0.33,9.87,0.97,14.69,2.01c4.12,0.89,5.1,2.96,4.34,7.09c-0.27,1.46-0.51,2.93-0.96,4.33c-0.64,2.02-2.01,2.25-3.43,0.65
			c-0.43-0.49-0.69-1.13-1.07-1.68c-1.25-1.78-2.95-1.92-4.52-0.4c-1.87,1.82-4.74,1.63-6.51-0.27c-0.47-0.5-1.47-0.82-2.18-0.75
			c-1.64,0.16-3.26,0.61-4.88,0.95C252.68,182.87,252.64,182.65,252.6,182.43z"/>
		<path d="M299.65,221.47c-1.08,0.23-2.15,0.65-3.23,0.67c-5.55,0.06-11.11-0.03-16.67,0.04c-2.66,0.03-5.31,0.36-7.97,0.45
			c-0.91,0.03-1.82-0.3-2.73-0.68c5.02-1.24,9.76-2.96,15.11-3.18C289.62,218.53,294.43,220.36,299.65,221.47z"/>
		<path d="M274.62,225.15c6.54,3.33,12.64,3.03,19.06-0.13C290.13,231.84,277.51,231.19,274.62,225.15z"/>
		<path d="M280.08,207.14c-1.08,0.06-2.17,0.23-3.23,0.12c-0.33-0.04-0.57-0.86-0.85-1.32c0.41-0.24,0.88-0.76,1.21-0.68
			c1.03,0.25,2,0.73,2.99,1.11C280.16,206.63,280.12,206.88,280.08,207.14z"/>
		<path d="M287.74,206.17c0.82-0.53,1.59-1.16,2.47-1.53c0.35-0.15,0.95,0.27,1.43,0.42c-0.24,0.47-0.36,1.22-0.73,1.36
			c-0.88,0.35-1.87,0.41-2.82,0.59C287.97,206.73,287.85,206.45,287.74,206.17z"/>
	</g>
</g>
</svg>
