<?xml version="1.0" encoding="utf-8"?>
<!-- Generator: Adobe Illustrator 27.8.1, SVG Export Plug-In . SVG Version: 6.00 Build 0)  -->
<svg version="1.1" id="Layer_1" xmlns="http://www.w3.org/2000/svg" xmlns:xlink="http://www.w3.org/1999/xlink" x="0px" y="0px"
	 viewBox="0 0 360 360" style="enable-background:new 0 0 360 360;" xml:space="preserve">
<style type="text/css">
	.st0{fill-rule:evenodd;clip-rule:evenodd;}
</style>
<path class="st0" d="M212.46,204.01V96.43c-2.64-1.03-5.35-1.93-8.1-2.71c-7.75-2.18-15.92-3.35-24.36-3.35
	c-49.5,0-89.64,40.14-89.64,89.64c0,26.89,11.85,51.03,30.61,67.46v10.45C97.46,240.06,82.26,211.8,82.26,180
	c0-53.97,43.77-97.74,97.74-97.74c8.41,0,16.57,1.06,24.36,3.06c2.75,0.71,5.45,1.53,8.1,2.46c2.88,1.01,5.69,2.16,8.44,3.42v9.01
	v96.1h25.25v7.68H212.46L212.46,204.01z M269.64,180c0,49.5-40.14,89.64-89.64,89.64c-12.15,0-23.74-2.42-34.31-6.8
	c-2.77-1.15-5.48-2.44-8.1-3.85v-95.17h15.23v-7.82h-38.97v7.82h15.23v89.96v9.66c2.75,1.68,5.59,3.23,8.51,4.64
	c2.64,1.27,5.34,2.43,8.1,3.47c10.68,4,22.24,6.19,34.31,6.19c53.97,0,97.74-43.77,97.74-97.74c0-36.11-19.6-67.66-48.73-84.58v9.52
	C253.47,120.95,269.64,148.59,269.64,180L269.64,180z M288,180c0-59.64-48.36-108-108-108S72,120.36,72,180s48.36,108,108,108
	S288,239.64,288,180L288,180z M173.11,157.12c-3.02,1.3-5.63,3.09-7.82,5.35c-2.2,2.26-3.9,4.91-5.11,7.92
	c-1.21,3.02-1.82,6.24-1.82,9.67c0,3.48,0.62,6.72,1.85,9.74c1.23,3.02,2.94,5.64,5.11,7.85c2.17,2.22,4.74,3.97,7.72,5.25
	c2.97,1.28,6.22,1.92,9.74,1.92c2.24,0,4.29-0.19,6.14-0.58c1.85-0.39,3.56-0.96,5.11-1.71c1.56-0.76,3.01-1.65,4.36-2.68
	c1.35-1.03,2.64-2.21,3.88-3.53l-5.42-5.49c-2.06,1.92-4.14,3.44-6.24,4.56c-2.1,1.12-4.62,1.68-7.55,1.68
	c-2.29,0-4.4-0.45-6.34-1.34c-1.94-0.89-3.62-2.12-5.04-3.67c-1.42-1.56-2.52-3.37-3.29-5.45c-0.78-2.08-1.17-4.31-1.17-6.69
	c0-2.38,0.39-4.6,1.17-6.65c0.78-2.06,1.87-3.85,3.29-5.39c1.42-1.53,3.1-2.74,5.04-3.64c1.94-0.89,4.06-1.34,6.34-1.34
	c2.74,0,5.19,0.55,7.34,1.65c2.15,1.1,4.18,2.54,6.1,4.32l5.42-6.24c-1.14-1.1-2.36-2.1-3.64-3.02c-1.28-0.91-2.68-1.7-4.18-2.37
	c-1.51-0.66-3.17-1.18-4.97-1.54c-1.81-0.37-3.81-0.55-6-0.55C179.46,155.17,176.12,155.82,173.11,157.12z"/>
</svg>
