<?xml version="1.0" encoding="utf-8"?>
<!-- Generator: Adobe Illustrator 27.9.0, SVG Export Plug-In . SVG Version: 6.00 Build 0)  -->
<svg version="1.1" id="Layer_1" xmlns="http://www.w3.org/2000/svg" xmlns:xlink="http://www.w3.org/1999/xlink" x="0px" y="0px"
	 viewBox="0 0 500 500" style="enable-background:new 0 0 500 500;" xml:space="preserve">
<style type="text/css">
	.st0{fill:#FFFFFF;}
</style>
<polygon class="st0" points="1037.05,-504.3 1034.01,-508.4 1003.17,-467.54 1009.95,-467.54 "/>
<polygon class="st0" points="1138.61,-514.69 1137.97,-514.51 1138.33,-514.04 "/>
<polygon class="st0" points="1254.93,-499.52 1252.66,-495.95 1268.83,-476 1272.63,-477.42 "/>
<rect x="1033.19" y="-490.07" class="st0" width="5.5" height="5.5"/>
<rect x="1039.75" y="-490.07" class="st0" width="5.5" height="5.5"/>
<rect x="1033.19" y="-483.73" class="st0" width="5.5" height="5.5"/>
<rect x="1039.75" y="-483.73" class="st0" width="5.5" height="5.5"/>
<rect x="1249.74" y="-488.46" class="st0" width="3.49" height="3.49"/>
<rect x="1253.89" y="-488.46" class="st0" width="3.49" height="3.49"/>
<rect x="1249.74" y="-484.46" class="st0" width="3.49" height="3.49"/>
<rect x="1253.89" y="-484.46" class="st0" width="3.49" height="3.49"/>
<path class="st0" d="M1137.9-465.56c69.31,0,132.53,6.8,180.44,17.99c-42.77-16.7-107.72-27.36-180.44-27.36
	s-137.67,10.66-180.46,27.36C1005.37-458.75,1068.59-465.56,1137.9-465.56z"/>
<rect x="963.85" y="-367.3" class="st0" width="124.88" height="1.39"/>
<rect x="1187.07" y="-367.3" class="st0" width="124.88" height="1.39"/>
<path class="st0" d="M1105.15-370.93v8c0,0.39,0.16,0.73,0.46,1.01c0.3,0.27,0.66,0.39,1.1,0.41h6.73c0.44-0.02,0.8-0.16,1.1-0.41
	c0.3-0.28,0.46-0.62,0.46-0.99v-8h3.3v8.56c0,0.98-0.38,1.81-1.14,2.49c-0.76,0.69-1.67,1.04-2.76,1.04h-8.67
	c-1.07,0-2-0.35-2.76-1.04c-0.76-0.69-1.14-1.51-1.14-2.49v-8.56h3.31V-370.93z"/>
<path class="st0" d="M1140.68-370.93c1.12,0,2.05,0.36,2.82,1.07c0.77,0.71,1.17,1.58,1.17,2.59v0.05h-3.22l0.02-0.05
	c0-0.27-0.09-0.49-0.3-0.66c-0.19-0.19-0.43-0.28-0.74-0.27h-6.88c-0.28-0.02-0.52,0.08-0.73,0.27c-0.19,0.17-0.28,0.39-0.28,0.65
	s0.11,0.47,0.3,0.66c0.19,0.19,0.43,0.27,0.71,0.27c0.8,0,2.07,0,3.77-0.02c1.69-0.02,2.95-0.02,3.75,0c1.15,0,2.11,0.36,2.92,1.1
	c0.82,0.73,1.21,1.61,1.2,2.65c0,1.04-0.39,1.92-1.21,2.67c-0.79,0.73-1.75,1.09-2.9,1.09h-8.01c-1.14,0-2.1-0.36-2.92-1.09
	c-0.8-0.73-1.2-1.61-1.2-2.67h3.09v0.02c0,0.3,0.11,0.55,0.35,0.76c0.24,0.2,0.5,0.32,0.82,0.32h7.55c0.33-0.02,0.6-0.13,0.84-0.32
	c0.22-0.21,0.33-0.46,0.33-0.76c0-0.3-0.11-0.55-0.35-0.76c-0.24-0.2-0.5-0.32-0.82-0.32h-7.79c-1.1,0-2.05-0.36-2.82-1.07
	c-0.77-0.73-1.17-1.58-1.17-2.57c0-1.01,0.39-1.86,1.17-2.55s1.72-1.07,2.82-1.1h7.71V-370.93z"/>
<path class="st0" d="M1166.27-370.93l7.68,12.1h-3.56l-1.67-2.65h-8.18l-1.69,2.65h-3.55l7.68-12.1H1166.27z M1162.16-364.04h4.92
	l-2.46-3.88L1162.16-364.04z"/>
<polygon class="st0" points="1040.52,-507.39 1090.92,-500.51 1093.61,-504.12 1037.05,-511.85 "/>
<polygon class="st0" points="1040.52,-507.39 1090.92,-500.51 1093.61,-504.12 1037.05,-511.85 "/>
<polygon class="st0" points="1048.03,-497.67 1085.06,-492.63 1088.01,-496.6 1044.25,-502.58 "/>
<polygon class="st0" points="1048.03,-497.67 1085.06,-492.63 1088.01,-496.6 1044.25,-502.58 "/>
<polygon class="st0" points="1055.55,-487.97 1079.19,-484.74 1082.16,-488.71 1051.75,-492.88 "/>
<polygon class="st0" points="1055.55,-487.97 1079.19,-484.74 1082.16,-488.71 1051.75,-492.88 "/>
<polygon class="st0" points="1063.08,-478.26 1070.99,-477.17 1073.56,-477.17 1076.29,-480.85 1059.27,-483.16 "/>
<polygon class="st0" points="1063.08,-478.26 1070.99,-477.17 1073.56,-477.17 1076.29,-480.85 1059.27,-483.16 "/>
<g>
	<path class="st0" d="M981.24-401.73c-0.21-0.06-0.65-0.16-1.58-0.16c-0.22,0-0.46,0-0.71,0.02l0.02,17.76l-15.27,0.16v0.98
		l16.13-0.17l-0.02-17.76c0.25-0.02,0.49-0.02,0.71-0.02c0.28,0,0.52,0.02,0.73,0.03v-0.55L981.24-401.73z M1153.45-433.11
		l-1.45-16.97h-0.79l1.91,22.33L1153.45-433.11z M1051.28-398.81c0.13,0.02,0.28,0.02,0.47,0.02c0.14,0,0.27,0,0.38-0.02
		l-0.11-33.53c0-0.2,0-0.35,0.02-0.44l0.32-0.05c0-0.65,0-1.01,0-1.03l-0.46,0.02c-0.35,0.02-0.57,0.05-0.73,0.08
		c-0.02,0.11-0.02,0.25-0.02,0.44l0.11,34.21L1051.28-398.81z M998.2-419.94l-0.02-6.4c-0.02-4.21-0.55-8.23-3.22-10.79
		c1.92,2.54,2.35,6.1,2.35,9.81l0.02,6.4c-0.03,4.67-0.82,8.45-3.8,10.98c0.39,0.24,0.74,0.49,1.07,0.77
		C997.41-411.68,998.15-415.38,998.2-419.94z M979.81-415.57l-0.02-10.25l1.37-0.16h0.05c-0.02-0.55-0.08-0.85-0.13-0.98
		c-0.06-0.02-0.16-0.02-0.3-0.02c-0.14,0-0.3,0.02-0.47,0.03l-1.37,0.16l0.02,11.31C979.29-415.51,979.56-415.54,979.81-415.57z
		 M1187.26-399.27L1187.26-399.27h0.17l0.06-35.04c0-0.14,0-0.27,0.02-0.36h0.24h0.09v-0.43c0-0.22-0.02-0.38-0.02-0.49
		c-0.13-0.03-0.35-0.05-0.66-0.06h-0.27h-0.24c0,0.09-0.02,0.22-0.02,0.36l-0.06,35.55c0,0.19,0,0.33,0.02,0.44
		C1186.74-399.28,1186.95-399.27,1187.26-399.27z M1015.84-398.08h0.22l0.24-0.02c-0.02-5.39-0.09-31.6-0.09-31.6
		c0-0.16,0-0.27,0.02-0.36l0.32-0.06c0-0.66,0-1.06,0-1.06l-0.39,0.03c-0.39,0.03-0.63,0.08-0.79,0.11
		c-0.02,0.09-0.02,0.2-0.02,0.36l0.09,32.57C1015.54-398.08,1015.67-398.08,1015.84-398.08z M1129.8-433.49l-0.99-16.62l-0.8,0.02
		l1.32,22.08L1129.8-433.49z M1223.72-433.24l-0.98-0.06l-0.05,13.55c0.24,0.02,0.43,0.02,0.62,0.02l0.25-0.02l0.03-12.58l0.98,0.06
		c0.14,0.02,0.27,0.02,0.39,0.03C1224.83-433.17,1224.43-433.2,1223.72-433.24z M1308.99-417.81l2.62,0.27v-8.63
		c0-4.31-1.15-7.27-3.28-9.35c1.56,2.02,2.41,4.72,2.41,8.39v8.63l-2.62-0.27c-4.04-0.43-6.06-0.63-10.09-1.03l-0.2-0.02
		c1.15,0.41,2.19,0.8,3.17,1.2C1303.76-418.35,1305.73-418.16,1308.99-417.81z M1290.37-406.08c0.33,0.02,0.66,0.03,1.03,0.05
		l1.51,0.08l-0.36-0.13c-5.19-1.55-8.53-3-10.68-5.08C1283.54-409,1286.22-407.52,1290.37-406.08z M1295.07-420.81
		c-0.06-0.32-0.06-0.73-0.06-1.31v-3.44c0-0.5,0.02-0.85,0.05-1.07c0.24,0,0.5,0.03,0.79,0.06h0.02c-0.02-0.36-0.05-0.66-0.09-0.85
		c-0.14-0.03-0.38-0.08-0.77-0.13c-0.3-0.03-0.57-0.06-0.79-0.06c-0.02,0.22-0.05,0.57-0.05,1.07v3.44
		C1294.12-421.66,1294.14-421.24,1295.07-420.81z M1259.27-434.07c0.21-0.65,0.52-1.61,0.88-2.7l0.02-7.13l-0.87-0.09
		L1259.27-434.07z M1294.55-397.17c-0.03-0.43-0.05-0.99-0.05-1.75l0.02-5.79c0.49,0.17,0.87,0.32,1.15,0.46
		c-0.13-0.65-0.54-0.91-2.02-1.42v0.68l0.11,0.03h-0.11l-0.02,5.08c0,1.58,0.06,2.32,0.14,2.67
		C1293.93-397.22,1294.18-397.19,1294.55-397.17z M1309.21-413.4c2.11,2.73,2.62,6.4,2.62,12.49c0,13.12-3.94,17.33-16.2,17.33
		h-0.55c-6.42-0.06-10.61-1.03-13.2-3.52c2.48,3.22,6.86,4.43,14.07,4.49h0.55c12.25,0,16.2-4.21,16.2-17.33
		C1312.7-406.77,1312.07-410.57,1309.21-413.4z M1241.2-430.71l-0.02,6.89c-0.06,5.09-0.91,9.13-4.08,11.54
		c0.38,0.25,0.73,0.52,1.04,0.8c3.03-2.43,3.85-6.39,3.91-11.37l0.02-6.89c0.02-5.98-1.04-10.01-3.72-12.71
		C1240.39-439.78,1241.21-436,1241.2-430.71z M1241.1-402.67l-0.06,18.12l-15.27-0.11v0.96l16.13,0.09l0.06-18.12
		c-0.09-4.15-0.85-6.78-2.84-8.64C1240.47-408.56,1241.02-406.16,1241.1-402.67z M995.64-408.02c1.14,1.58,1.64,3.72,1.72,6.75
		l0.05,16.98l-15.27,0.14v0.98l16.13-0.16l-0.05-16.98C998.13-403.98,997.41-406.4,995.64-408.02z M1270.15-414.58
		c3.78-9.86,5.69-14.76,9.43-24.14l1.14-2.85l-1.2-0.14l-0.8,2.02c-3.74,9.38-5.65,14.29-9.43,24.14
		c4.23,11.5,6.37,17.16,10.55,28.05l1.25,3.25l-16.91-0.14l0.33,0.96l17.44,0.14l-1.25-3.25
		C1276.52-397.42,1274.39-403.08,1270.15-414.58z M1259.11-384.44l-15.27-0.11v0.96l16.13,0.11l0.03-11.59
		c-0.28-0.85-0.57-1.7-0.87-2.54L1259.11-384.44z M1204.44-435.33l-0.09,36.52c-0.03,10.23-5.16,14.6-17.14,14.6h-0.14
		c-6.34-0.02-10.72-1.29-13.48-4.01c2.65,3.39,7.3,4.97,14.35,4.98h0.14c11.99,0,17.13-4.37,17.14-14.6l0.09-36.52
		c0.02-4.89-1.15-8.48-3.66-10.98C1203.55-442.9,1204.45-439.62,1204.44-435.33z M1222.67-404.9l-0.06,20.22l-15.27-0.08v0.96
		l16.13,0.08l0.06-20.22c0.65,0.03,1.1,0.09,1.44,0.16c0-0.55-0.09-0.71-0.09-0.73C1224.88-404.49,1224.51-404.8,1222.67-404.9z
		 M1066.37-444.32c1.73,2.22,2.59,5.31,2.59,9.32l0.09,36.3c0.03,10.22-5.13,14.6-17.21,14.65h-0.25c-6.36,0-10.74-1.23-13.45-3.9
		c2.6,3.33,7.24,4.86,14.32,4.86h0.25c12.08-0.06,17.24-4.45,17.21-14.65l-0.09-36.3C1069.81-438.68,1068.67-442.07,1066.37-444.32z
		 M1097.44-423.44l-0.87,0.02l0.03,14.68c0,0-6.92,0.11-9.26,0.16l0.05,23.75l-15.27,0.06v0.98l16.13-0.06l-0.05-23.75
		c2.33-0.05,9.26-0.16,9.26-0.16L1097.44-423.44z M1170.17-448.15c-1.89,20.37-3.77,40.75-5.63,61.12l-0.2,2.14l-19.68-0.02
		l0.09,0.98l20.45,0.02l0.21-2.14c1.55-16.76,3.09-33.53,4.64-50.27v-0.02c0-1.64,0.14-3.12,0.41-4.46
		c0.19-2.11,0.39-4.24,0.58-6.36l0.24-2.52l-0.95-0.03L1170.17-448.15z M1030.68-441.52c1.61,2.08,2.4,4.98,2.41,8.75l0.11,34.76
		c0.03,12.38-8.67,14.11-17.19,14.16h-0.38c-5.05,0-10.17-0.6-13.4-3.75c3.12,4.01,8.74,4.73,14.26,4.73h0.38
		c8.53-0.06,17.24-1.78,17.19-14.16l-0.09-34.77C1033.95-436.2,1032.88-439.4,1030.68-441.52z M1138.57-384.9l-19.68,0.02l0.09,0.98
		l20.47-0.02l2.27-24.41l-0.47-5.14L1138.57-384.9z M1097.41-449.43l0.03,14.68l-2.3,0.06c-3.22,0.09-5.17,0.16-7.87,0.25
		l0.02,10.23c0.3,0,0.58-0.02,0.87-0.02l-0.02-9.23c2.7-0.09,4.64-0.16,7.87-0.25l2.3-0.06l-0.03-15.68H1097.41z"/>
	<path class="st0" d="M1001.15-430.24c-0.02-8.03,4.1-11.64,14.74-12.76c10.64-1.12,14.81,1.78,14.84,10.23
		c0.05,13.91,0.06,20.85,0.11,34.76c0.03,8.45-4.12,11.72-14.84,11.8c-10.66,0.08-14.74-2.98-14.76-11.01
		C1001.19-410.43,1001.18-417.04,1001.15-430.24z M1018.89-431.15c0-1.92-0.74-2.54-2.96-2.33c-2.22,0.19-2.95,0.85-2.95,2.84
		c0.03,12.98,0.06,19.46,0.09,32.44c0,1.99,0.74,2.55,3.04,2.51c2.14-0.05,2.89-0.74,2.89-2.67
		C1018.95-411.5,1018.93-418.05,1018.89-431.15z"/>
	<path class="st0" d="M1036.96-433.22c-0.03-8.53,4.1-12.21,14.78-12.99c10.68-0.79,14.84,2.38,14.86,11.21
		c0.05,14.52,0.06,21.78,0.09,36.3c0.03,8.83-4.12,12.24-14.86,12.28c-10.66,0.05-14.74-3.2-14.78-11.73
		C1037.02-412.18,1036.99-419.18,1036.96-433.22z M1054.73-433.66c0-2.03-0.74-2.68-2.96-2.55c-2.22,0.14-2.96,0.8-2.95,2.9
		c0.05,13.69,0.06,20.53,0.11,34.21c0,2.1,0.74,2.7,3.04,2.67c2.14-0.03,2.89-0.76,2.89-2.78
		C1054.8-412.99,1054.78-419.88,1054.73-433.66z"/>
	<path class="st0" d="M1073.45-446.99c8.63-0.47,12.95-0.66,21.59-0.98c0.02,4.37,0.02,6.56,0.02,10.93
		c-4.07,0.13-6.1,0.19-10.16,0.35c0.02,5.98,0.02,8.96,0.03,14.93c3.71-0.09,5.57-0.14,9.27-0.24c0.02,4.37,0.02,6.56,0.02,10.93
		c-3.71,0.06-5.55,0.09-9.26,0.17c0.02,9.49,0.03,14.22,0.05,23.72c-4.56,0.02-6.84,0.03-11.4,0.05
		C1073.56-407.09,1073.51-427.04,1073.45-446.99z"/>
	<path class="st0" d="M1114.66-448.53c4.43-0.09,6.64-0.13,11.07-0.17c1.04,17.47,2.1,34.93,3.14,52.4h0.08
		c1.53-17.49,3.06-34.96,4.59-52.45c6.18-0.02,9.27-0.02,15.44,0.05c1.5,17.47,3,34.95,4.49,52.42h0.14
		c1.06-17.44,2.1-34.88,3.15-52.32c4.43,0.06,6.64,0.11,11.07,0.24c-1.89,20.37-3.77,40.75-5.63,61.12
		c-6.45-0.02-9.68-0.02-16.15-0.02c-1.58-16.98-3.15-33.98-4.73-50.97h-0.14c-1.58,16.98-3.17,33.98-4.75,50.97
		c-6.47,0-9.68,0-16.15,0.02C1118.4-407.69,1116.54-428.11,1114.66-448.53z"/>
	<path class="st0" d="M1172.41-436.36c0.02-9.05,4.18-12.46,14.86-12c10.69,0.46,14.82,4.13,14.81,13.03
		c-0.03,14.62-0.05,21.92-0.09,36.52c-0.02,8.88-4.18,12.28-14.92,12.25c-10.66-0.03-14.73-3.52-14.71-12.57
		C1172.38-414.01,1172.38-421.47,1172.41-436.36z M1190.21-435.1c0-2.08-0.74-2.84-2.96-2.92c-2.22-0.08-2.96,0.54-2.96,2.71
		c-0.03,14.22-0.05,21.32-0.06,35.55c0,2.18,0.74,2.82,3.03,2.84c2.14,0.02,2.89-0.69,2.9-2.78
		C1190.17-413.85,1190.18-420.94,1190.21-435.1z"/>
	<path class="st0" d="M1209.01-446.61c5.66,0.35,8.5,0.54,14.16,0.95c12.38,0.9,15.69,4.18,15.66,14.95
		c-0.02,2.76-0.02,4.13-0.02,6.89c-0.09,7.66-2.03,10.5-7.81,11.42v0.17c6.21,1.72,7.62,3.49,7.74,9.62
		c-0.02,6.28-0.03,9.41-0.05,15.68c-4.56-0.03-6.84-0.05-11.4-0.06c0.02-6.69,0.03-10.03,0.05-16.7c0-2.54-1.25-3.45-5.09-3.56
		c-0.77-0.02-1.15-0.03-1.92-0.05c-0.03,8.11-0.03,12.17-0.06,20.28c-4.56-0.03-6.84-0.03-11.4-0.06
		C1208.9-406.95,1208.95-426.77,1209.01-446.61z M1220.33-417.47c0.88,0.03,1.34,0.05,2.22,0.09c3.93,0.16,4.81-0.76,4.83-4.87
		c0.02-3.5,0.02-5.25,0.03-8.75c0.02-3.06-1.03-4.45-3.55-4.59c-1.39-0.08-2.08-0.13-3.49-0.21
		C1220.36-428.47,1220.36-424.81,1220.33-417.47z"/>
	<path class="st0" d="M1245.53-443.83c4.56,0.43,6.84,0.63,11.39,1.1c-0.03,9.41-0.05,14.13-0.08,23.56l-0.08,0.16l0.14,0.02
		c2.96-9.3,4.43-13.89,7.4-22.95c4.87,0.52,7.32,0.8,12.19,1.39c-3.9,9.79-5.85,14.79-9.76,25c4.35,11.8,6.51,17.6,10.87,28.92
		c-4.92-0.05-7.38-0.06-12.28-0.11c-3.37-9.87-5.06-14.89-8.44-25.04h-0.14l0.08,0.17c-0.03,9.92-0.05,14.89-0.08,24.81
		c-4.56-0.03-6.84-0.05-11.4-0.08C1245.41-405.88,1245.47-424.86,1245.53-443.83z"/>
	<path class="st0" d="M1291.28-399.9c-0.02,4.31,0.44,5.01,3.39,5.11c2.51,0.08,3.41-0.66,3.41-2.9c0-2.22,0-3.33,0-5.55
		c0-3.08-0.5-3.64-4.79-5.08c-10.87-3.23-12.49-5.22-12.54-15.33c0-1.31,0-1.97,0.02-3.28c0.03-11.13,2.54-13.44,13.61-11.94
		c10.55,1.44,14,4.38,13.99,11.73c0,2.4,0,3.6,0,5.99c-4.04-0.43-6.06-0.63-10.11-1.03c0-0.98,0-1.48,0-2.46
		c0-4.38-0.36-4.97-3.01-5.28c-2.87-0.33-3.47,0.32-3.47,3.36c0,1.37,0,2.07,0,3.44c0,3.2,0.66,3.97,4.19,5.13
		c12.17,4.23,13.5,5.85,13.5,17.06c0,12.03-2.96,15.08-14.37,14.97c-11.62-0.09-14.43-2.76-14.4-13.81c0-1.77,0-2.65,0.02-4.4
		c4.23,0.19,6.34,0.3,10.57,0.5C1291.28-402.15,1291.28-401.41,1291.28-399.9z"/>
</g>
<polygon class="st0" points="1235.72,-477.17 1236.04,-477.61 1235.44,-477.53 "/>
<polygon class="st0" points="1220.85,-496.21 1223.27,-493.13 1250.19,-497.07 1253.2,-501.22 1250.28,-500.79 "/>
<polygon class="st0" points="1229.35,-485.32 1243.12,-487.34 1246.68,-492.26 1226.28,-489.27 "/>
<polygon class="st0" points="1235.44,-477.53 1236.04,-477.61 1239.6,-482.53 1232.37,-481.48 "/>
<g>
	<polygon class="st0" points="949.18,-166.54 945.53,-161.59 979.16,-116.49 983.59,-121.44 	"/>
	<rect x="937.92" y="-143.85" class="st0" width="7.27" height="7.27"/>
	<rect x="946.6" y="-143.85" class="st0" width="7.27" height="7.27"/>
	<rect x="937.92" y="-135.48" class="st0" width="7.27" height="7.27"/>
	<rect x="946.6" y="-135.48" class="st0" width="7.27" height="7.27"/>
	<g>
		<g>
			<path class="st0" d="M931.3-167.66l-0.52,1.47l5.88,0.3l-7.51,3.69l-2.62,5.82l-2.6-3.39l-7.52,3.3l5.91-5.79l-1.45-2.71
				l-53.96,13.83l0,0l3.85,0.19l-7.51,3.69l-2.62,5.82l-2.6-3.39l-7.51,3.3l5.91-5.79l-0.3-0.55l0,0l-0.3-0.43l-6.23,1.59
				l-19.84,26.86l2.03-0.06l-0.13-0.25l6.24-0.19l6.26-5.65l-2.03,5.68l0.21,0.06l32.88-0.99l4.6-4.4l-1.55,4.31l28.92-0.88
				l37.01-48.73L931.3-167.66z M870.82-131.61l-2.62,5.82l-2.6-3.39l-7.52,3.3l5.91-5.79l-2.03-3.78l6.26-0.19l6.26-5.63l-2.03,5.68
				l5.88,0.3L870.82-131.61z M886.14-141.19l5.91-5.79l-2.03-3.78l6.24-0.19l6.26-5.65l-2.03,5.68l5.9,0.3l-7.51,3.69l-2.62,5.82
				l-2.6-3.39L886.14-141.19z M906.45-131.27l-2.62,5.82l-2.6-3.39l-7.52,3.3l5.91-5.79l-2.03-3.78l6.26-0.19l6.26-5.63l-2.03,5.68
				l5.88,0.3L906.45-131.27z"/>
		</g>
	</g>
</g>
<g>
	<path class="st0" d="M221.15,273.81h-3.24v19.27h1.73c2.81,0,4.9-0.28,6.3-0.83c1.39-0.55,2.49-1.54,3.29-2.98
		c0.8-1.44,1.19-3.31,1.19-5.63c0-3.35-0.73-5.82-2.2-7.42C226.76,274.61,224.4,273.81,221.15,273.81z"/>
	<polygon class="st0" points="168.5,300.49 180.92,300.49 174.8,285.35 	"/>
	<path class="st0" d="M80.88,261.02h-1.62v24.94c0.87,0.05,1.53,0.08,1.98,0.08c3.2,0,5.67-1.03,7.4-3.09
		c1.73-2.06,2.6-5.24,2.6-9.55c0-4.28-0.86-7.42-2.6-9.41C86.91,262.02,84.32,261.02,80.88,261.02z"/>
	<polygon class="st0" points="182.61,213.99 176.31,228.69 188.73,228.69 	"/>
	<path class="st0" d="M323.91,241.79c2.08,0,3.82-0.52,5.21-1.57c1.78-1.35,3.16-3.49,4.15-6.44c0.99-2.95,1.48-6.8,1.48-11.54
		c0-5.65-0.5-9.88-1.51-12.68c-1.01-2.8-2.3-4.79-3.87-5.94c-1.56-1.16-3.36-1.74-5.4-1.74c-3.76,0-6.62,2-8.58,5.99
		c-1.59,3.27-2.39,7.98-2.39,14.11c0,7.29,1.23,12.67,3.7,16.16C318.42,240.58,320.82,241.79,323.91,241.79z"/>
	<path class="st0" d="M250,27.41C127.07,27.41,27.41,127.07,27.41,250S127.07,472.59,250,472.59S472.59,372.93,472.59,250
		S372.93,27.41,250,27.41z M349.21,242.01c2.26-0.02,3.83-0.51,4.72-1.45c0.9-0.95,1.33-2.55,1.33-4.82v-30.13l-0.88-1.14
		c-0.87-1.13-1.64-1.89-2.3-2.24c-0.66-0.36-1.62-0.56-2.88-0.6v-1.17h14.57l20.26,26.48V208.6c0-2.57-0.35-4.29-1.06-5.2
		c-0.97-1.22-2.6-1.81-4.87-1.76v-1.17h13.57v1.17c-1.74,0.23-2.9,0.53-3.5,0.89c-0.6,0.37-1.05,0.97-1.4,1.8
		c-0.33,0.83-0.49,2.25-0.49,4.27v35.55h-1.03l-27.77-35.55v27.14c0,2.46,0.54,4.11,1.61,4.97c1.09,0.86,2.32,1.29,3.72,1.29h0.97
		v1.16h-14.57V242.01z M308.29,205.84c4.15-4.22,9.26-6.21,15.31-5.97c6.54-0.25,11.86,1.73,15.95,5.96
		c4.09,4.22,6.14,9.5,6.14,15.84c0,5.41-1.53,10.18-4.58,14.3c-4.04,5.46-9.74,8.19-17.12,8.19c-7.39,0-13.1-2.61-17.14-7.81
		c-3.19-4.11-4.79-8.99-4.79-14.64C302.07,215.36,304.15,210.08,308.29,205.84z M255.29,242.01c2.26-0.02,3.84-0.51,4.73-1.45
		c0.89-0.95,1.33-2.55,1.33-4.82v-30.13l-0.88-1.14c-0.87-1.13-1.64-1.89-2.3-2.24c-0.67-0.36-1.62-0.56-2.88-0.6v-1.17h14.57
		l20.26,26.48V208.6c0-2.57-0.35-4.29-1.06-5.2c-0.97-1.22-2.6-1.81-4.88-1.76v-1.17h13.57v1.17c-1.74,0.23-2.9,0.53-3.5,0.89
		c-0.6,0.37-1.06,0.97-1.39,1.8c-0.34,0.83-0.51,2.25-0.51,4.27v35.55h-1.03l-27.77-35.55v27.14c0,2.46,0.54,4.11,1.62,4.97
		c1.08,0.86,2.32,1.29,3.71,1.29h0.97v1.16h-14.57V242.01z M164.43,242.01c1.47-0.23,2.68-0.87,3.64-1.91
		c0.95-1.04,2.12-3.19,3.51-6.44l14.69-34.07h0.58l14.81,35.01c1.41,3.31,2.58,5.4,3.48,6.27c0.68,0.65,1.65,1.02,2.91,1.13v1.16
		h-19.87v-1.16H189c1.59,0,2.71-0.23,3.36-0.69c0.44-0.34,0.67-0.82,0.67-1.45c0-0.38-0.06-0.76-0.18-1.17
		c-0.04-0.18-0.34-0.98-0.91-2.36l-2.18-5.32h-14.51l-1.73,4.15c-0.57,1.39-0.85,2.54-0.85,3.44c0,1.2,0.47,2.07,1.39,2.65
		c0.54,0.34,1.89,0.59,4.03,0.75v1.16h-13.66V242.01z M101.08,282.81c-2.15,2.67-5.12,4.49-8.9,5.45
		c-2.55,0.68-6.85,1.02-12.92,1.02v16.01c0,3.11,0.18,5.08,0.53,5.89c0.36,0.81,0.99,1.46,1.9,1.93c0.91,0.49,2.57,0.73,4.98,0.73
		v1.57H59.54v-1.57c2.46,0,4.14-0.25,5.02-0.75c0.88-0.5,1.5-1.14,1.85-1.94c0.36-0.8,0.54-2.75,0.54-5.87v-37.46
		c0-3.12-0.17-5.09-0.54-5.9c-0.35-0.8-0.97-1.45-1.86-1.93c-0.89-0.48-2.56-0.72-5-0.72v-1.58h23.27c7.66,0,13.16,1.48,16.49,4.43
		c3.33,2.95,5,6.65,5,11.06C104.31,276.93,103.23,280.14,101.08,282.81z M154.52,272.64h-1.33c-1.21,0-2.17,0.23-2.87,0.67
		c-0.53,0.31-0.94,0.83-1.24,1.56c-0.22,0.52-0.34,1.89-0.34,4.08v28.93c0,2.24,0.11,3.64,0.34,4.21c0.22,0.56,0.68,1.05,1.36,1.47
		c0.68,0.42,1.6,0.63,2.75,0.63h1.33v1.2h-21.45v-1.2h1.33c1.21,0,2.17-0.23,2.88-0.68c0.53-0.3,0.94-0.82,1.24-1.55
		c0.22-0.52,0.33-1.88,0.33-4.08v-13.63h-14.51v13.63c0,2.24,0.12,3.64,0.36,4.21c0.23,0.56,0.68,1.05,1.35,1.47
		c0.68,0.42,1.6,0.63,2.74,0.63h1.37v1.2H108.7v-1.2h1.36c1.19,0,2.15-0.23,2.87-0.68c0.53-0.3,0.93-0.82,1.21-1.55
		c0.22-0.52,0.34-1.88,0.34-4.08v-28.93c0-2.25-0.11-3.66-0.34-4.21c-0.22-0.56-0.67-1.06-1.35-1.47c-0.67-0.43-1.59-0.64-2.74-0.64
		h-1.36v-1.2h21.47v1.2h-1.37c-1.19,0-2.15,0.23-2.88,0.67c-0.52,0.31-0.94,0.83-1.24,1.56c-0.22,0.52-0.34,1.89-0.34,4.08v12.46
		h14.51v-12.46c0-2.25-0.11-3.66-0.33-4.21c-0.22-0.56-0.68-1.06-1.36-1.47c-0.69-0.43-1.61-0.64-2.76-0.64h-1.33v-1.2h21.45V272.64
		z M148.71,242.21c-3.24,1.53-7.03,2.3-11.36,2.3c-5.69,0-10.76-1.25-15.18-3.74c-4.42-2.49-7.83-6.07-10.24-10.74
		c-2.4-4.67-3.61-9.64-3.61-14.91c0-5.55,1.33-10.83,4-15.82c2.67-4.98,6.26-8.85,10.79-11.6c4.53-2.75,9.34-4.13,14.44-4.13
		c3.75,0,7.72,0.89,11.89,2.67c2.42,1.03,3.96,1.54,4.61,1.54c0.84,0,1.57-0.34,2.19-1.01c0.62-0.67,1.02-1.74,1.2-3.21h1.54v20.2
		h-1.54c-1.16-5.27-3.31-9.31-6.46-12.12c-3.15-2.81-6.72-4.21-10.71-4.21c-3.33,0-6.39,1.04-9.17,3.14
		c-2.79,2.09-4.82,4.83-6.11,8.2c-1.65,4.33-2.48,9.14-2.48,14.44c0,5.21,0.6,9.96,1.81,14.24c1.21,4.28,3.1,7.51,5.67,9.7
		c2.57,2.2,5.9,3.29,10,3.29c3.36,0,6.44-0.81,9.24-2.41c2.79-1.6,5.74-4.36,8.84-8.3v5.03
		C155.07,238.21,151.96,240.68,148.71,242.21z M200.24,315.41h-19.87v-1.2h0.82c1.59,0,2.71-0.24,3.36-0.71
		c0.44-0.34,0.66-0.84,0.66-1.49c0-0.39-0.06-0.8-0.18-1.2c-0.04-0.2-0.34-1.01-0.91-2.43l-2.18-5.47h-14.51l-1.73,4.28
		c-0.56,1.42-0.84,2.6-0.84,3.53c0,1.24,0.46,2.14,1.39,2.72c0.55,0.34,1.89,0.61,4.03,0.77v1.2h-13.66v-1.2
		c1.47-0.24,2.68-0.88,3.63-1.96c0.95-1.07,2.12-3.28,3.52-6.63l14.69-35.08h0.58l14.81,36.06c1.41,3.41,2.58,5.56,3.48,6.45
		c0.69,0.68,1.65,1.07,2.91,1.17V315.41z M246.78,315.41h-12.93l-13.24-20.04h-2.7v12.32c0,2.38,0.13,3.88,0.41,4.49
		c0.27,0.61,0.75,1.11,1.44,1.47c0.68,0.37,1.97,0.55,3.85,0.55v1.2h-21.02v-1.2c1.9,0,3.19-0.19,3.86-0.56
		c0.67-0.38,1.15-0.87,1.42-1.48c0.28-0.6,0.41-2.1,0.41-4.47v-28.54c0-2.37-0.13-3.86-0.41-4.48c-0.27-0.62-0.76-1.1-1.44-1.48
		c-0.68-0.36-1.97-0.55-3.85-0.55v-1.2h19.08c4.97,0,8.61,0.37,10.91,1.11c2.3,0.73,4.18,2.09,5.63,4.06
		c1.46,1.98,2.19,4.3,2.19,6.96c0,3.24-1.09,5.92-3.28,8.04c-1.39,1.34-3.34,2.35-5.85,3.01l9.87,14.89
		c1.29,1.92,2.21,3.12,2.76,3.59c0.84,0.67,1.79,1.04,2.88,1.1V315.41z M247.13,208.6v35.55h-1.03l-27.78-35.55v27.14
		c0,2.46,0.54,4.11,1.62,4.97c1.08,0.86,2.31,1.29,3.71,1.29h0.97v1.16h-14.57v-1.16c2.26-0.02,3.83-0.51,4.72-1.45
		c0.89-0.95,1.33-2.55,1.33-4.82v-30.13l-0.88-1.14c-0.87-1.13-1.63-1.89-2.3-2.24c-0.67-0.36-1.62-0.56-2.88-0.6v-1.17h14.57
		l20.26,26.48V208.6c0-2.57-0.35-4.29-1.06-5.2c-0.97-1.22-2.6-1.81-4.88-1.76v-1.17h13.57v1.17c-1.74,0.23-2.9,0.53-3.5,0.89
		c-0.59,0.37-1.05,0.97-1.39,1.8C247.3,205.16,247.13,206.58,247.13,208.6z M304.16,272.64h-1.34c-1.21,0-2.18,0.23-2.9,0.67
		c-0.5,0.31-0.91,0.81-1.22,1.53c-0.22,0.52-0.33,1.87-0.33,4.06v28.99c0,2.24,0.11,3.64,0.33,4.21c0.23,0.56,0.68,1.05,1.36,1.47
		c0.69,0.42,1.61,0.63,2.76,0.63h1.34v1.2h-21.45v-1.2h1.33c1.21,0,2.18-0.23,2.91-0.68c0.51-0.3,0.91-0.82,1.21-1.55
		c0.22-0.52,0.34-1.88,0.34-4.08V275.3l-15.76,40.11h-0.73l-15.99-39.82v30.97c0,2.16,0.05,3.49,0.15,3.99
		c0.26,1.08,0.83,1.97,1.71,2.64c0.87,0.68,2.25,1.02,4.13,1.02v1.2h-14.05v-1.2h0.42c0.91,0.03,1.76-0.13,2.54-0.47
		c0.79-0.34,1.38-0.78,1.79-1.35c0.4-0.56,0.71-1.34,0.93-2.36c0.04-0.24,0.06-1.34,0.06-3.31V278.9c0-2.23-0.11-3.62-0.33-4.17
		c-0.22-0.55-0.68-1.04-1.37-1.45c-0.68-0.43-1.6-0.64-2.75-0.64h-1.3v-1.2h16.78l11.54,28.99l11.15-28.99h16.72V272.64z
		 M349.88,315.41H330v-1.2h0.82c1.6,0,2.71-0.24,3.37-0.71c0.43-0.34,0.66-0.84,0.66-1.49c0-0.39-0.05-0.8-0.18-1.2
		c-0.05-0.2-0.34-1.01-0.91-2.43l-2.19-5.47h-14.51l-1.72,4.28c-0.56,1.42-0.84,2.6-0.84,3.53c0,1.24,0.46,2.14,1.39,2.72
		c0.54,0.34,1.89,0.61,4.03,0.77v1.2h-13.66v-1.2c1.47-0.24,2.68-0.88,3.63-1.96c0.95-1.07,2.13-3.28,3.52-6.63l14.68-35.08h0.58
		l14.82,36.06c1.4,3.41,2.57,5.56,3.48,6.45c0.69,0.68,1.65,1.07,2.91,1.17V315.41z M392.47,285.68h-1.18
		c-0.89-3.98-2.54-7.03-4.96-9.15c-2.43-2.12-5.17-3.17-8.24-3.17c-2.56,0-4.92,0.78-7.06,2.36c-2.14,1.58-3.7,3.64-4.69,6.19
		c-1.28,3.27-1.92,6.9-1.92,10.9c0,3.94,0.47,7.51,1.39,10.75c0.93,3.23,2.39,5.67,4.36,7.34c1.98,1.65,4.55,2.47,7.7,2.47
		c2.58,0,4.95-0.61,7.1-1.81c2.16-1.22,4.42-3.29,6.8-6.26v3.79c-2.3,2.58-4.7,4.44-7.19,5.6c-2.49,1.16-5.41,1.74-8.75,1.74
		c-4.37,0-8.28-0.94-11.67-2.82c-3.41-1.88-6.04-4.58-7.87-8.1c-1.85-3.53-2.78-7.28-2.78-11.25c0-4.19,1.03-8.17,3.07-11.93
		c2.06-3.76,4.82-6.68,8.31-8.75c3.47-2.07,7.18-3.11,11.1-3.11c2.89,0,5.93,0.67,9.15,2.01c1.86,0.78,3.04,1.16,3.54,1.16
		c0.64,0,1.2-0.25,1.67-0.76c0.48-0.5,0.79-1.32,0.93-2.41h1.18V285.68z M437.34,273.9c-1.01,0.92-2.6,3.39-4.78,7.43l-8.91,15.92
		v10.64c0,2.27,0.11,3.68,0.33,4.23c0.23,0.55,0.66,1.04,1.32,1.46c0.66,0.42,1.53,0.63,2.62,0.63h2.3v1.2h-23.05v-1.2h2.15
		c1.22,0,2.17-0.23,2.88-0.68c0.53-0.3,0.95-0.82,1.25-1.55c0.22-0.52,0.33-1.88,0.33-4.08v-8.82l-9.66-18.84
		c-1.92-3.72-3.27-5.9-4.06-6.57c-0.78-0.66-1.83-1-3.15-1.02v-1.2h19.69v1.2h-0.87c-1.2,0-2.02,0.19-2.51,0.55
		c-0.48,0.37-0.71,0.76-0.71,1.17c0,0.77,0.81,2.73,2.43,5.87l7.43,14.56l7.38-13.26c1.84-3.25,2.76-5.4,2.76-6.45
		c0-0.58-0.26-1.07-0.79-1.46c-0.69-0.53-1.95-0.86-3.79-0.97v-1.2h12.54v1.2C439.11,272.83,438.08,273.25,437.34,273.9z"/>
	<polygon class="st0" points="318.13,300.49 330.55,300.49 324.43,285.35 	"/>
</g>
</svg>
