<?xml version="1.0" encoding="utf-8"?>
<!-- Generator: Adobe Illustrator 27.9.0, SVG Export Plug-In . SVG Version: 6.00 Build 0)  -->
<svg version="1.1" id="Layer_1" xmlns="http://www.w3.org/2000/svg" xmlns:xlink="http://www.w3.org/1999/xlink" x="0px" y="0px"
	 viewBox="0 0 432 432" style="enable-background:new 0 0 432 432;" xml:space="preserve">
<style type="text/css">
	.st0{fill:#0656A5;}
	.st1{fill:#FFFFFF;}
</style>
<g>
	<path class="st0" d="M324.07,181.1c-16.88,44.71-54.93,110.92-90.45,110.92c-16.71,0-26.6-8.13-26.6-24.4
		c0-11.87,12.53-36.05,18.24-46.61h-0.44c-43.75,49.47-58.7,71-75.19,71c-6.59,0-13.63-3.73-13.63-12.31
		c0-19.34,50.78-102,50.78-118.05c0-3.74-1.98-4.62-4.61-4.62c-15.61,0-24.62,12.31-35.83,47.27c-1.76,5.49-15.83,13.41-20.67,13.41
		c-3.08,0-3.3-1.54-3.3-3.96c0-12.75,20.88-76.5,60.45-76.5c13.41,0,25.94,6.81,25.94,20c0,7.03-2.86,16.71-7.04,25.28l-39.57,80.67
		h0.44c22.86-23.52,65.95-73.42,78.48-88.81c2.86-3.52,4.4-7.48,9.01-7.48c6.81,0,14.95,4.84,14.95,6.82
		c0,7.47-37.81,77.82-37.81,92.99c0,3.74,3.95,5.49,7.47,5.49c15.82,0,59.58-54.01,76.03-118.83
		c-20.32-30.7-55.16-50.96-94.74-50.96c-62.71,0-113.54,50.84-113.54,113.54c0,62.71,50.84,113.54,113.54,113.54
		c62.71,0,113.54-50.84,113.54-113.54C329.54,203.82,327.62,192.1,324.07,181.1z"/>
	<path class="st1" d="M234.71,272.24c-3.52,0-7.47-1.75-7.47-5.49c0-15.17,37.81-85.52,37.81-92.99c0-1.98-8.13-6.82-14.95-6.82
		c-4.62,0-6.16,3.96-9.01,7.48c-12.53,15.39-55.62,65.29-78.48,88.81h-0.44l39.57-80.67c4.18-8.58,7.04-18.25,7.04-25.28
		c0-13.19-12.53-20-25.94-20c-39.57,0-60.45,63.75-60.45,76.5c0,2.42,0.22,3.96,3.3,3.96c4.84,0,18.91-7.91,20.67-13.41
		c11.21-34.95,20.22-47.27,35.83-47.27c2.64,0,4.61,0.88,4.61,4.62c0,16.05-50.78,98.71-50.78,118.05c0,8.58,7.04,12.31,13.63,12.31
		c16.49,0,31.44-21.54,75.19-71h0.44c-5.71,10.55-18.24,34.73-18.24,46.61c0,16.27,9.89,24.4,26.6,24.4
		c35.52,0,73.58-66.22,90.45-110.92c-3.19-9.89-7.7-19.19-13.33-27.69C294.3,218.23,250.53,272.24,234.71,272.24z"/>
</g>
<g>
	<path class="st1" d="M261.68,288.51v-0.03c0-2.8,2.28-5.15,5.17-5.15c2.89,0,5.14,2.32,5.14,5.12v0.03c0,2.8-2.28,5.15-5.17,5.15
		S261.68,291.31,261.68,288.51z M271.44,288.48v-0.03c0-2.55-1.98-4.61-4.6-4.61c-2.63,0-4.63,2.09-4.63,4.64v0.03
		c0,2.55,1.98,4.61,4.6,4.61C269.45,293.12,271.44,291.03,271.44,288.48z M264.75,285.64h2.41c0.71,0,1.28,0.21,1.64,0.57
		c0.28,0.28,0.44,0.68,0.44,1.14v0.03c0,0.87-0.51,1.41-1.25,1.64l1.45,2.02h-1.22l-1.31-1.86h-1.12v1.86h-1.02V285.64z
		 M267.12,288.27c0.67,0,1.07-0.33,1.07-0.84v-0.03c0-0.54-0.4-0.84-1.07-0.84h-1.34v1.71H267.12z"/>
</g>
</svg>
