<?xml version="1.0" encoding="utf-8"?>
<!-- Generator: Adobe Illustrator 25.0.1, SVG Export Plug-In . SVG Version: 6.00 Build 0)  -->
<svg version="1.1" id="Layer_1" xmlns="http://www.w3.org/2000/svg" xmlns:xlink="http://www.w3.org/1999/xlink" x="0px" y="0px"
	 viewBox="0 0 500 500" style="enable-background:new 0 0 500 500;" xml:space="preserve">
<style type="text/css">
	.st0{fill:#FFFFFF;}
</style>
<path class="st0" d="M442.6,187.8l-4.4-13.6l-5,13.4c-16.6,43.9-41.2,90.4-65.8,124.4c-30.9,42.6-60.9,65.2-86.7,65.2
	c-27.4,0-41.2-12.6-41.2-37.4c0-13.6,11-41.6,31.1-78.6l4-7.4h-11.4l-1.5,1.7c-14,15.9-26.4,30.1-37.3,42.7
	c-47,54.2-68.5,79-89.6,79c-13.8,0-18.7-8.8-18.7-16.4c0-16.4,24.8-65.4,46.7-108.6c22.3-44.1,41.6-82.1,41.6-96.6
	c0-11.3-8.2-13-13-13c-33.3,0-49.2,30.1-67,85.6c-0.8,2.5-5.4,7.3-13.8,12.5c-7.5,4.6-14.7,7.3-17.3,7.3c-0.3,0-0.5,0-0.7,0
	c0-0.4-0.1-1-0.1-1.9c0-9.8,8.7-42.3,26.1-72.3c14.7-25.4,39.5-55.7,74-55.7c19.3,0,40.1,9.3,40.1,29.8c0,10.9-4.5,26.9-11.7,41.7
	l-72.3,147.4h10.9l1.5-1.5c40.5-41.6,115.7-129,136.7-154.7c1.2-1.4,2.2-2.9,3.2-4.3c3.6-5,5.2-6.9,8.6-6.9c8.7,0,18.3,5.3,20.8,7.8
	c-1.4,6.7-13.2,32-23.7,54.4c-23.7,50.8-41.9,90.9-41.9,106.3c0,7.2,6.2,14.5,18,14.5c19.2,0,48.6-32.6,69.8-63.2
	c17.6-25.4,49.7-78.3,67.2-147.1l0.5-2.1l-1.2-1.8C381.2,81.6,318.1,47.7,250,47.7C138.4,47.7,47.7,138.4,47.7,250
	c0,111.6,90.8,202.3,202.3,202.3c111.6,0,202.3-90.8,202.3-202.3C452.3,228.8,449,207.9,442.6,187.8z M322.8,422.4
	c-23.1,9.8-47.6,14.7-72.8,14.7c-25.3,0-49.8-4.9-72.8-14.7c-18-7.6-34.6-17.9-49.3-30.7c2.3,0.4,4.6,0.6,6.8,0.6
	c14.1,0,27.3-6.6,44.2-22.1c13.4-12.3,29-30,49.9-54.1c-3.1,9.6-4.6,17.5-4.6,23.6c0,16.9,5.3,30.2,15.6,39.4
	c9.8,8.8,23.5,13.2,40.8,13.2c16.9,0,34.7-7.2,52.8-21.4c15.2-11.9,30.7-28.7,46.2-50.1c19.8-27.3,39.6-62.4,55.5-98.2
	c1.3,9,2,18.1,2,27.3c0,25.3-4.9,49.8-14.7,72.8c-9.4,22.3-22.9,42.3-40.1,59.5C365.1,399.5,345.1,413,322.8,422.4z M100.8,363
	c-9.4-12.3-17.2-25.8-23.3-40.2c-9.8-23.1-14.7-47.6-14.7-72.8c0-25.3,4.9-49.8,14.7-72.8c9.4-22.3,22.9-42.3,40.1-59.5
	c17.2-17.2,37.2-30.7,59.5-40.1c23.1-9.8,47.6-14.7,72.8-14.7c61.3,0,118.6,30,153.6,80.3c-17.1,64.4-47.3,113.9-63.8,137.8
	c-12.2,17.6-24.7,32.5-36,42.9c-14.4,13.3-20.6,13.7-21.3,13.7c-0.9,0-2-0.2-2.7-0.5c1.3-15,25.7-67.2,40.4-98.7
	c19.9-42.6,25.3-55.1,25.3-61.8c0-6.2-4.6-11.5-14.2-16.3c-7.2-3.6-15.2-5.7-22-5.7c-11.6,0-17.2,8-21,13.3
	c-0.8,1.2-1.7,2.4-2.6,3.5c-13.3,16.3-52.7,62.5-90.1,104.2l38.8-79.2c8.3-17,13.3-35.1,13.3-48.4c0-14.2-6.3-26.1-18.2-34.4
	c-9.8-6.8-23-10.6-37.1-10.6c-41.6,0-70.2,34.2-86.9,62.8c-18.5,31.8-28.3,67.1-28.3,80.3c0,14.9,10,17.1,15.9,17.1
	c9,0,21.6-7.3,25.3-9.6c7.8-4.8,17.6-12.2,20.3-20.8c9.8-30.6,18-49.3,26.7-60.8c7-9.3,13.9-13.5,23.4-14.1
	c-2.5,13.9-23.8,56.1-39.7,87.5c-25.9,51.2-48.3,95.4-48.3,115.4C100.8,361.5,100.8,362.3,100.8,363z"/>
</svg>
