<?xml version="1.0" encoding="utf-8"?>
<!-- Generator: Adobe Illustrator 27.9.0, SVG Export Plug-In . SVG Version: 6.00 Build 0)  -->
<svg version="1.1" id="Layer_1" xmlns="http://www.w3.org/2000/svg" xmlns:xlink="http://www.w3.org/1999/xlink" x="0px" y="0px"
	 viewBox="0 0 100 125" style="enable-background:new 0 0 100 125;" xml:space="preserve">
<style type="text/css">
	.st0{fill:#4285F4;}
	.st1{fill:#34A853;}
	.st2{fill:#FBBC02;}
	.st3{fill:#EA4335;}
</style>
<g>
	<path class="st0" d="M78.25,93.93c9.8-9.14,14.15-24.38,11.54-38.97H50.82v16.11h22.21c-0.87,5.22-3.92,9.58-8.27,12.41
		L78.25,93.93z"/>
	<path class="st1" d="M13.81,81.08c10.45,20.58,35.61,28.8,56.19,18.35c2.96-1.5,5.73-3.35,8.25-5.51l-13.5-10.45
		c-11.54,7.62-30.7,4.79-37.23-13.06L13.81,81.08z"/>
	<path class="st2" d="M27.53,70.41c-1.74-5.44-1.74-10.45,0-15.89L13.81,43.85c-5.01,10.01-6.53,24.17,0,37.23L27.53,70.41z"/>
	<path class="st3" d="M27.53,54.52C32.32,39.5,52.78,30.79,66.5,43.64l11.97-11.76C61.49,15.55,28.4,16.2,13.81,43.85L27.53,54.52z"
		/>
</g>
</svg>
