<?xml version="1.0" encoding="utf-8"?>
<!-- Generator: Adobe Illustrator 27.9.0, SVG Export Plug-In . SVG Version: 6.00 Build 0)  -->
<svg version="1.1" id="Layer_1" xmlns="http://www.w3.org/2000/svg" xmlns:xlink="http://www.w3.org/1999/xlink" x="0px" y="0px"
	 viewBox="0 0 235.16 120.59" style="enable-background:new 0 0 235.16 120.59;" xml:space="preserve">
<style type="text/css">
	.st0{fill:url(#SVGID_1_);}
	.st1{fill:#9E1725;}
	.st2{fill:#FFFFFF;}
	.st3{fill:url(#SVGID_00000150096800780959479700000014871824334191669385_);}
	.st4{fill:url(#SVGID_00000034773486945444779840000011165279465983380880_);}
	.st5{fill:url(#SVGID_00000105413911768048692310000013725182079422977159_);}
	.st6{fill:url(#SVGID_00000181052356484531862440000017512091377532729747_);}
	.st7{fill:url(#SVGID_00000098213909384672249070000011651401476121059721_);}
	.st8{fill:#04164B;}
	.st9{fill:#B4B4B4;}
	.st10{fill:url(#SVGID_00000089531694752809909590000009120597120086355902_);}
	.st11{fill:url(#SVGID_00000124127774712171157150000015892960890634941577_);}
	.st12{fill:url(#SVGID_00000091712961114974554190000003350200946981436083_);}
	.st13{fill:url(#SVGID_00000028317387070254723970000000722985571426909615_);}
	.st14{fill:none;stroke:#B4B4B4;stroke-width:2.9663;}
	.st15{fill:none;stroke:#FFFFFF;stroke-width:2.9663;}
</style>
<g>
	<linearGradient id="SVGID_1_" gradientUnits="userSpaceOnUse" x1="79.0936" y1="22.7691" x2="151.6685" y2="22.7691">
		<stop  offset="0" style="stop-color:#194891"/>
		<stop  offset="0.6961" style="stop-color:#18234F"/>
	</linearGradient>
	<polygon class="st0" points="79.09,38.97 128.19,37.48 151.67,6.57 91.66,21.94 	"/>
	<polygon class="st1" points="53.63,21.78 51.71,19.17 32.14,45.09 36.44,45.09 	"/>
	<g>
		<polygon class="st2" points="134.03,15.76 138.8,13.67 140.45,15.82 142.11,12.13 146.87,9.79 143.14,9.59 143.47,8.67 
			140.66,9.39 140.46,9.57 139.9,9.58 136.86,10.36 137.78,12.09 		"/>
		<polygon class="st2" points="119.6,23.36 121.25,25.51 122.91,21.82 127.67,19.48 123.94,19.29 125.23,15.68 121.26,19.26 
			117.3,19.38 118.58,21.78 114.83,25.45 		"/>
		<polygon class="st2" points="126.07,29.19 122.1,29.3 123.38,31.71 119.63,35.38 124.4,33.29 126.05,35.44 127.71,31.75 
			132.47,29.41 128.74,29.21 130.04,25.61 		"/>
		<polygon class="st2" points="110.83,35.31 107.73,38.1 109.85,38.04 		"/>
		<polygon class="st2" points="118.04,15.18 117.62,15.29 117.85,15.6 		"/>
		<polygon class="st2" points="92.24,25.23 97,23.14 98.65,25.29 100.32,21.6 105.08,19.25 102.64,19.13 95.65,20.92 95.99,21.55 		
			"/>
		<polygon class="st2" points="107.44,25.39 103.47,28.96 99.5,29.08 100.79,31.48 97.04,35.16 101.81,33.07 103.45,35.22 
			105.12,31.53 109.88,29.18 106.14,28.99 		"/>
		<polygon class="st2" points="88.24,35.08 84.27,38.66 80.3,38.77 80.39,38.93 87.53,38.71 86.94,38.68 		"/>
	</g>
	
		<linearGradient id="SVGID_00000153698405006698640040000008731321552656734350_" gradientUnits="userSpaceOnUse" x1="158.5784" y1="31.1565" x2="175.3936" y2="13.8412">
		<stop  offset="0.2822" style="stop-color:#18234F"/>
		<stop  offset="1" style="stop-color:#194891"/>
	</linearGradient>
	<polygon style="fill:url(#SVGID_00000153698405006698640040000008731321552656734350_);" points="154.81,9.38 152.5,12.52 
		173.82,41.12 176.63,37.98 	"/>
	<g>
		<polygon class="st2" points="173.62,31.3 186.56,29.41 188.78,26.35 171.71,28.85 		"/>
		<polygon class="st2" points="177.48,36.25 182.07,35.58 184.3,32.52 175.57,33.8 		"/>
		<polygon class="st2" points="179.61,38.97 179.81,38.69 179.43,38.75 		"/>
		
			<radialGradient id="SVGID_00000093177402399773694280000006412913857848502718_" cx="139.0995" cy="-7.9144" r="21.2131" gradientTransform="matrix(0.938 -0.1374 0.1967 0.9293 48.2488 59.4326)" gradientUnits="userSpaceOnUse">
			<stop  offset="0" style="stop-color:#9E1725"/>
			<stop  offset="0.5047" style="stop-color:#9F1725"/>
			<stop  offset="0.6895" style="stop-color:#A51926"/>
			<stop  offset="0.8216" style="stop-color:#AD1B26"/>
			<stop  offset="0.9281" style="stop-color:#BA1E26"/>
			<stop  offset="1" style="stop-color:#C62026"/>
		</radialGradient>
		<polygon style="fill:url(#SVGID_00000093177402399773694280000006412913857848502718_);" points="190.69,23.73 190.71,23.71 
			188.84,24 		"/>
		<polygon class="st2" points="170.18,26.9 171.71,28.85 188.78,26.35 190.69,23.73 188.84,24 		"/>
		
			<radialGradient id="SVGID_00000042006175482676959170000003622671939943411885_" cx="139.0995" cy="-7.9144" r="21.2131" gradientTransform="matrix(0.938 -0.1374 0.1967 0.9293 48.2488 59.4326)" gradientUnits="userSpaceOnUse">
			<stop  offset="0" style="stop-color:#9E1725"/>
			<stop  offset="0.5047" style="stop-color:#9F1725"/>
			<stop  offset="0.6895" style="stop-color:#A51926"/>
			<stop  offset="0.8216" style="stop-color:#AD1B26"/>
			<stop  offset="0.9281" style="stop-color:#BA1E26"/>
			<stop  offset="1" style="stop-color:#C62026"/>
		</radialGradient>
		<polygon style="fill:url(#SVGID_00000042006175482676959170000003622671939943411885_);" points="170.18,26.9 171.71,28.85 
			188.78,26.35 190.69,23.73 188.84,24 		"/>
		<polygon class="st2" points="175.57,33.8 184.3,32.52 186.56,29.41 173.62,31.3 		"/>
		
			<radialGradient id="SVGID_00000041290384712978235960000015647821824256226733_" cx="139.0995" cy="-7.9146" r="21.2131" gradientTransform="matrix(0.938 -0.1374 0.1967 0.9293 48.2488 59.4326)" gradientUnits="userSpaceOnUse">
			<stop  offset="0" style="stop-color:#9E1725"/>
			<stop  offset="0.5047" style="stop-color:#9F1725"/>
			<stop  offset="0.6895" style="stop-color:#A51926"/>
			<stop  offset="0.8216" style="stop-color:#AD1B26"/>
			<stop  offset="0.9281" style="stop-color:#BA1E26"/>
			<stop  offset="1" style="stop-color:#C62026"/>
		</radialGradient>
		<polygon style="fill:url(#SVGID_00000041290384712978235960000015647821824256226733_);" points="175.57,33.8 184.3,32.52 
			186.56,29.41 173.62,31.3 		"/>
		<polygon class="st2" points="179.43,38.75 179.81,38.69 182.07,35.58 177.48,36.25 		"/>
		
			<radialGradient id="SVGID_00000025444307313639595150000009518545528982323111_" cx="139.0995" cy="-7.9144" r="21.213" gradientTransform="matrix(0.938 -0.1374 0.1967 0.9293 48.2488 59.4326)" gradientUnits="userSpaceOnUse">
			<stop  offset="0" style="stop-color:#9E1725"/>
			<stop  offset="0.5047" style="stop-color:#9F1725"/>
			<stop  offset="0.6895" style="stop-color:#A51926"/>
			<stop  offset="0.8216" style="stop-color:#AD1B26"/>
			<stop  offset="0.9281" style="stop-color:#BA1E26"/>
			<stop  offset="1" style="stop-color:#C62026"/>
		</radialGradient>
		<polygon style="fill:url(#SVGID_00000025444307313639595150000009518545528982323111_);" points="179.43,38.75 179.81,38.69 
			182.07,35.58 177.48,36.25 		"/>
	</g>
	<polygon class="st1" points="191.79,24.8 190.35,27.07 200.6,39.71 203.01,38.81 	"/>
	<g>
		<rect x="51.18" y="30.79" class="st1" width="3.49" height="3.49"/>
		<rect x="55.34" y="30.79" class="st1" width="3.49" height="3.49"/>
		<rect x="51.18" y="34.82" class="st1" width="3.49" height="3.49"/>
		<rect x="55.34" y="34.82" class="st1" width="3.49" height="3.49"/>
	</g>
	<g>
		<rect x="147.68" y="23.76" class="st8" width="4.61" height="4.61"/>
		<rect x="153.17" y="23.76" class="st8" width="4.61" height="4.61"/>
		<rect x="147.68" y="29.08" class="st8" width="4.61" height="4.61"/>
		<rect x="153.17" y="29.08" class="st8" width="4.61" height="4.61"/>
	</g>
	<g>
		<rect x="188.5" y="31.81" class="st1" width="2.21" height="2.21"/>
		<rect x="191.13" y="31.81" class="st1" width="2.21" height="2.21"/>
		<rect x="188.5" y="34.36" class="st1" width="2.21" height="2.21"/>
		<rect x="191.13" y="34.36" class="st1" width="2.21" height="2.21"/>
	</g>
	<path class="st1" d="M117.58,46.34c43.95,0,84.04,4.31,114.42,11.41c-27.12-10.59-68.31-17.35-114.42-17.35S30.28,47.15,3.15,57.75
		C33.54,50.65,73.63,46.34,117.58,46.34z"/>
	<g>
		<g>
			<rect x="7.21" y="108.64" class="st9" width="79.19" height="0.88"/>
		</g>
		<g>
			<rect x="148.76" y="108.64" class="st9" width="79.19" height="0.88"/>
		</g>
		<g>
			<path class="st1" d="M96.81,106.35v5.07c0,0.25,0.1,0.46,0.29,0.64c0.19,0.17,0.42,0.25,0.7,0.26h4.27
				c0.28-0.01,0.51-0.1,0.7-0.26c0.19-0.18,0.29-0.39,0.29-0.63v-5.07h2.09v5.43c0,0.62-0.23,1.15-0.72,1.58
				c-0.48,0.44-1.06,0.66-1.75,0.66h-5.5c-0.68,0-1.27-0.22-1.75-0.66c-0.48-0.44-0.72-0.96-0.72-1.58v-5.43H96.81z"/>
			<path class="st1" d="M119.34,106.35c0.71,0,1.3,0.23,1.79,0.68c0.49,0.45,0.74,1,0.74,1.64v0.03h-2.04
				c0.01-0.02,0.01-0.03,0.01-0.03c0-0.17-0.06-0.31-0.19-0.42c-0.12-0.12-0.27-0.18-0.47-0.17h-4.36
				c-0.18-0.01-0.33,0.05-0.46,0.17c-0.12,0.11-0.18,0.25-0.18,0.41c0,0.16,0.07,0.3,0.19,0.42c0.12,0.12,0.27,0.17,0.45,0.17
				c0.51,0,1.31,0,2.39-0.01c1.07-0.01,1.87-0.01,2.38,0c0.73,0,1.34,0.23,1.85,0.7c0.52,0.46,0.77,1.02,0.76,1.68
				c0,0.66-0.25,1.22-0.77,1.69c-0.5,0.46-1.11,0.69-1.84,0.69h-5.08c-0.72,0-1.33-0.23-1.85-0.69c-0.51-0.46-0.76-1.02-0.76-1.69
				h1.96v0.01c0,0.19,0.07,0.35,0.22,0.48c0.15,0.13,0.32,0.2,0.52,0.2h4.79c0.21-0.01,0.38-0.08,0.53-0.2
				c0.14-0.13,0.21-0.29,0.21-0.48c0-0.19-0.07-0.35-0.22-0.48c-0.15-0.13-0.32-0.2-0.52-0.2h-4.94c-0.7,0-1.3-0.23-1.79-0.68
				c-0.49-0.46-0.74-1-0.74-1.63c0-0.64,0.25-1.18,0.74-1.62c0.49-0.44,1.09-0.68,1.79-0.7H119.34z"/>
			<path class="st1" d="M135.57,106.35l4.87,7.67h-2.26l-1.06-1.68h-5.19l-1.07,1.68h-2.25l4.87-7.67H135.57z M132.96,110.72h3.12
				l-1.56-2.46L132.96,110.72z"/>
		</g>
	</g>
	<g>
		<polygon class="st2" points="62.96,29.02 82.23,31.65 84.07,29.18 60.59,25.97 		"/>
		<polygon class="st2" points="67.72,35.18 78.51,36.65 80.35,34.17 65.36,32.13 		"/>
		<polygon class="st2" points="58.19,22.86 85.94,26.65 87.79,24.18 55.83,19.81 		"/>
		<polygon class="st2" points="70.66,38.97 75.15,38.97 70.13,38.28 		"/>
		<polygon class="st2" points="55.83,19.81 87.79,24.18 89.49,21.89 53.63,16.98 		"/>
		
			<radialGradient id="SVGID_00000183954292036004459870000008529037234096927910_" cx="161.3567" cy="25.1818" r="21.2131" gradientTransform="matrix(0.9393 0.1283 -0.0689 0.9474 -77.3001 -23.0624)" gradientUnits="userSpaceOnUse">
			<stop  offset="0" style="stop-color:#9E1725"/>
			<stop  offset="0.5047" style="stop-color:#9F1725"/>
			<stop  offset="0.6895" style="stop-color:#A51926"/>
			<stop  offset="0.8216" style="stop-color:#AD1B26"/>
			<stop  offset="0.9281" style="stop-color:#BA1E26"/>
			<stop  offset="1" style="stop-color:#C62026"/>
		</radialGradient>
		<polygon style="fill:url(#SVGID_00000183954292036004459870000008529037234096927910_);" points="55.83,19.81 87.79,24.18 
			89.49,21.89 53.63,16.98 		"/>
		<polygon class="st2" points="60.59,25.97 84.07,29.18 85.94,26.65 58.19,22.86 		"/>
		
			<radialGradient id="SVGID_00000003822886155132532690000011567813795311790485_" cx="161.3567" cy="25.182" r="21.213" gradientTransform="matrix(0.9393 0.1283 -0.0689 0.9474 -77.3001 -23.0624)" gradientUnits="userSpaceOnUse">
			<stop  offset="0" style="stop-color:#9E1725"/>
			<stop  offset="0.5047" style="stop-color:#9F1725"/>
			<stop  offset="0.6895" style="stop-color:#A51926"/>
			<stop  offset="0.8216" style="stop-color:#AD1B26"/>
			<stop  offset="0.9281" style="stop-color:#BA1E26"/>
			<stop  offset="1" style="stop-color:#C62026"/>
		</radialGradient>
		<polygon style="fill:url(#SVGID_00000003822886155132532690000011567813795311790485_);" points="60.59,25.97 84.07,29.18 
			85.94,26.65 58.19,22.86 		"/>
		<polygon class="st2" points="65.36,32.13 80.35,34.17 82.23,31.65 62.96,29.02 		"/>
		
			<radialGradient id="SVGID_00000119832966739379264320000001478874184737036205_" cx="161.3567" cy="25.1823" r="21.2128" gradientTransform="matrix(0.9393 0.1283 -0.0689 0.9474 -77.3001 -23.0624)" gradientUnits="userSpaceOnUse">
			<stop  offset="0" style="stop-color:#9E1725"/>
			<stop  offset="0.5047" style="stop-color:#9F1725"/>
			<stop  offset="0.6895" style="stop-color:#A51926"/>
			<stop  offset="0.8216" style="stop-color:#AD1B26"/>
			<stop  offset="0.9281" style="stop-color:#BA1E26"/>
			<stop  offset="1" style="stop-color:#C62026"/>
		</radialGradient>
		<polygon style="fill:url(#SVGID_00000119832966739379264320000001478874184737036205_);" points="65.36,32.13 80.35,34.17 
			82.23,31.65 62.96,29.02 		"/>
		<polygon class="st2" points="70.13,38.28 75.15,38.97 76.78,38.97 78.51,36.65 67.72,35.18 		"/>
		
			<radialGradient id="SVGID_00000083059899438262031030000009716754217766690735_" cx="161.3567" cy="25.1826" r="21.2127" gradientTransform="matrix(0.9393 0.1283 -0.0689 0.9474 -77.3001 -23.0624)" gradientUnits="userSpaceOnUse">
			<stop  offset="0" style="stop-color:#9E1725"/>
			<stop  offset="0.5047" style="stop-color:#9F1725"/>
			<stop  offset="0.6895" style="stop-color:#A51926"/>
			<stop  offset="0.8216" style="stop-color:#AD1B26"/>
			<stop  offset="0.9281" style="stop-color:#BA1E26"/>
			<stop  offset="1" style="stop-color:#C62026"/>
		</radialGradient>
		<polygon style="fill:url(#SVGID_00000083059899438262031030000009716754217766690735_);" points="70.13,38.28 75.15,38.97 
			76.78,38.97 78.51,36.65 67.72,35.18 		"/>
	</g>
	<g>
		<g>
			<g>
				<path class="st9" d="M8.78,65.49c3.57-0.51,5.35-0.76,8.92-1.23c7.81-1.03,9.92,0.49,9.94,6.85c0,1.63,0.01,2.44,0.01,4.07
					c-0.04,4.53-1.25,6.34-4.91,7.21c0,0.04,0,0.06,0,0.1c3.94,0.62,4.83,1.61,4.94,5.22c0.01,3.71,0.01,5.56,0.02,9.27
					c-2.89,0.02-4.34,0.03-7.23,0.05c-0.01-3.79-0.01-5.69-0.02-9.48c0-1.44-0.8-1.9-3.24-1.78c-0.49,0.02-0.73,0.04-1.22,0.06
					c0.01,4.49,0.01,6.74,0.02,11.23c-2.89,0.02-4.34,0.03-7.23,0.05C8.78,86.57,8.78,76.03,8.78,65.49z M15.99,80.21
					c0.56-0.04,0.84-0.06,1.41-0.1c2.48-0.18,3.04-0.76,3.04-3.1c0-1.99-0.01-2.98-0.01-4.96c0-1.74-0.66-2.41-2.25-2.24
					c-0.88,0.1-1.32,0.15-2.2,0.24C15.98,74.12,15.99,76.15,15.99,80.21z"/>
				<path class="st9" d="M31.57,69.26c-0.01-5.1,2.6-7.39,9.35-8.08s9.39,1.16,9.41,6.53c0.03,8.83,0.04,13.25,0.07,22.08
					c0.02,5.37-2.61,7.44-9.41,7.47c-6.76,0.03-9.35-1.91-9.36-7.02C31.61,81.85,31.6,77.65,31.57,69.26z M42.83,68.71
					c0-1.22-0.47-1.61-1.88-1.49c-1.41,0.12-1.87,0.53-1.87,1.8c0.03,8.24,0.04,12.37,0.06,20.61c0,1.27,0.47,1.62,1.93,1.59
					c1.36-0.03,1.83-0.46,1.83-1.69C42.87,81.21,42.85,77.04,42.83,68.71z"/>
				<path class="st9" d="M54.28,67.44c-0.02-5.42,2.6-7.74,9.37-8.23c6.77-0.48,9.41,1.54,9.42,7.14
					c0.02,9.22,0.04,13.82,0.06,23.04c0.02,5.6-2.61,7.76-9.42,7.78c-6.76,0.02-9.35-2.05-9.37-7.46
					C54.32,80.8,54.31,76.35,54.28,67.44z M65.56,67.19c0-1.29-0.47-1.71-1.88-1.62c-1.41,0.08-1.88,0.5-1.87,1.84
					c0.03,8.69,0.04,13.03,0.07,21.72c0,1.33,0.47,1.71,1.93,1.69c1.36-0.02,1.83-0.47,1.83-1.76
					C65.59,80.31,65.58,75.94,65.56,67.19z"/>
				<path class="st9" d="M77.43,58.75c5.47-0.29,8.21-0.41,13.69-0.6c0,2.77,0.01,4.16,0.01,6.94c-2.58,0.07-3.87,0.12-6.44,0.21
					c0.01,3.79,0.01,5.69,0.02,9.48c2.35-0.06,3.53-0.09,5.88-0.14c0,2.77,0.01,4.16,0.01,6.93c-2.35,0.04-3.52,0.06-5.87,0.1
					c0.01,6.02,0.02,9.03,0.03,15.05c-2.89,0.01-4.34,0.01-7.23,0.02C77.49,84.08,77.46,71.41,77.43,58.75z"/>
				<path class="st9" d="M103.55,57.82c2.81-0.05,4.21-0.07,7.02-0.1c0.66,11.08,1.33,22.15,1.99,33.23c0.02,0,0.03,0,0.05,0
					c0.97-11.09,1.94-22.17,2.91-33.26c3.92-0.01,5.88,0,9.79,0.04c0.95,11.08,1.9,22.16,2.85,33.24c0.04,0,0.06,0,0.09,0
					c0.67-11.06,1.33-22.11,2-33.17c2.81,0.05,4.21,0.08,7.02,0.15c-1.2,12.91-2.39,25.83-3.57,38.74c-4.09,0-6.14-0.01-10.24-0.01
					c-1-10.77-2-21.55-3-32.32c-0.04,0-0.06,0-0.09,0c-1.01,10.77-2.01,21.55-3.01,32.32c-4.1,0-6.14,0-10.24,0
					C105.93,83.73,104.74,70.78,103.55,57.82z"/>
				<path class="st9" d="M140.17,65.56c0.01-5.74,2.65-7.89,9.42-7.6s9.4,2.62,9.39,8.25c-0.02,9.26-0.04,13.89-0.06,23.14
					c-0.01,5.63-2.65,7.78-9.46,7.77c-6.76-0.01-9.34-2.22-9.33-7.96C140.15,79.72,140.16,75,140.17,65.56z M151.46,66.37
					c0-1.32-0.47-1.8-1.88-1.85c-1.41-0.05-1.88,0.34-1.88,1.72c-0.02,9.01-0.03,13.52-0.04,22.53c0,1.38,0.47,1.79,1.92,1.8
					c1.36,0.01,1.83-0.44,1.84-1.76C151.43,79.83,151.44,75.34,151.46,66.37z"/>
				<path class="st9" d="M163.38,59.07c3.59,0.22,5.39,0.33,8.98,0.59c7.85,0.56,9.95,2.64,9.93,9.46
					c-0.01,1.75-0.01,2.62-0.01,4.36c-0.06,4.85-1.29,6.65-4.95,7.23c0,0.04,0,0.07,0,0.11c3.94,1.08,4.83,2.2,4.91,6.08
					c-0.01,3.97-0.02,5.96-0.03,9.93c-2.89-0.01-4.34-0.02-7.23-0.03c0.01-4.23,0.02-6.35,0.03-10.58c0-1.61-0.79-2.18-3.23-2.25
					c-0.49-0.01-0.73-0.02-1.22-0.03c-0.02,5.14-0.02,7.71-0.04,12.84c-2.89-0.01-4.34-0.02-7.23-0.03
					C163.31,84.19,163.34,71.63,163.38,59.07z M170.56,77.52c0.56,0.02,0.85,0.03,1.41,0.05c2.49,0.1,3.05-0.49,3.06-3.09
					c0.01-2.22,0.01-3.32,0.02-5.54c0.01-1.94-0.65-2.81-2.25-2.91c-0.88-0.05-1.32-0.08-2.21-0.13
					C170.58,70.55,170.58,72.87,170.56,77.52z"/>
				<path class="st9" d="M186.54,60.81c2.89,0.26,4.34,0.4,7.22,0.69c-0.02,5.96-0.03,8.94-0.05,14.91
					c-0.02,0.04-0.03,0.06-0.05,0.1c0.04,0,0.06,0,0.09,0.01c1.88-5.89,2.81-8.8,4.69-14.53c3.09,0.33,4.64,0.5,7.73,0.86
					c-2.47,6.2-3.71,9.37-6.18,15.83c2.76,7.46,4.13,11.13,6.89,18.29c-3.12-0.02-4.68-0.03-7.79-0.05
					c-2.14-6.24-3.21-9.41-5.35-15.84c-0.04,0-0.06,0-0.09,0c0.02,0.04,0.03,0.06,0.05,0.11c-0.02,6.28-0.03,9.42-0.05,15.7
					c-2.89-0.02-4.34-0.02-7.23-0.04C186.46,84.84,186.5,72.83,186.54,60.81z"/>
				<path class="st9" d="M215.55,88.56c0,2.72,0.28,3.17,2.15,3.23c1.59,0.04,2.16-0.43,2.16-1.84c0-1.4,0-2.1,0-3.51
					c0-1.95-0.32-2.3-3.04-3.2c-6.89-2.03-7.92-3.29-7.95-9.68c0-0.83,0-1.25,0-2.08c0.02-7.04,1.61-8.5,8.63-7.57
					c6.69,0.89,8.88,2.76,8.87,7.4c0,1.52,0,2.28,0,3.79c-2.56-0.26-3.84-0.39-6.41-0.64c0-0.62,0-0.93,0-1.56
					c0-2.77-0.23-3.14-1.91-3.33c-1.82-0.21-2.2,0.2-2.2,2.13c0,0.87,0,1.31,0,2.18c0,2.03,0.42,2.51,2.66,3.24
					c7.72,2.66,8.56,3.68,8.56,10.77c0,7.61-1.88,9.53-9.11,9.49c-7.37-0.04-9.15-1.72-9.13-8.72c0-1.12,0-1.67,0.01-2.79
					c2.68,0.12,4.02,0.18,6.7,0.31C215.55,87.14,215.55,87.61,215.55,88.56z"/>
				<path class="st14" d="M8.78,65.49c3.57-0.51,5.35-0.76,8.92-1.23c7.81-1.03,9.92,0.49,9.94,6.85c0,1.63,0.01,2.44,0.01,4.07
					c-0.04,4.53-1.25,6.34-4.91,7.21c0,0.04,0,0.06,0,0.1c3.94,0.62,4.83,1.61,4.94,5.22c0.01,3.71,0.01,5.56,0.02,9.27
					c-2.89,0.02-4.34,0.03-7.23,0.05c-0.01-3.79-0.01-5.69-0.02-9.48c0-1.44-0.8-1.9-3.24-1.78c-0.49,0.02-0.73,0.04-1.22,0.06
					c0.01,4.49,0.01,6.74,0.02,11.23c-2.89,0.02-4.34,0.03-7.23,0.05C8.78,86.57,8.78,76.03,8.78,65.49z M15.99,80.21
					c0.56-0.04,0.84-0.06,1.41-0.1c2.48-0.18,3.04-0.76,3.04-3.1c0-1.99-0.01-2.98-0.01-4.96c0-1.74-0.66-2.41-2.25-2.24
					c-0.88,0.1-1.32,0.15-2.2,0.24C15.98,74.12,15.99,76.15,15.99,80.21z"/>
				<path class="st14" d="M31.57,69.26c-0.01-5.1,2.6-7.39,9.35-8.08s9.39,1.16,9.41,6.53c0.03,8.83,0.04,13.25,0.07,22.08
					c0.02,5.37-2.61,7.44-9.41,7.47c-6.76,0.03-9.35-1.91-9.36-7.02C31.61,81.85,31.6,77.65,31.57,69.26z M42.83,68.71
					c0-1.22-0.47-1.61-1.88-1.49c-1.41,0.12-1.87,0.53-1.87,1.8c0.03,8.24,0.04,12.37,0.06,20.61c0,1.27,0.47,1.62,1.93,1.59
					c1.36-0.03,1.83-0.46,1.83-1.69C42.87,81.21,42.85,77.04,42.83,68.71z"/>
				<path class="st14" d="M54.28,67.44c-0.02-5.42,2.6-7.74,9.37-8.23c6.77-0.48,9.41,1.54,9.42,7.14
					c0.02,9.22,0.04,13.82,0.06,23.04c0.02,5.6-2.61,7.76-9.42,7.78c-6.76,0.02-9.35-2.05-9.37-7.46
					C54.32,80.8,54.31,76.35,54.28,67.44z M65.56,67.19c0-1.29-0.47-1.71-1.88-1.62c-1.41,0.08-1.88,0.5-1.87,1.84
					c0.03,8.69,0.04,13.03,0.07,21.72c0,1.33,0.47,1.71,1.93,1.69c1.36-0.02,1.83-0.47,1.83-1.76
					C65.59,80.31,65.58,75.94,65.56,67.19z"/>
				<path class="st14" d="M77.43,58.75c5.47-0.29,8.21-0.41,13.69-0.6c0,2.77,0.01,4.16,0.01,6.94c-2.58,0.07-3.87,0.12-6.44,0.21
					c0.01,3.79,0.01,5.69,0.02,9.48c2.35-0.06,3.53-0.09,5.88-0.14c0,2.77,0.01,4.16,0.01,6.93c-2.35,0.04-3.52,0.06-5.87,0.1
					c0.01,6.02,0.02,9.03,0.03,15.05c-2.89,0.01-4.34,0.01-7.23,0.02C77.49,84.08,77.46,71.41,77.43,58.75z"/>
				<path class="st14" d="M103.55,57.82c2.81-0.05,4.21-0.07,7.02-0.1c0.66,11.08,1.33,22.15,1.99,33.23c0.02,0,0.03,0,0.05,0
					c0.97-11.09,1.94-22.17,2.91-33.26c3.92-0.01,5.88,0,9.79,0.04c0.95,11.08,1.9,22.16,2.85,33.24c0.04,0,0.06,0,0.09,0
					c0.67-11.06,1.33-22.11,2-33.17c2.81,0.05,4.21,0.08,7.02,0.15c-1.2,12.91-2.39,25.83-3.57,38.74c-4.09,0-6.14-0.01-10.24-0.01
					c-1-10.77-2-21.55-3-32.32c-0.04,0-0.06,0-0.09,0c-1.01,10.77-2.01,21.55-3.01,32.32c-4.1,0-6.14,0-10.24,0
					C105.93,83.73,104.74,70.78,103.55,57.82z"/>
				<path class="st14" d="M140.17,65.56c0.01-5.74,2.65-7.89,9.42-7.6s9.4,2.62,9.39,8.25c-0.02,9.26-0.04,13.89-0.06,23.14
					c-0.01,5.63-2.65,7.78-9.46,7.77c-6.76-0.01-9.34-2.22-9.33-7.96C140.15,79.72,140.16,75,140.17,65.56z M151.46,66.37
					c0-1.32-0.47-1.8-1.88-1.85c-1.41-0.05-1.88,0.34-1.88,1.72c-0.02,9.01-0.03,13.52-0.04,22.53c0,1.38,0.47,1.79,1.92,1.8
					c1.36,0.01,1.83-0.44,1.84-1.76C151.43,79.83,151.44,75.34,151.46,66.37z"/>
				<path class="st14" d="M163.38,59.07c3.59,0.22,5.39,0.33,8.98,0.59c7.85,0.56,9.95,2.64,9.93,9.46
					c-0.01,1.75-0.01,2.62-0.01,4.36c-0.06,4.85-1.29,6.65-4.95,7.23c0,0.04,0,0.07,0,0.11c3.94,1.08,4.83,2.2,4.91,6.08
					c-0.01,3.97-0.02,5.96-0.03,9.93c-2.89-0.01-4.34-0.02-7.23-0.03c0.01-4.23,0.02-6.35,0.03-10.58c0-1.61-0.79-2.18-3.23-2.25
					c-0.49-0.01-0.73-0.02-1.22-0.03c-0.02,5.14-0.02,7.71-0.04,12.84c-2.89-0.01-4.34-0.02-7.23-0.03
					C163.31,84.19,163.34,71.63,163.38,59.07z M170.56,77.52c0.56,0.02,0.85,0.03,1.41,0.05c2.49,0.1,3.05-0.49,3.06-3.09
					c0.01-2.22,0.01-3.32,0.02-5.54c0.01-1.94-0.65-2.81-2.25-2.91c-0.88-0.05-1.32-0.08-2.21-0.13
					C170.58,70.55,170.58,72.87,170.56,77.52z"/>
				<path class="st14" d="M186.54,60.81c2.89,0.26,4.34,0.4,7.22,0.69c-0.02,5.96-0.03,8.94-0.05,14.91
					c-0.02,0.04-0.03,0.06-0.05,0.1c0.04,0,0.06,0,0.09,0.01c1.88-5.89,2.81-8.8,4.69-14.53c3.09,0.33,4.64,0.5,7.73,0.86
					c-2.47,6.2-3.71,9.37-6.18,15.83c2.76,7.46,4.13,11.13,6.89,18.29c-3.12-0.02-4.68-0.03-7.79-0.05
					c-2.14-6.24-3.21-9.41-5.35-15.84c-0.04,0-0.06,0-0.09,0c0.02,0.04,0.03,0.06,0.05,0.11c-0.02,6.28-0.03,9.42-0.05,15.7
					c-2.89-0.02-4.34-0.02-7.23-0.04C186.46,84.84,186.5,72.83,186.54,60.81z"/>
				<path class="st14" d="M215.55,88.56c0,2.72,0.28,3.17,2.15,3.23c1.59,0.04,2.16-0.43,2.16-1.84c0-1.4,0-2.1,0-3.51
					c0-1.95-0.32-2.3-3.04-3.2c-6.89-2.03-7.92-3.29-7.95-9.68c0-0.83,0-1.25,0-2.08c0.02-7.04,1.61-8.5,8.63-7.57
					c6.69,0.89,8.88,2.76,8.87,7.4c0,1.52,0,2.28,0,3.79c-2.56-0.26-3.84-0.39-6.41-0.64c0-0.62,0-0.93,0-1.56
					c0-2.77-0.23-3.14-1.91-3.33c-1.82-0.21-2.2,0.2-2.2,2.13c0,0.87,0,1.31,0,2.18c0,2.03,0.42,2.51,2.66,3.24
					c7.72,2.66,8.56,3.68,8.56,10.77c0,7.61-1.88,9.53-9.11,9.49c-7.37-0.04-9.15-1.72-9.13-8.72c0-1.12,0-1.67,0.01-2.79
					c2.68,0.12,4.02,0.18,6.7,0.31C215.55,87.14,215.55,87.61,215.55,88.56z"/>
				<path class="st9" d="M8.78,65.49c3.57-0.51,5.35-0.76,8.92-1.23c7.81-1.03,9.92,0.49,9.94,6.85c0,1.63,0.01,2.44,0.01,4.07
					c-0.04,4.53-1.25,6.34-4.91,7.21c0,0.04,0,0.06,0,0.1c3.94,0.62,4.83,1.61,4.94,5.22c0.01,3.71,0.01,5.56,0.02,9.27
					c-2.89,0.02-4.34,0.03-7.23,0.05c-0.01-3.79-0.01-5.69-0.02-9.48c0-1.44-0.8-1.9-3.24-1.78c-0.49,0.02-0.73,0.04-1.22,0.06
					c0.01,4.49,0.01,6.74,0.02,11.23c-2.89,0.02-4.34,0.03-7.23,0.05C8.78,86.57,8.78,76.03,8.78,65.49z M15.99,80.21
					c0.56-0.04,0.84-0.06,1.41-0.1c2.48-0.18,3.04-0.76,3.04-3.1c0-1.99-0.01-2.98-0.01-4.96c0-1.74-0.66-2.41-2.25-2.24
					c-0.88,0.1-1.32,0.15-2.2,0.24C15.98,74.12,15.99,76.15,15.99,80.21z"/>
				<path class="st9" d="M31.57,69.26c-0.01-5.1,2.6-7.39,9.35-8.08s9.39,1.16,9.41,6.53c0.03,8.83,0.04,13.25,0.07,22.08
					c0.02,5.37-2.61,7.44-9.41,7.47c-6.76,0.03-9.35-1.91-9.36-7.02C31.61,81.85,31.6,77.65,31.57,69.26z M42.83,68.71
					c0-1.22-0.47-1.61-1.88-1.49c-1.41,0.12-1.87,0.53-1.87,1.8c0.03,8.24,0.04,12.37,0.06,20.61c0,1.27,0.47,1.62,1.93,1.59
					c1.36-0.03,1.83-0.46,1.83-1.69C42.87,81.21,42.85,77.04,42.83,68.71z"/>
				<path class="st9" d="M54.28,67.44c-0.02-5.42,2.6-7.74,9.37-8.23c6.77-0.48,9.41,1.54,9.42,7.14
					c0.02,9.22,0.04,13.82,0.06,23.04c0.02,5.6-2.61,7.76-9.42,7.78c-6.76,0.02-9.35-2.05-9.37-7.46
					C54.32,80.8,54.31,76.35,54.28,67.44z M65.56,67.19c0-1.29-0.47-1.71-1.88-1.62c-1.41,0.08-1.88,0.5-1.87,1.84
					c0.03,8.69,0.04,13.03,0.07,21.72c0,1.33,0.47,1.71,1.93,1.69c1.36-0.02,1.83-0.47,1.83-1.76
					C65.59,80.31,65.58,75.94,65.56,67.19z"/>
				<path class="st9" d="M77.43,58.75c5.47-0.29,8.21-0.41,13.69-0.6c0,2.77,0.01,4.16,0.01,6.94c-2.58,0.07-3.87,0.12-6.44,0.21
					c0.01,3.79,0.01,5.69,0.02,9.48c2.35-0.06,3.53-0.09,5.88-0.14c0,2.77,0.01,4.16,0.01,6.93c-2.35,0.04-3.52,0.06-5.87,0.1
					c0.01,6.02,0.02,9.03,0.03,15.05c-2.89,0.01-4.34,0.01-7.23,0.02C77.49,84.08,77.46,71.41,77.43,58.75z"/>
				<path class="st9" d="M103.55,57.82c2.81-0.05,4.21-0.07,7.02-0.1c0.66,11.08,1.33,22.15,1.99,33.23c0.02,0,0.03,0,0.05,0
					c0.97-11.09,1.94-22.17,2.91-33.26c3.92-0.01,5.88,0,9.79,0.04c0.95,11.08,1.9,22.16,2.85,33.24c0.04,0,0.06,0,0.09,0
					c0.67-11.06,1.33-22.11,2-33.17c2.81,0.05,4.21,0.08,7.02,0.15c-1.2,12.91-2.39,25.83-3.57,38.74c-4.09,0-6.14-0.01-10.24-0.01
					c-1-10.77-2-21.55-3-32.32c-0.04,0-0.06,0-0.09,0c-1.01,10.77-2.01,21.55-3.01,32.32c-4.1,0-6.14,0-10.24,0
					C105.93,83.73,104.74,70.78,103.55,57.82z"/>
				<path class="st9" d="M140.17,65.56c0.01-5.74,2.65-7.89,9.42-7.6s9.4,2.62,9.39,8.25c-0.02,9.26-0.04,13.89-0.06,23.14
					c-0.01,5.63-2.65,7.78-9.46,7.77c-6.76-0.01-9.34-2.22-9.33-7.96C140.15,79.72,140.16,75,140.17,65.56z M151.46,66.37
					c0-1.32-0.47-1.8-1.88-1.85c-1.41-0.05-1.88,0.34-1.88,1.72c-0.02,9.01-0.03,13.52-0.04,22.53c0,1.38,0.47,1.79,1.92,1.8
					c1.36,0.01,1.83-0.44,1.84-1.76C151.43,79.83,151.44,75.34,151.46,66.37z"/>
				<path class="st9" d="M163.38,59.07c3.59,0.22,5.39,0.33,8.98,0.59c7.85,0.56,9.95,2.64,9.93,9.46
					c-0.01,1.75-0.01,2.62-0.01,4.36c-0.06,4.85-1.29,6.65-4.95,7.23c0,0.04,0,0.07,0,0.11c3.94,1.08,4.83,2.2,4.91,6.08
					c-0.01,3.97-0.02,5.96-0.03,9.93c-2.89-0.01-4.34-0.02-7.23-0.03c0.01-4.23,0.02-6.35,0.03-10.58c0-1.61-0.79-2.18-3.23-2.25
					c-0.49-0.01-0.73-0.02-1.22-0.03c-0.02,5.14-0.02,7.71-0.04,12.84c-2.89-0.01-4.34-0.02-7.23-0.03
					C163.31,84.19,163.34,71.63,163.38,59.07z M170.56,77.52c0.56,0.02,0.85,0.03,1.41,0.05c2.49,0.1,3.05-0.49,3.06-3.09
					c0.01-2.22,0.01-3.32,0.02-5.54c0.01-1.94-0.65-2.81-2.25-2.91c-0.88-0.05-1.32-0.08-2.21-0.13
					C170.58,70.55,170.58,72.87,170.56,77.52z"/>
				<path class="st9" d="M186.54,60.81c2.89,0.26,4.34,0.4,7.22,0.69c-0.02,5.96-0.03,8.94-0.05,14.91
					c-0.02,0.04-0.03,0.06-0.05,0.1c0.04,0,0.06,0,0.09,0.01c1.88-5.89,2.81-8.8,4.69-14.53c3.09,0.33,4.64,0.5,7.73,0.86
					c-2.47,6.2-3.71,9.37-6.18,15.83c2.76,7.46,4.13,11.13,6.89,18.29c-3.12-0.02-4.68-0.03-7.79-0.05
					c-2.14-6.24-3.21-9.41-5.35-15.84c-0.04,0-0.06,0-0.09,0c0.02,0.04,0.03,0.06,0.05,0.11c-0.02,6.28-0.03,9.42-0.05,15.7
					c-2.89-0.02-4.34-0.02-7.23-0.04C186.46,84.84,186.5,72.83,186.54,60.81z"/>
				<path class="st9" d="M215.55,88.56c0,2.72,0.28,3.17,2.15,3.23c1.59,0.04,2.16-0.43,2.16-1.84c0-1.4,0-2.1,0-3.51
					c0-1.95-0.32-2.3-3.04-3.2c-6.89-2.03-7.92-3.29-7.95-9.68c0-0.83,0-1.25,0-2.08c0.02-7.04,1.61-8.5,8.63-7.57
					c6.69,0.89,8.88,2.76,8.87,7.4c0,1.52,0,2.28,0,3.79c-2.56-0.26-3.84-0.39-6.41-0.64c0-0.62,0-0.93,0-1.56
					c0-2.77-0.23-3.14-1.91-3.33c-1.82-0.21-2.2,0.2-2.2,2.13c0,0.87,0,1.31,0,2.18c0,2.03,0.42,2.51,2.66,3.24
					c7.72,2.66,8.56,3.68,8.56,10.77c0,7.61-1.88,9.53-9.11,9.49c-7.37-0.04-9.15-1.72-9.13-8.72c0-1.12,0-1.67,0.01-2.79
					c2.68,0.12,4.02,0.18,6.7,0.31C215.55,87.14,215.55,87.61,215.55,88.56z"/>
			</g>
			<g>
				<g>
					<path class="st8" d="M8.07,64.88c3.57-0.53,5.35-0.78,8.92-1.27c7.81-1.06,9.92,0.45,9.94,6.8c0,1.63,0.01,2.44,0.01,4.06
						c-0.04,4.52-1.25,6.33-4.91,7.2c0,0.04,0,0.06,0,0.1c3.94,0.61,4.83,1.59,4.94,5.19c0.01,3.7,0.01,5.55,0.02,9.24
						c-2.89,0.03-4.34,0.04-7.23,0.07c-0.01-3.78-0.01-5.68-0.02-9.46c0-1.44-0.8-1.89-3.24-1.76c-0.49,0.03-0.73,0.04-1.22,0.07
						c0.01,4.48,0.01,6.72,0.01,11.2c-2.89,0.03-4.34,0.05-7.23,0.08C8.07,85.89,8.07,75.38,8.07,64.88z M15.28,79.52
						c0.56-0.04,0.84-0.06,1.41-0.11c2.48-0.19,3.04-0.77,3.04-3.1c0-1.98-0.01-2.97-0.01-4.95c0-1.73-0.66-2.4-2.25-2.22
						c-0.88,0.1-1.32,0.15-2.2,0.25C15.27,73.45,15.28,75.47,15.28,79.52z"/>
					<path class="st8" d="M30.86,68.55c-0.01-5.09,2.6-7.38,9.35-8.09c6.75-0.71,9.39,1.13,9.41,6.49
						c0.03,8.82,0.04,13.22,0.07,22.04c0.02,5.36-2.61,7.43-9.41,7.48c-6.76,0.05-9.35-1.89-9.36-6.98
						C30.89,81.11,30.88,76.92,30.86,68.55z M42.11,67.96c0-1.22-0.47-1.61-1.88-1.48c-1.41,0.12-1.87,0.54-1.87,1.8
						c0.02,8.23,0.04,12.34,0.06,20.57c0,1.26,0.47,1.62,1.93,1.59c1.36-0.03,1.83-0.47,1.83-1.69
						C42.15,80.43,42.14,76.28,42.11,67.96z"/>
					<path class="st8" d="M53.57,66.66c-0.02-5.41,2.6-7.74,9.37-8.24c6.77-0.5,9.41,1.51,9.42,7.11
						c0.03,9.21,0.04,13.81,0.06,23.02c0.02,5.6-2.61,7.76-9.42,7.79c-6.76,0.03-9.35-2.03-9.37-7.44
						C53.61,80,53.59,75.55,53.57,66.66z M64.84,66.38c0-1.29-0.47-1.7-1.88-1.62c-1.41,0.09-1.88,0.51-1.87,1.84
						c0.03,8.68,0.04,13.02,0.07,21.69c0,1.33,0.47,1.71,1.93,1.69c1.36-0.02,1.83-0.48,1.83-1.76
						C64.88,79.49,64.87,75.12,64.84,66.38z"/>
					<path class="st8" d="M76.71,57.92c5.47-0.3,8.21-0.42,13.69-0.62c0.01,2.77,0.01,4.16,0.01,6.93
						c-2.58,0.08-3.87,0.12-6.44,0.22c0.01,3.79,0.01,5.68,0.02,9.47c2.35-0.06,3.53-0.09,5.88-0.15c0.01,2.77,0.01,4.16,0.01,6.93
						c-2.35,0.04-3.52,0.06-5.87,0.11c0.01,6.02,0.02,9.02,0.03,15.04c-2.89,0.01-4.34,0.02-7.23,0.03
						C76.78,83.23,76.75,70.58,76.71,57.92z"/>
					<path class="st8" d="M102.84,56.95c2.81-0.06,4.21-0.08,7.02-0.11c0.66,11.08,1.33,22.15,1.99,33.23c0.02,0,0.03,0,0.05,0
						c0.97-11.09,1.94-22.17,2.91-33.26c3.92-0.01,5.88-0.01,9.79,0.03c0.95,11.08,1.9,22.16,2.85,33.24c0.04,0,0.06,0,0.09,0
						c0.67-11.06,1.33-22.12,2-33.18c2.81,0.04,4.21,0.07,7.02,0.15c-1.2,12.92-2.39,25.84-3.57,38.76
						c-4.09-0.01-6.14-0.01-10.24-0.01c-1-10.77-2-21.55-3-32.32c-0.04,0-0.06,0-0.09,0c-1,10.77-2.01,21.55-3.01,32.32
						c-4.1,0-6.14,0-10.24,0.01C105.21,82.85,104.03,69.9,102.84,56.95z"/>
					<path class="st8" d="M139.46,64.67c0.01-5.74,2.65-7.9,9.42-7.61c6.78,0.29,9.4,2.62,9.39,8.26
						c-0.02,9.27-0.03,13.9-0.06,23.16c-0.01,5.63-2.65,7.79-9.46,7.77c-6.76-0.02-9.34-2.23-9.33-7.97
						C139.44,78.83,139.44,74.11,139.46,64.67z M150.75,65.47c0-1.32-0.47-1.8-1.88-1.85c-1.41-0.05-1.88,0.34-1.88,1.72
						c-0.02,9.02-0.03,13.52-0.04,22.54c0,1.38,0.47,1.79,1.92,1.8c1.36,0.01,1.83-0.44,1.84-1.76
						C150.72,78.94,150.73,74.45,150.75,65.47z"/>
					<path class="st8" d="M162.67,58.17c3.59,0.22,5.39,0.34,8.98,0.6c7.85,0.57,9.95,2.65,9.93,9.48
						c-0.01,1.75-0.01,2.62-0.01,4.37c-0.06,4.86-1.29,6.66-4.95,7.24c0,0.04,0,0.07,0,0.11c3.94,1.09,4.83,2.21,4.91,6.1
						c-0.01,3.98-0.02,5.97-0.03,9.94c-2.89-0.02-4.34-0.03-7.23-0.04c0.01-4.24,0.02-6.36,0.03-10.59c0-1.61-0.79-2.19-3.23-2.26
						c-0.49-0.01-0.73-0.02-1.22-0.03c-0.02,5.14-0.02,7.72-0.04,12.86c-2.89-0.02-4.34-0.02-7.23-0.04
						C162.6,83.32,162.63,70.74,162.67,58.17z M169.85,76.64c0.56,0.02,0.85,0.03,1.41,0.06c2.49,0.1,3.05-0.48,3.06-3.09
						c0.01-2.22,0.01-3.33,0.02-5.55c0.01-1.94-0.65-2.82-2.25-2.91c-0.88-0.05-1.32-0.08-2.21-0.13
						C169.87,69.67,169.87,71.99,169.85,76.64z"/>
					<path class="st8" d="M185.83,59.93c2.89,0.27,4.34,0.4,7.22,0.7c-0.02,5.97-0.03,8.96-0.05,14.94
						c-0.02,0.04-0.03,0.06-0.05,0.1c0.04,0,0.06,0,0.09,0.01c1.88-5.9,2.81-8.81,4.69-14.55c3.09,0.33,4.64,0.51,7.73,0.88
						c-2.47,6.21-3.71,9.38-6.19,15.85c2.76,7.48,4.13,11.16,6.89,18.34c-3.12-0.03-4.68-0.04-7.79-0.07
						c-2.14-6.26-3.21-9.44-5.35-15.88c-0.04,0-0.06,0-0.09,0c0.02,0.04,0.03,0.07,0.05,0.11c-0.02,6.29-0.03,9.44-0.05,15.73
						c-2.89-0.02-4.34-0.03-7.23-0.05C185.75,84,185.79,71.96,185.83,59.93z"/>
					<path class="st8" d="M214.84,87.78c-0.01,2.73,0.28,3.18,2.15,3.24c1.59,0.05,2.16-0.42,2.16-1.84c0-1.41,0-2.11,0-3.52
						c0-1.95-0.32-2.31-3.04-3.22c-6.89-2.05-7.92-3.31-7.95-9.72c0-0.83,0-1.25,0.01-2.08c0.02-7.06,1.61-8.52,8.63-7.57
						c6.69,0.91,8.88,2.78,8.87,7.44c0,1.52,0,2.28,0,3.8c-2.56-0.27-3.84-0.4-6.41-0.65c0-0.62,0-0.94,0-1.56
						c0-2.78-0.23-3.15-1.91-3.35c-1.82-0.21-2.2,0.2-2.2,2.13c0,0.87,0,1.31,0,2.18c0,2.03,0.42,2.52,2.66,3.25
						c7.72,2.68,8.56,3.71,8.56,10.82c0,7.63-1.88,9.56-9.11,9.49c-7.37-0.06-9.15-1.75-9.13-8.76c0-1.12,0-1.68,0.01-2.79
						c2.68,0.12,4.02,0.19,6.7,0.32C214.84,86.35,214.84,86.83,214.84,87.78z"/>
				</g>
				<g>
					<path class="st15" d="M8.07,64.88c3.57-0.53,5.35-0.78,8.92-1.27c7.81-1.06,9.92,0.45,9.94,6.8c0,1.63,0.01,2.44,0.01,4.06
						c-0.04,4.52-1.25,6.33-4.91,7.2c0,0.04,0,0.06,0,0.1c3.94,0.61,4.83,1.59,4.94,5.19c0.01,3.7,0.01,5.55,0.02,9.24
						c-2.89,0.03-4.34,0.04-7.23,0.07c-0.01-3.78-0.01-5.68-0.02-9.46c0-1.44-0.8-1.89-3.24-1.76c-0.49,0.03-0.73,0.04-1.22,0.07
						c0.01,4.48,0.01,6.72,0.01,11.2c-2.89,0.03-4.34,0.05-7.23,0.08C8.07,85.89,8.07,75.38,8.07,64.88z M15.28,79.52
						c0.56-0.04,0.84-0.06,1.41-0.11c2.48-0.19,3.04-0.77,3.04-3.1c0-1.98-0.01-2.97-0.01-4.95c0-1.73-0.66-2.4-2.25-2.22
						c-0.88,0.1-1.32,0.15-2.2,0.25C15.27,73.45,15.28,75.47,15.28,79.52z"/>
					<path class="st15" d="M30.86,68.55c-0.01-5.09,2.6-7.38,9.35-8.09c6.75-0.71,9.39,1.13,9.41,6.49
						c0.03,8.82,0.04,13.22,0.07,22.04c0.02,5.36-2.61,7.43-9.41,7.48c-6.76,0.05-9.35-1.89-9.36-6.98
						C30.89,81.11,30.88,76.92,30.86,68.55z M42.11,67.96c0-1.22-0.47-1.61-1.88-1.48c-1.41,0.12-1.87,0.54-1.87,1.8
						c0.02,8.23,0.04,12.34,0.06,20.57c0,1.26,0.47,1.62,1.93,1.59c1.36-0.03,1.83-0.47,1.83-1.69
						C42.15,80.43,42.14,76.28,42.11,67.96z"/>
					<path class="st15" d="M53.57,66.66c-0.02-5.41,2.6-7.74,9.37-8.24c6.77-0.5,9.41,1.51,9.42,7.11
						c0.03,9.21,0.04,13.81,0.06,23.02c0.02,5.6-2.61,7.76-9.42,7.79c-6.76,0.03-9.35-2.03-9.37-7.44
						C53.61,80,53.59,75.55,53.57,66.66z M64.84,66.38c0-1.29-0.47-1.7-1.88-1.62c-1.41,0.09-1.88,0.51-1.87,1.84
						c0.03,8.68,0.04,13.02,0.07,21.69c0,1.33,0.47,1.71,1.93,1.69c1.36-0.02,1.83-0.48,1.83-1.76
						C64.88,79.49,64.87,75.12,64.84,66.38z"/>
					<path class="st15" d="M76.71,57.92c5.47-0.3,8.21-0.42,13.69-0.62c0.01,2.77,0.01,4.16,0.01,6.93
						c-2.58,0.08-3.87,0.12-6.44,0.22c0.01,3.79,0.01,5.68,0.02,9.47c2.35-0.06,3.53-0.09,5.88-0.15c0.01,2.77,0.01,4.16,0.01,6.93
						c-2.35,0.04-3.52,0.06-5.87,0.11c0.01,6.02,0.02,9.02,0.03,15.04c-2.89,0.01-4.34,0.02-7.23,0.03
						C76.78,83.23,76.75,70.58,76.71,57.92z"/>
					<path class="st15" d="M102.84,56.95c2.81-0.06,4.21-0.08,7.02-0.11c0.66,11.08,1.33,22.15,1.99,33.23c0.02,0,0.03,0,0.05,0
						c0.97-11.09,1.94-22.17,2.91-33.26c3.92-0.01,5.88-0.01,9.79,0.03c0.95,11.08,1.9,22.16,2.85,33.24c0.04,0,0.06,0,0.09,0
						c0.67-11.06,1.33-22.12,2-33.18c2.81,0.04,4.21,0.07,7.02,0.15c-1.2,12.92-2.39,25.84-3.57,38.76
						c-4.09-0.01-6.14-0.01-10.24-0.01c-1-10.77-2-21.55-3-32.32c-0.04,0-0.06,0-0.09,0c-1,10.77-2.01,21.55-3.01,32.32
						c-4.1,0-6.14,0-10.24,0.01C105.21,82.85,104.03,69.9,102.84,56.95z"/>
					<path class="st15" d="M139.46,64.67c0.01-5.74,2.65-7.9,9.42-7.61c6.78,0.29,9.4,2.62,9.39,8.26
						c-0.02,9.27-0.03,13.9-0.06,23.16c-0.01,5.63-2.65,7.79-9.46,7.77c-6.76-0.02-9.34-2.23-9.33-7.97
						C139.44,78.83,139.44,74.11,139.46,64.67z M150.75,65.47c0-1.32-0.47-1.8-1.88-1.85c-1.41-0.05-1.88,0.34-1.88,1.72
						c-0.02,9.02-0.03,13.52-0.04,22.54c0,1.38,0.47,1.79,1.92,1.8c1.36,0.01,1.83-0.44,1.84-1.76
						C150.72,78.94,150.73,74.45,150.75,65.47z"/>
					<path class="st15" d="M162.67,58.17c3.59,0.22,5.39,0.34,8.98,0.6c7.85,0.57,9.95,2.65,9.93,9.48
						c-0.01,1.75-0.01,2.62-0.01,4.37c-0.06,4.86-1.29,6.66-4.95,7.24c0,0.04,0,0.07,0,0.11c3.94,1.09,4.83,2.21,4.91,6.1
						c-0.01,3.98-0.02,5.97-0.03,9.94c-2.89-0.02-4.34-0.03-7.23-0.04c0.01-4.24,0.02-6.36,0.03-10.59c0-1.61-0.79-2.19-3.23-2.26
						c-0.49-0.01-0.73-0.02-1.22-0.03c-0.02,5.14-0.02,7.72-0.04,12.86c-2.89-0.02-4.34-0.02-7.23-0.04
						C162.6,83.32,162.63,70.74,162.67,58.17z M169.85,76.64c0.56,0.02,0.85,0.03,1.41,0.06c2.49,0.1,3.05-0.48,3.06-3.09
						c0.01-2.22,0.01-3.33,0.02-5.55c0.01-1.94-0.65-2.82-2.25-2.91c-0.88-0.05-1.32-0.08-2.21-0.13
						C169.87,69.67,169.87,71.99,169.85,76.64z"/>
					<path class="st15" d="M185.83,59.93c2.89,0.27,4.34,0.4,7.22,0.7c-0.02,5.97-0.03,8.96-0.05,14.94
						c-0.02,0.04-0.03,0.06-0.05,0.1c0.04,0,0.06,0,0.09,0.01c1.88-5.9,2.81-8.81,4.69-14.55c3.09,0.33,4.64,0.51,7.73,0.88
						c-2.47,6.21-3.71,9.38-6.19,15.85c2.76,7.48,4.13,11.16,6.89,18.34c-3.12-0.03-4.68-0.04-7.79-0.07
						c-2.14-6.26-3.21-9.44-5.35-15.88c-0.04,0-0.06,0-0.09,0c0.02,0.04,0.03,0.07,0.05,0.11c-0.02,6.29-0.03,9.44-0.05,15.73
						c-2.89-0.02-4.34-0.03-7.23-0.05C185.75,84,185.79,71.96,185.83,59.93z"/>
					<path class="st15" d="M214.84,87.78c-0.01,2.73,0.28,3.18,2.15,3.24c1.59,0.05,2.16-0.42,2.16-1.84c0-1.41,0-2.11,0-3.52
						c0-1.95-0.32-2.31-3.04-3.22c-6.89-2.05-7.92-3.31-7.95-9.72c0-0.83,0-1.25,0.01-2.08c0.02-7.06,1.61-8.52,8.63-7.57
						c6.69,0.91,8.88,2.78,8.87,7.44c0,1.52,0,2.28,0,3.8c-2.56-0.27-3.84-0.4-6.41-0.65c0-0.62,0-0.94,0-1.56
						c0-2.78-0.23-3.15-1.91-3.35c-1.82-0.21-2.2,0.2-2.2,2.13c0,0.87,0,1.31,0,2.18c0,2.03,0.42,2.52,2.66,3.25
						c7.72,2.68,8.56,3.71,8.56,10.82c0,7.63-1.88,9.56-9.11,9.49c-7.37-0.06-9.15-1.75-9.13-8.76c0-1.12,0-1.68,0.01-2.79
						c2.68,0.12,4.02,0.19,6.7,0.32C214.84,86.35,214.84,86.83,214.84,87.78z"/>
				</g>
				<g>
					<path class="st8" d="M8.07,64.88c3.57-0.53,5.35-0.78,8.92-1.27c7.81-1.06,9.92,0.45,9.94,6.8c0,1.63,0.01,2.44,0.01,4.06
						c-0.04,4.52-1.25,6.33-4.91,7.2c0,0.04,0,0.06,0,0.1c3.94,0.61,4.83,1.59,4.94,5.19c0.01,3.7,0.01,5.55,0.02,9.24
						c-2.89,0.03-4.34,0.04-7.23,0.07c-0.01-3.78-0.01-5.68-0.02-9.46c0-1.44-0.8-1.89-3.24-1.76c-0.49,0.03-0.73,0.04-1.22,0.07
						c0.01,4.48,0.01,6.72,0.01,11.2c-2.89,0.03-4.34,0.05-7.23,0.08C8.07,85.89,8.07,75.38,8.07,64.88z M15.28,79.52
						c0.56-0.04,0.84-0.06,1.41-0.11c2.48-0.19,3.04-0.77,3.04-3.1c0-1.98-0.01-2.97-0.01-4.95c0-1.73-0.66-2.4-2.25-2.22
						c-0.88,0.1-1.32,0.15-2.2,0.25C15.27,73.45,15.28,75.47,15.28,79.52z"/>
					<path class="st8" d="M30.86,68.55c-0.01-5.09,2.6-7.38,9.35-8.09c6.75-0.71,9.39,1.13,9.41,6.49
						c0.03,8.82,0.04,13.22,0.07,22.04c0.02,5.36-2.61,7.43-9.41,7.48c-6.76,0.05-9.35-1.89-9.36-6.98
						C30.89,81.11,30.88,76.92,30.86,68.55z M42.11,67.96c0-1.22-0.47-1.61-1.88-1.48c-1.41,0.12-1.87,0.54-1.87,1.8
						c0.02,8.23,0.04,12.34,0.06,20.57c0,1.26,0.47,1.62,1.93,1.59c1.36-0.03,1.83-0.47,1.83-1.69
						C42.15,80.43,42.14,76.28,42.11,67.96z"/>
					<path class="st8" d="M53.57,66.66c-0.02-5.41,2.6-7.74,9.37-8.24c6.77-0.5,9.41,1.51,9.42,7.11
						c0.03,9.21,0.04,13.81,0.06,23.02c0.02,5.6-2.61,7.76-9.42,7.79c-6.76,0.03-9.35-2.03-9.37-7.44
						C53.61,80,53.59,75.55,53.57,66.66z M64.84,66.38c0-1.29-0.47-1.7-1.88-1.62c-1.41,0.09-1.88,0.51-1.87,1.84
						c0.03,8.68,0.04,13.02,0.07,21.69c0,1.33,0.47,1.71,1.93,1.69c1.36-0.02,1.83-0.48,1.83-1.76
						C64.88,79.49,64.87,75.12,64.84,66.38z"/>
					<path class="st8" d="M76.71,57.92c5.47-0.3,8.21-0.42,13.69-0.62c0.01,2.77,0.01,4.16,0.01,6.93
						c-2.58,0.08-3.87,0.12-6.44,0.22c0.01,3.79,0.01,5.68,0.02,9.47c2.35-0.06,3.53-0.09,5.88-0.15c0.01,2.77,0.01,4.16,0.01,6.93
						c-2.35,0.04-3.52,0.06-5.87,0.11c0.01,6.02,0.02,9.02,0.03,15.04c-2.89,0.01-4.34,0.02-7.23,0.03
						C76.78,83.23,76.75,70.58,76.71,57.92z"/>
					<path class="st8" d="M102.84,56.95c2.81-0.06,4.21-0.08,7.02-0.11c0.66,11.08,1.33,22.15,1.99,33.23c0.02,0,0.03,0,0.05,0
						c0.97-11.09,1.94-22.17,2.91-33.26c3.92-0.01,5.88-0.01,9.79,0.03c0.95,11.08,1.9,22.16,2.85,33.24c0.04,0,0.06,0,0.09,0
						c0.67-11.06,1.33-22.12,2-33.18c2.81,0.04,4.21,0.07,7.02,0.15c-1.2,12.92-2.39,25.84-3.57,38.76
						c-4.09-0.01-6.14-0.01-10.24-0.01c-1-10.77-2-21.55-3-32.32c-0.04,0-0.06,0-0.09,0c-1,10.77-2.01,21.55-3.01,32.32
						c-4.1,0-6.14,0-10.24,0.01C105.21,82.85,104.03,69.9,102.84,56.95z"/>
					<path class="st8" d="M139.46,64.67c0.01-5.74,2.65-7.9,9.42-7.61c6.78,0.29,9.4,2.62,9.39,8.26
						c-0.02,9.27-0.03,13.9-0.06,23.16c-0.01,5.63-2.65,7.79-9.46,7.77c-6.76-0.02-9.34-2.23-9.33-7.97
						C139.44,78.83,139.44,74.11,139.46,64.67z M150.75,65.47c0-1.32-0.47-1.8-1.88-1.85c-1.41-0.05-1.88,0.34-1.88,1.72
						c-0.02,9.02-0.03,13.52-0.04,22.54c0,1.38,0.47,1.79,1.92,1.8c1.36,0.01,1.83-0.44,1.84-1.76
						C150.72,78.94,150.73,74.45,150.75,65.47z"/>
					<path class="st8" d="M162.67,58.17c3.59,0.22,5.39,0.34,8.98,0.6c7.85,0.57,9.95,2.65,9.93,9.48
						c-0.01,1.75-0.01,2.62-0.01,4.37c-0.06,4.86-1.29,6.66-4.95,7.24c0,0.04,0,0.07,0,0.11c3.94,1.09,4.83,2.21,4.91,6.1
						c-0.01,3.98-0.02,5.97-0.03,9.94c-2.89-0.02-4.34-0.03-7.23-0.04c0.01-4.24,0.02-6.36,0.03-10.59c0-1.61-0.79-2.19-3.23-2.26
						c-0.49-0.01-0.73-0.02-1.22-0.03c-0.02,5.14-0.02,7.72-0.04,12.86c-2.89-0.02-4.34-0.02-7.23-0.04
						C162.6,83.32,162.63,70.74,162.67,58.17z M169.85,76.64c0.56,0.02,0.85,0.03,1.41,0.06c2.49,0.1,3.05-0.48,3.06-3.09
						c0.01-2.22,0.01-3.33,0.02-5.55c0.01-1.94-0.65-2.82-2.25-2.91c-0.88-0.05-1.32-0.08-2.21-0.13
						C169.87,69.67,169.87,71.99,169.85,76.64z"/>
					<path class="st8" d="M185.83,59.93c2.89,0.27,4.34,0.4,7.22,0.7c-0.02,5.97-0.03,8.96-0.05,14.94
						c-0.02,0.04-0.03,0.06-0.05,0.1c0.04,0,0.06,0,0.09,0.01c1.88-5.9,2.81-8.81,4.69-14.55c3.09,0.33,4.64,0.51,7.73,0.88
						c-2.47,6.21-3.71,9.38-6.19,15.85c2.76,7.48,4.13,11.16,6.89,18.34c-3.12-0.03-4.68-0.04-7.79-0.07
						c-2.14-6.26-3.21-9.44-5.35-15.88c-0.04,0-0.06,0-0.09,0c0.02,0.04,0.03,0.07,0.05,0.11c-0.02,6.29-0.03,9.44-0.05,15.73
						c-2.89-0.02-4.34-0.03-7.23-0.05C185.75,84,185.79,71.96,185.83,59.93z"/>
					<path class="st8" d="M214.84,87.78c-0.01,2.73,0.28,3.18,2.15,3.24c1.59,0.05,2.16-0.42,2.16-1.84c0-1.41,0-2.11,0-3.52
						c0-1.95-0.32-2.31-3.04-3.22c-6.89-2.05-7.92-3.31-7.95-9.72c0-0.83,0-1.25,0.01-2.08c0.02-7.06,1.61-8.52,8.63-7.57
						c6.69,0.91,8.88,2.78,8.87,7.44c0,1.52,0,2.28,0,3.8c-2.56-0.27-3.84-0.4-6.41-0.65c0-0.62,0-0.94,0-1.56
						c0-2.78-0.23-3.15-1.91-3.35c-1.82-0.21-2.2,0.2-2.2,2.13c0,0.87,0,1.31,0,2.18c0,2.03,0.42,2.52,2.66,3.25
						c7.72,2.68,8.56,3.71,8.56,10.82c0,7.63-1.88,9.56-9.11,9.49c-7.37-0.06-9.15-1.75-9.13-8.76c0-1.12,0-1.68,0.01-2.79
						c2.68,0.12,4.02,0.19,6.7,0.32C214.84,86.35,214.84,86.83,214.84,87.78z"/>
				</g>
			</g>
		</g>
	</g>
</g>
</svg>
