<?xml version="1.0" encoding="utf-8"?>
<!-- Generator: Adobe Illustrator 27.9.0, SVG Export Plug-In . SVG Version: 6.00 Build 0)  -->
<svg version="1.1" id="Layer_1" xmlns="http://www.w3.org/2000/svg" xmlns:xlink="http://www.w3.org/1999/xlink" x="0px" y="0px"
	 viewBox="0 0 360 360" style="enable-background:new 0 0 360 360;" xml:space="preserve">
<style type="text/css">
	.st0{fill:url(#SVGID_1_);}
	.st1{fill:#9E1725;}
	.st2{fill:#FFFFFF;}
	.st3{fill:url(#SVGID_00000094596112886137804950000015666921688987067825_);}
	.st4{fill:url(#SVGID_00000158030909934101436200000005301161712536267399_);}
	.st5{fill:url(#SVGID_00000003796338935574560350000006516859407582615183_);}
	.st6{fill:url(#SVGID_00000050642832482401173640000014863964783108579227_);}
	.st7{fill:url(#SVGID_00000061467505288130467870000015413761833112660926_);}
	.st8{fill:#04164B;}
	.st9{fill:#B4B4B4;}
	.st10{fill:url(#SVGID_00000126317167499391825320000018000458954444129719_);}
	.st11{fill:url(#SVGID_00000179625096629133532450000018243976795257855156_);}
	.st12{fill:url(#SVGID_00000180366647636879872650000004009805939450563998_);}
	.st13{fill:url(#SVGID_00000090992166554963589760000000715281495848159915_);}
	.st14{fill:none;stroke:#B4B4B4;stroke-width:2.9663;}
	.st15{fill:none;stroke:#FFFFFF;stroke-width:2.9663;}
</style>
<g>
	<linearGradient id="SVGID_1_" gradientUnits="userSpaceOnUse" x1="141.5159" y1="142.4754" x2="214.0908" y2="142.4754">
		<stop  offset="0" style="stop-color:#194891"/>
		<stop  offset="0.6961" style="stop-color:#18234F"/>
	</linearGradient>
	<polygon class="st0" points="141.52,158.68 190.62,157.19 214.09,126.27 154.08,141.65 	"/>
	<polygon class="st1" points="116.06,141.48 114.13,138.88 94.57,164.79 98.86,164.79 	"/>
	<g>
		<polygon class="st2" points="196.45,135.46 201.22,133.37 202.87,135.53 204.53,131.84 209.29,129.49 205.56,129.3 205.89,128.37 
			203.08,129.09 202.88,129.27 202.32,129.29 199.28,130.07 200.2,131.79 		"/>
		<polygon class="st2" points="182.02,143.07 183.67,145.22 185.34,141.53 190.1,139.18 186.36,138.99 187.65,135.39 183.68,138.97 
			179.72,139.08 181.01,141.48 177.26,145.16 		"/>
		<polygon class="st2" points="188.49,148.89 184.52,149.01 185.81,151.41 182.06,155.09 186.83,152.99 188.47,155.15 
			190.14,151.46 194.9,149.11 191.16,148.92 192.46,145.32 		"/>
		<polygon class="st2" points="173.26,155.01 170.15,157.81 172.27,157.74 		"/>
		<polygon class="st2" points="180.46,134.89 180.04,135 180.27,135.3 		"/>
		<polygon class="st2" points="154.66,144.93 159.42,142.84 161.07,145 162.74,141.3 167.5,138.96 165.06,138.84 158.07,140.63 
			158.41,141.26 		"/>
		<polygon class="st2" points="169.86,145.1 165.89,148.67 161.92,148.79 163.21,151.19 159.46,154.86 164.23,152.77 165.87,154.93 
			167.54,151.23 172.3,148.89 168.57,148.7 		"/>
		<polygon class="st2" points="150.66,154.79 146.69,158.36 142.72,158.48 142.81,158.64 149.95,158.42 149.36,158.39 		"/>
	</g>
	
		<linearGradient id="SVGID_00000031918433117788561070000012956809126373020585_" gradientUnits="userSpaceOnUse" x1="221.0007" y1="150.8628" x2="237.8159" y2="133.5475">
		<stop  offset="0.2822" style="stop-color:#18234F"/>
		<stop  offset="1" style="stop-color:#194891"/>
	</linearGradient>
	<polygon style="fill:url(#SVGID_00000031918433117788561070000012956809126373020585_);" points="217.23,129.08 214.92,132.23 
		236.24,160.83 239.05,157.68 	"/>
	<g>
		<polygon class="st2" points="236.04,151.01 248.98,149.11 251.21,146.06 234.13,148.56 		"/>
		<polygon class="st2" points="239.91,155.96 244.5,155.28 246.72,152.23 237.99,153.51 		"/>
		<polygon class="st2" points="242.03,158.68 242.23,158.4 241.86,158.45 		"/>
		
			<radialGradient id="SVGID_00000062899532754982824370000015732007437948724363_" cx="213.0679" cy="90.6072" r="21.2131" gradientTransform="matrix(0.938 -0.1374 0.1967 0.9293 21.9043 97.7439)" gradientUnits="userSpaceOnUse">
			<stop  offset="0" style="stop-color:#9E1725"/>
			<stop  offset="0.5047" style="stop-color:#9F1725"/>
			<stop  offset="0.6895" style="stop-color:#A51926"/>
			<stop  offset="0.8216" style="stop-color:#AD1B26"/>
			<stop  offset="0.9281" style="stop-color:#BA1E26"/>
			<stop  offset="1" style="stop-color:#C62026"/>
		</radialGradient>
		<polygon style="fill:url(#SVGID_00000062899532754982824370000015732007437948724363_);" points="253.12,143.43 253.13,143.41 
			251.26,143.7 		"/>
		<polygon class="st2" points="232.61,146.61 234.13,148.56 251.21,146.06 253.12,143.43 251.26,143.7 		"/>
		
			<radialGradient id="SVGID_00000119078857854163847950000016890579366102031010_" cx="213.0679" cy="90.6072" r="21.2131" gradientTransform="matrix(0.938 -0.1374 0.1967 0.9293 21.9043 97.7439)" gradientUnits="userSpaceOnUse">
			<stop  offset="0" style="stop-color:#9E1725"/>
			<stop  offset="0.5047" style="stop-color:#9F1725"/>
			<stop  offset="0.6895" style="stop-color:#A51926"/>
			<stop  offset="0.8216" style="stop-color:#AD1B26"/>
			<stop  offset="0.9281" style="stop-color:#BA1E26"/>
			<stop  offset="1" style="stop-color:#C62026"/>
		</radialGradient>
		<polygon style="fill:url(#SVGID_00000119078857854163847950000016890579366102031010_);" points="232.61,146.61 234.13,148.56 
			251.21,146.06 253.12,143.43 251.26,143.7 		"/>
		<polygon class="st2" points="237.99,153.51 246.72,152.23 248.98,149.11 236.04,151.01 		"/>
		
			<radialGradient id="SVGID_00000031179897896172427010000008460423655088543660_" cx="213.0679" cy="90.607" r="21.2131" gradientTransform="matrix(0.938 -0.1374 0.1967 0.9293 21.9043 97.7439)" gradientUnits="userSpaceOnUse">
			<stop  offset="0" style="stop-color:#9E1725"/>
			<stop  offset="0.5047" style="stop-color:#9F1725"/>
			<stop  offset="0.6895" style="stop-color:#A51926"/>
			<stop  offset="0.8216" style="stop-color:#AD1B26"/>
			<stop  offset="0.9281" style="stop-color:#BA1E26"/>
			<stop  offset="1" style="stop-color:#C62026"/>
		</radialGradient>
		<polygon style="fill:url(#SVGID_00000031179897896172427010000008460423655088543660_);" points="237.99,153.51 246.72,152.23 
			248.98,149.11 236.04,151.01 		"/>
		<polygon class="st2" points="241.86,158.45 242.23,158.4 244.5,155.28 239.91,155.96 		"/>
		
			<radialGradient id="SVGID_00000054242186860857753610000010281259830339295647_" cx="213.0679" cy="90.6072" r="21.213" gradientTransform="matrix(0.938 -0.1374 0.1967 0.9293 21.9043 97.7439)" gradientUnits="userSpaceOnUse">
			<stop  offset="0" style="stop-color:#9E1725"/>
			<stop  offset="0.5047" style="stop-color:#9F1725"/>
			<stop  offset="0.6895" style="stop-color:#A51926"/>
			<stop  offset="0.8216" style="stop-color:#AD1B26"/>
			<stop  offset="0.9281" style="stop-color:#BA1E26"/>
			<stop  offset="1" style="stop-color:#C62026"/>
		</radialGradient>
		<polygon style="fill:url(#SVGID_00000054242186860857753610000010281259830339295647_);" points="241.86,158.45 242.23,158.4 
			244.5,155.28 239.91,155.96 		"/>
	</g>
	<polygon class="st1" points="254.22,144.51 252.78,146.77 263.03,159.42 265.43,158.52 	"/>
	<g>
		<rect x="113.6" y="150.5" class="st1" width="3.49" height="3.49"/>
		<rect x="117.76" y="150.5" class="st1" width="3.49" height="3.49"/>
		<rect x="113.6" y="154.52" class="st1" width="3.49" height="3.49"/>
		<rect x="117.76" y="154.52" class="st1" width="3.49" height="3.49"/>
	</g>
	<g>
		<rect x="210.1" y="143.47" class="st8" width="4.61" height="4.61"/>
		<rect x="215.59" y="143.47" class="st8" width="4.61" height="4.61"/>
		<rect x="210.1" y="148.78" class="st8" width="4.61" height="4.61"/>
		<rect x="215.59" y="148.78" class="st8" width="4.61" height="4.61"/>
	</g>
	<g>
		<rect x="250.92" y="151.52" class="st1" width="2.21" height="2.21"/>
		<rect x="253.55" y="151.52" class="st1" width="2.21" height="2.21"/>
		<rect x="250.92" y="154.06" class="st1" width="2.21" height="2.21"/>
		<rect x="253.55" y="154.06" class="st1" width="2.21" height="2.21"/>
	</g>
	<path class="st1" d="M180,166.05c43.95,0,84.04,4.31,114.42,11.41C267.3,166.86,226.12,160.1,180,160.1s-87.3,6.76-114.42,17.35
		C95.96,170.36,136.05,166.05,180,166.05z"/>
	<g>
		<g>
			<rect x="69.63" y="228.35" class="st9" width="79.19" height="0.88"/>
		</g>
		<g>
			<rect x="211.19" y="228.35" class="st9" width="79.19" height="0.88"/>
		</g>
		<g>
			<path class="st1" d="M159.23,226.06v5.07c0,0.25,0.1,0.46,0.29,0.64c0.19,0.17,0.42,0.25,0.7,0.26h4.27
				c0.28-0.01,0.51-0.1,0.7-0.26c0.19-0.18,0.29-0.39,0.29-0.63v-5.07h2.09v5.43c0,0.62-0.24,1.15-0.72,1.58
				c-0.48,0.44-1.06,0.66-1.75,0.66h-5.5c-0.68,0-1.27-0.22-1.75-0.66c-0.48-0.44-0.72-0.96-0.72-1.58v-5.43H159.23z"/>
			<path class="st1" d="M181.76,226.06c0.71,0,1.3,0.23,1.79,0.68c0.49,0.45,0.74,1,0.74,1.64v0.03h-2.04
				c0.01-0.02,0.01-0.03,0.01-0.03c0-0.17-0.06-0.31-0.19-0.42c-0.12-0.12-0.27-0.18-0.47-0.17h-4.36
				c-0.18-0.01-0.33,0.05-0.46,0.17c-0.12,0.11-0.18,0.25-0.18,0.41c0,0.16,0.07,0.3,0.19,0.42c0.12,0.12,0.27,0.17,0.45,0.17
				c0.51,0,1.31,0,2.39-0.01c1.07-0.01,1.87-0.01,2.38,0c0.73,0,1.34,0.23,1.85,0.7c0.52,0.46,0.77,1.02,0.76,1.68
				c0,0.66-0.25,1.22-0.77,1.69c-0.5,0.46-1.11,0.69-1.84,0.69h-5.08c-0.72,0-1.33-0.23-1.85-0.69c-0.51-0.46-0.76-1.02-0.76-1.69
				h1.96v0.01c0,0.19,0.07,0.35,0.22,0.48c0.15,0.13,0.32,0.2,0.52,0.2h4.79c0.21-0.01,0.38-0.08,0.53-0.2
				c0.14-0.13,0.21-0.29,0.21-0.48c0-0.19-0.07-0.35-0.22-0.48c-0.15-0.13-0.32-0.2-0.52-0.2h-4.94c-0.7,0-1.3-0.23-1.79-0.68
				c-0.49-0.46-0.74-1-0.74-1.63c0-0.64,0.25-1.18,0.74-1.62c0.49-0.44,1.09-0.68,1.79-0.7H181.76z"/>
			<path class="st1" d="M197.99,226.06l4.87,7.67h-2.26l-1.06-1.68h-5.19l-1.07,1.68h-2.25l4.87-7.67H197.99z M195.39,230.42h3.12
				l-1.56-2.46L195.39,230.42z"/>
		</g>
	</g>
	<g>
		<polygon class="st2" points="125.38,148.72 144.65,151.36 146.49,148.88 123.02,145.68 		"/>
		<polygon class="st2" points="130.15,154.88 140.93,156.35 142.77,153.88 127.79,151.83 		"/>
		<polygon class="st2" points="120.61,142.57 148.37,146.36 150.21,143.88 118.25,139.52 		"/>
		<polygon class="st2" points="133.08,158.68 137.58,158.68 132.55,157.99 		"/>
		<polygon class="st2" points="118.25,139.52 150.21,143.88 151.91,141.59 116.06,136.69 		"/>
		
			<radialGradient id="SVGID_00000118372632619112105920000018426660644905526425_" cx="211.927" cy="158.5562" r="21.2131" gradientTransform="matrix(0.9393 0.1283 -0.0689 0.9474 -53.195 -36.2052)" gradientUnits="userSpaceOnUse">
			<stop  offset="0" style="stop-color:#9E1725"/>
			<stop  offset="0.5047" style="stop-color:#9F1725"/>
			<stop  offset="0.6895" style="stop-color:#A51926"/>
			<stop  offset="0.8216" style="stop-color:#AD1B26"/>
			<stop  offset="0.9281" style="stop-color:#BA1E26"/>
			<stop  offset="1" style="stop-color:#C62026"/>
		</radialGradient>
		<polygon style="fill:url(#SVGID_00000118372632619112105920000018426660644905526425_);" points="118.25,139.52 150.21,143.88 
			151.91,141.59 116.06,136.69 		"/>
		<polygon class="st2" points="123.02,145.68 146.49,148.88 148.37,146.36 120.61,142.57 		"/>
		
			<radialGradient id="SVGID_00000130606587567969125410000012992173729271457470_" cx="211.927" cy="158.5565" r="21.213" gradientTransform="matrix(0.9393 0.1283 -0.0689 0.9474 -53.195 -36.2052)" gradientUnits="userSpaceOnUse">
			<stop  offset="0" style="stop-color:#9E1725"/>
			<stop  offset="0.5047" style="stop-color:#9F1725"/>
			<stop  offset="0.6895" style="stop-color:#A51926"/>
			<stop  offset="0.8216" style="stop-color:#AD1B26"/>
			<stop  offset="0.9281" style="stop-color:#BA1E26"/>
			<stop  offset="1" style="stop-color:#C62026"/>
		</radialGradient>
		<polygon style="fill:url(#SVGID_00000130606587567969125410000012992173729271457470_);" points="123.02,145.68 146.49,148.88 
			148.37,146.36 120.61,142.57 		"/>
		<polygon class="st2" points="127.79,151.83 142.77,153.88 144.65,151.36 125.38,148.72 		"/>
		
			<radialGradient id="SVGID_00000111186170472019137880000005826431117983846532_" cx="211.927" cy="158.5568" r="21.2128" gradientTransform="matrix(0.9393 0.1283 -0.0689 0.9474 -53.195 -36.2052)" gradientUnits="userSpaceOnUse">
			<stop  offset="0" style="stop-color:#9E1725"/>
			<stop  offset="0.5047" style="stop-color:#9F1725"/>
			<stop  offset="0.6895" style="stop-color:#A51926"/>
			<stop  offset="0.8216" style="stop-color:#AD1B26"/>
			<stop  offset="0.9281" style="stop-color:#BA1E26"/>
			<stop  offset="1" style="stop-color:#C62026"/>
		</radialGradient>
		<polygon style="fill:url(#SVGID_00000111186170472019137880000005826431117983846532_);" points="127.79,151.83 142.77,153.88 
			144.65,151.36 125.38,148.72 		"/>
		<polygon class="st2" points="132.55,157.99 137.58,158.68 139.2,158.68 140.93,156.35 130.15,154.88 		"/>
		
			<radialGradient id="SVGID_00000071543661426955253900000007494326649799404733_" cx="211.927" cy="158.5571" r="21.2127" gradientTransform="matrix(0.9393 0.1283 -0.0689 0.9474 -53.195 -36.2052)" gradientUnits="userSpaceOnUse">
			<stop  offset="0" style="stop-color:#9E1725"/>
			<stop  offset="0.5047" style="stop-color:#9F1725"/>
			<stop  offset="0.6895" style="stop-color:#A51926"/>
			<stop  offset="0.8216" style="stop-color:#AD1B26"/>
			<stop  offset="0.9281" style="stop-color:#BA1E26"/>
			<stop  offset="1" style="stop-color:#C62026"/>
		</radialGradient>
		<polygon style="fill:url(#SVGID_00000071543661426955253900000007494326649799404733_);" points="132.55,157.99 137.58,158.68 
			139.2,158.68 140.93,156.35 130.15,154.88 		"/>
	</g>
	<g>
		<g>
			<g>
				<path class="st9" d="M71.2,185.2c3.57-0.51,5.35-0.76,8.92-1.23c7.81-1.03,9.92,0.49,9.94,6.85c0,1.63,0.01,2.44,0.01,4.07
					c-0.04,4.53-1.25,6.34-4.91,7.21c0,0.04,0,0.06,0,0.1c3.94,0.62,4.83,1.61,4.94,5.22c0.01,3.71,0.01,5.56,0.02,9.27
					c-2.89,0.02-4.34,0.03-7.23,0.05c-0.01-3.79-0.01-5.69-0.02-9.48c0-1.44-0.8-1.9-3.24-1.78c-0.49,0.02-0.73,0.04-1.22,0.06
					c0.01,4.49,0.01,6.74,0.02,11.23c-2.89,0.02-4.34,0.03-7.23,0.05C71.21,206.28,71.2,195.74,71.2,185.2z M78.42,199.92
					c0.56-0.04,0.84-0.06,1.41-0.1c2.48-0.18,3.04-0.76,3.04-3.1c0-1.99-0.01-2.98-0.01-4.96c0-1.74-0.66-2.41-2.25-2.24
					c-0.88,0.1-1.32,0.15-2.2,0.24C78.41,193.82,78.41,195.85,78.42,199.92z"/>
				<path class="st9" d="M94,188.97c-0.01-5.1,2.6-7.39,9.35-8.08c6.75-0.69,9.39,1.16,9.41,6.53c0.03,8.83,0.04,13.25,0.07,22.08
					c0.02,5.37-2.61,7.44-9.41,7.47c-6.76,0.03-9.35-1.91-9.36-7.02C94.03,201.56,94.02,197.36,94,188.97z M105.25,188.42
					c0-1.22-0.47-1.61-1.88-1.49c-1.41,0.12-1.87,0.53-1.87,1.8c0.03,8.24,0.04,12.37,0.06,20.61c0,1.27,0.47,1.62,1.93,1.59
					c1.36-0.03,1.83-0.46,1.83-1.69C105.29,200.91,105.28,196.75,105.25,188.42z"/>
				<path class="st9" d="M116.7,187.14c-0.02-5.42,2.6-7.74,9.37-8.23c6.77-0.48,9.41,1.54,9.42,7.14
					c0.02,9.22,0.04,13.82,0.06,23.04c0.02,5.6-2.61,7.76-9.42,7.78c-6.76,0.02-9.35-2.05-9.37-7.46
					C116.75,200.51,116.73,196.05,116.7,187.14z M127.98,186.89c0-1.29-0.47-1.71-1.88-1.62s-1.88,0.5-1.87,1.84
					c0.03,8.69,0.04,13.03,0.07,21.72c0,1.33,0.47,1.71,1.93,1.69c1.36-0.02,1.83-0.47,1.83-1.76
					C128.02,200.02,128,195.64,127.98,186.89z"/>
				<path class="st9" d="M139.85,178.46c5.47-0.29,8.21-0.41,13.69-0.6c0,2.77,0.01,4.16,0.01,6.94c-2.58,0.07-3.87,0.12-6.44,0.21
					c0.01,3.79,0.01,5.69,0.02,9.48c2.35-0.06,3.53-0.09,5.88-0.14c0,2.77,0.01,4.16,0.01,6.93c-2.35,0.04-3.52,0.06-5.87,0.1
					c0.01,6.02,0.02,9.03,0.03,15.05c-2.89,0.01-4.34,0.01-7.23,0.02C139.91,203.78,139.88,191.12,139.85,178.46z"/>
				<path class="st9" d="M165.97,177.53c2.81-0.05,4.21-0.07,7.02-0.1c0.66,11.08,1.33,22.15,1.99,33.23c0.02,0,0.03,0,0.05,0
					c0.97-11.09,1.94-22.17,2.91-33.26c3.92-0.01,5.88,0,9.79,0.04c0.95,11.08,1.9,22.16,2.85,33.24c0.04,0,0.06,0,0.09,0
					c0.67-11.06,1.33-22.11,2-33.17c2.81,0.05,4.21,0.08,7.02,0.15c-1.2,12.91-2.39,25.83-3.57,38.74c-4.09,0-6.14-0.01-10.24-0.01
					c-1-10.77-2-21.55-3-32.32c-0.04,0-0.06,0-0.09,0c-1.01,10.77-2.01,21.55-3.01,32.32c-4.1,0-6.14,0-10.24,0
					C168.35,203.44,167.16,190.48,165.97,177.53z"/>
				<path class="st9" d="M202.59,185.27c0.01-5.74,2.65-7.89,9.42-7.6c6.78,0.29,9.4,2.62,9.39,8.25
					c-0.02,9.26-0.04,13.89-0.06,23.14c-0.01,5.63-2.65,7.78-9.46,7.77c-6.76-0.01-9.34-2.22-9.33-7.96
					C202.57,199.43,202.58,194.71,202.59,185.27z M213.88,186.07c0-1.32-0.47-1.8-1.88-1.85c-1.41-0.05-1.88,0.34-1.88,1.72
					c-0.02,9.01-0.03,13.52-0.04,22.53c0,1.38,0.47,1.79,1.92,1.8c1.36,0.01,1.83-0.44,1.84-1.76
					C213.85,199.53,213.86,195.05,213.88,186.07z"/>
				<path class="st9" d="M225.8,178.77c3.59,0.22,5.39,0.33,8.98,0.59c7.85,0.56,9.95,2.64,9.93,9.46
					c-0.01,1.75-0.01,2.62-0.01,4.36c-0.06,4.85-1.29,6.65-4.95,7.23c0,0.04,0,0.07,0,0.11c3.94,1.08,4.83,2.2,4.91,6.08
					c-0.01,3.97-0.02,5.96-0.03,9.93c-2.89-0.01-4.34-0.02-7.23-0.03c0.01-4.23,0.02-6.35,0.03-10.58c0-1.61-0.79-2.18-3.23-2.25
					c-0.49-0.01-0.73-0.02-1.22-0.03c-0.02,5.14-0.02,7.71-0.04,12.84c-2.89-0.01-4.34-0.02-7.23-0.03
					C225.73,203.9,225.77,191.34,225.8,178.77z M232.99,197.22c0.56,0.02,0.85,0.03,1.41,0.05c2.49,0.1,3.05-0.49,3.06-3.09
					c0.01-2.22,0.01-3.32,0.02-5.54c0.01-1.94-0.65-2.81-2.25-2.91c-0.88-0.05-1.32-0.08-2.21-0.13
					C233.01,190.26,233,192.58,232.99,197.22z"/>
				<path class="st9" d="M248.96,180.52c2.89,0.26,4.34,0.4,7.22,0.69c-0.02,5.96-0.03,8.94-0.05,14.91
					c-0.02,0.04-0.03,0.06-0.05,0.1c0.04,0,0.06,0,0.09,0.01c1.88-5.89,2.81-8.8,4.69-14.53c3.09,0.33,4.64,0.5,7.73,0.86
					c-2.47,6.2-3.71,9.37-6.18,15.83c2.76,7.46,4.13,11.13,6.89,18.29c-3.12-0.02-4.68-0.03-7.79-0.05
					c-2.14-6.24-3.21-9.41-5.35-15.84c-0.04,0-0.06,0-0.09,0c0.02,0.04,0.03,0.06,0.05,0.11c-0.02,6.28-0.03,9.42-0.05,15.7
					c-2.89-0.02-4.34-0.02-7.23-0.04C248.89,204.55,248.92,192.53,248.96,180.52z"/>
				<path class="st9" d="M277.97,208.27c0,2.72,0.28,3.17,2.15,3.23c1.59,0.04,2.16-0.43,2.16-1.84c0-1.4,0-2.1,0-3.51
					c0-1.95-0.32-2.3-3.04-3.2c-6.89-2.03-7.92-3.29-7.95-9.68c0-0.83,0-1.25,0-2.08c0.02-7.04,1.61-8.5,8.63-7.57
					c6.69,0.89,8.88,2.76,8.87,7.4c0,1.52,0,2.28,0,3.79c-2.56-0.26-3.84-0.39-6.41-0.64c0-0.62,0-0.93,0-1.56
					c0-2.77-0.23-3.14-1.91-3.33c-1.82-0.21-2.2,0.2-2.2,2.13c0,0.87,0,1.31,0,2.18c0,2.03,0.42,2.51,2.66,3.24
					c7.72,2.66,8.56,3.68,8.56,10.77c0,7.61-1.88,9.53-9.11,9.49c-7.37-0.04-9.15-1.72-9.13-8.72c0-1.12,0-1.67,0.01-2.79
					c2.68,0.12,4.02,0.18,6.7,0.31C277.97,206.84,277.97,207.32,277.97,208.27z"/>
				<path class="st14" d="M71.2,185.2c3.57-0.51,5.35-0.76,8.92-1.23c7.81-1.03,9.92,0.49,9.94,6.85c0,1.63,0.01,2.44,0.01,4.07
					c-0.04,4.53-1.25,6.34-4.91,7.21c0,0.04,0,0.06,0,0.1c3.94,0.62,4.83,1.61,4.94,5.22c0.01,3.71,0.01,5.56,0.02,9.27
					c-2.89,0.02-4.34,0.03-7.23,0.05c-0.01-3.79-0.01-5.69-0.02-9.48c0-1.44-0.8-1.9-3.24-1.78c-0.49,0.02-0.73,0.04-1.22,0.06
					c0.01,4.49,0.01,6.74,0.02,11.23c-2.89,0.02-4.34,0.03-7.23,0.05C71.21,206.28,71.2,195.74,71.2,185.2z M78.42,199.92
					c0.56-0.04,0.84-0.06,1.41-0.1c2.48-0.18,3.04-0.76,3.04-3.1c0-1.99-0.01-2.98-0.01-4.96c0-1.74-0.66-2.41-2.25-2.24
					c-0.88,0.1-1.32,0.15-2.2,0.24C78.41,193.82,78.41,195.85,78.42,199.92z"/>
				<path class="st14" d="M94,188.97c-0.01-5.1,2.6-7.39,9.35-8.08c6.75-0.69,9.39,1.16,9.41,6.53c0.03,8.83,0.04,13.25,0.07,22.08
					c0.02,5.37-2.61,7.44-9.41,7.47c-6.76,0.03-9.35-1.91-9.36-7.02C94.03,201.56,94.02,197.36,94,188.97z M105.25,188.42
					c0-1.22-0.47-1.61-1.88-1.49c-1.41,0.12-1.87,0.53-1.87,1.8c0.03,8.24,0.04,12.37,0.06,20.61c0,1.27,0.47,1.62,1.93,1.59
					c1.36-0.03,1.83-0.46,1.83-1.69C105.29,200.91,105.28,196.75,105.25,188.42z"/>
				<path class="st14" d="M116.7,187.14c-0.02-5.42,2.6-7.74,9.37-8.23c6.77-0.48,9.41,1.54,9.42,7.14
					c0.02,9.22,0.04,13.82,0.06,23.04c0.02,5.6-2.61,7.76-9.42,7.78c-6.76,0.02-9.35-2.05-9.37-7.46
					C116.75,200.51,116.73,196.05,116.7,187.14z M127.98,186.89c0-1.29-0.47-1.71-1.88-1.62s-1.88,0.5-1.87,1.84
					c0.03,8.69,0.04,13.03,0.07,21.72c0,1.33,0.47,1.71,1.93,1.69c1.36-0.02,1.83-0.47,1.83-1.76
					C128.02,200.02,128,195.64,127.98,186.89z"/>
				<path class="st14" d="M139.85,178.46c5.47-0.29,8.21-0.41,13.69-0.6c0,2.77,0.01,4.16,0.01,6.94c-2.58,0.07-3.87,0.12-6.44,0.21
					c0.01,3.79,0.01,5.69,0.02,9.48c2.35-0.06,3.53-0.09,5.88-0.14c0,2.77,0.01,4.16,0.01,6.93c-2.35,0.04-3.52,0.06-5.87,0.1
					c0.01,6.02,0.02,9.03,0.03,15.05c-2.89,0.01-4.34,0.01-7.23,0.02C139.91,203.78,139.88,191.12,139.85,178.46z"/>
				<path class="st14" d="M165.97,177.53c2.81-0.05,4.21-0.07,7.02-0.1c0.66,11.08,1.33,22.15,1.99,33.23c0.02,0,0.03,0,0.05,0
					c0.97-11.09,1.94-22.17,2.91-33.26c3.92-0.01,5.88,0,9.79,0.04c0.95,11.08,1.9,22.16,2.85,33.24c0.04,0,0.06,0,0.09,0
					c0.67-11.06,1.33-22.11,2-33.17c2.81,0.05,4.21,0.08,7.02,0.15c-1.2,12.91-2.39,25.83-3.57,38.74c-4.09,0-6.14-0.01-10.24-0.01
					c-1-10.77-2-21.55-3-32.32c-0.04,0-0.06,0-0.09,0c-1.01,10.77-2.01,21.55-3.01,32.32c-4.1,0-6.14,0-10.24,0
					C168.35,203.44,167.16,190.48,165.97,177.53z"/>
				<path class="st14" d="M202.59,185.27c0.01-5.74,2.65-7.89,9.42-7.6c6.78,0.29,9.4,2.62,9.39,8.25
					c-0.02,9.26-0.04,13.89-0.06,23.14c-0.01,5.63-2.65,7.78-9.46,7.77c-6.76-0.01-9.34-2.22-9.33-7.96
					C202.57,199.43,202.58,194.71,202.59,185.27z M213.88,186.07c0-1.32-0.47-1.8-1.88-1.85c-1.41-0.05-1.88,0.34-1.88,1.72
					c-0.02,9.01-0.03,13.52-0.04,22.53c0,1.38,0.47,1.79,1.92,1.8c1.36,0.01,1.83-0.44,1.84-1.76
					C213.85,199.53,213.86,195.05,213.88,186.07z"/>
				<path class="st14" d="M225.8,178.77c3.59,0.22,5.39,0.33,8.98,0.59c7.85,0.56,9.95,2.64,9.93,9.46
					c-0.01,1.75-0.01,2.62-0.01,4.36c-0.06,4.85-1.29,6.65-4.95,7.23c0,0.04,0,0.07,0,0.11c3.94,1.08,4.83,2.2,4.91,6.08
					c-0.01,3.97-0.02,5.96-0.03,9.93c-2.89-0.01-4.34-0.02-7.23-0.03c0.01-4.23,0.02-6.35,0.03-10.58c0-1.61-0.79-2.18-3.23-2.25
					c-0.49-0.01-0.73-0.02-1.22-0.03c-0.02,5.14-0.02,7.71-0.04,12.84c-2.89-0.01-4.34-0.02-7.23-0.03
					C225.73,203.9,225.77,191.34,225.8,178.77z M232.99,197.22c0.56,0.02,0.85,0.03,1.41,0.05c2.49,0.1,3.05-0.49,3.06-3.09
					c0.01-2.22,0.01-3.32,0.02-5.54c0.01-1.94-0.65-2.81-2.25-2.91c-0.88-0.05-1.32-0.08-2.21-0.13
					C233.01,190.26,233,192.58,232.99,197.22z"/>
				<path class="st14" d="M248.96,180.52c2.89,0.26,4.34,0.4,7.22,0.69c-0.02,5.96-0.03,8.94-0.05,14.91
					c-0.02,0.04-0.03,0.06-0.05,0.1c0.04,0,0.06,0,0.09,0.01c1.88-5.89,2.81-8.8,4.69-14.53c3.09,0.33,4.64,0.5,7.73,0.86
					c-2.47,6.2-3.71,9.37-6.18,15.83c2.76,7.46,4.13,11.13,6.89,18.29c-3.12-0.02-4.68-0.03-7.79-0.05
					c-2.14-6.24-3.21-9.41-5.35-15.84c-0.04,0-0.06,0-0.09,0c0.02,0.04,0.03,0.06,0.05,0.11c-0.02,6.28-0.03,9.42-0.05,15.7
					c-2.89-0.02-4.34-0.02-7.23-0.04C248.89,204.55,248.92,192.53,248.96,180.52z"/>
				<path class="st14" d="M277.97,208.27c0,2.72,0.28,3.17,2.15,3.23c1.59,0.04,2.16-0.43,2.16-1.84c0-1.4,0-2.1,0-3.51
					c0-1.95-0.32-2.3-3.04-3.2c-6.89-2.03-7.92-3.29-7.95-9.68c0-0.83,0-1.25,0-2.08c0.02-7.04,1.61-8.5,8.63-7.57
					c6.69,0.89,8.88,2.76,8.87,7.4c0,1.52,0,2.28,0,3.79c-2.56-0.26-3.84-0.39-6.41-0.64c0-0.62,0-0.93,0-1.56
					c0-2.77-0.23-3.14-1.91-3.33c-1.82-0.21-2.2,0.2-2.2,2.13c0,0.87,0,1.31,0,2.18c0,2.03,0.42,2.51,2.66,3.24
					c7.72,2.66,8.56,3.68,8.56,10.77c0,7.61-1.88,9.53-9.11,9.49c-7.37-0.04-9.15-1.72-9.13-8.72c0-1.12,0-1.67,0.01-2.79
					c2.68,0.12,4.02,0.18,6.7,0.31C277.97,206.84,277.97,207.32,277.97,208.27z"/>
				<path class="st9" d="M71.2,185.2c3.57-0.51,5.35-0.76,8.92-1.23c7.81-1.03,9.92,0.49,9.94,6.85c0,1.63,0.01,2.44,0.01,4.07
					c-0.04,4.53-1.25,6.34-4.91,7.21c0,0.04,0,0.06,0,0.1c3.94,0.62,4.83,1.61,4.94,5.22c0.01,3.71,0.01,5.56,0.02,9.27
					c-2.89,0.02-4.34,0.03-7.23,0.05c-0.01-3.79-0.01-5.69-0.02-9.48c0-1.44-0.8-1.9-3.24-1.78c-0.49,0.02-0.73,0.04-1.22,0.06
					c0.01,4.49,0.01,6.74,0.02,11.23c-2.89,0.02-4.34,0.03-7.23,0.05C71.21,206.28,71.2,195.74,71.2,185.2z M78.42,199.92
					c0.56-0.04,0.84-0.06,1.41-0.1c2.48-0.18,3.04-0.76,3.04-3.1c0-1.99-0.01-2.98-0.01-4.96c0-1.74-0.66-2.41-2.25-2.24
					c-0.88,0.1-1.32,0.15-2.2,0.24C78.41,193.82,78.41,195.85,78.42,199.92z"/>
				<path class="st9" d="M94,188.97c-0.01-5.1,2.6-7.39,9.35-8.08c6.75-0.69,9.39,1.16,9.41,6.53c0.03,8.83,0.04,13.25,0.07,22.08
					c0.02,5.37-2.61,7.44-9.41,7.47c-6.76,0.03-9.35-1.91-9.36-7.02C94.03,201.56,94.02,197.36,94,188.97z M105.25,188.42
					c0-1.22-0.47-1.61-1.88-1.49c-1.41,0.12-1.87,0.53-1.87,1.8c0.03,8.24,0.04,12.37,0.06,20.61c0,1.27,0.47,1.62,1.93,1.59
					c1.36-0.03,1.83-0.46,1.83-1.69C105.29,200.91,105.28,196.75,105.25,188.42z"/>
				<path class="st9" d="M116.7,187.14c-0.02-5.42,2.6-7.74,9.37-8.23c6.77-0.48,9.41,1.54,9.42,7.14
					c0.02,9.22,0.04,13.82,0.06,23.04c0.02,5.6-2.61,7.76-9.42,7.78c-6.76,0.02-9.35-2.05-9.37-7.46
					C116.75,200.51,116.73,196.05,116.7,187.14z M127.98,186.89c0-1.29-0.47-1.71-1.88-1.62s-1.88,0.5-1.87,1.84
					c0.03,8.69,0.04,13.03,0.07,21.72c0,1.33,0.47,1.71,1.93,1.69c1.36-0.02,1.83-0.47,1.83-1.76
					C128.02,200.02,128,195.64,127.98,186.89z"/>
				<path class="st9" d="M139.85,178.46c5.47-0.29,8.21-0.41,13.69-0.6c0,2.77,0.01,4.16,0.01,6.94c-2.58,0.07-3.87,0.12-6.44,0.21
					c0.01,3.79,0.01,5.69,0.02,9.48c2.35-0.06,3.53-0.09,5.88-0.14c0,2.77,0.01,4.16,0.01,6.93c-2.35,0.04-3.52,0.06-5.87,0.1
					c0.01,6.02,0.02,9.03,0.03,15.05c-2.89,0.01-4.34,0.01-7.23,0.02C139.91,203.78,139.88,191.12,139.85,178.46z"/>
				<path class="st9" d="M165.97,177.53c2.81-0.05,4.21-0.07,7.02-0.1c0.66,11.08,1.33,22.15,1.99,33.23c0.02,0,0.03,0,0.05,0
					c0.97-11.09,1.94-22.17,2.91-33.26c3.92-0.01,5.88,0,9.79,0.04c0.95,11.08,1.9,22.16,2.85,33.24c0.04,0,0.06,0,0.09,0
					c0.67-11.06,1.33-22.11,2-33.17c2.81,0.05,4.21,0.08,7.02,0.15c-1.2,12.91-2.39,25.83-3.57,38.74c-4.09,0-6.14-0.01-10.24-0.01
					c-1-10.77-2-21.55-3-32.32c-0.04,0-0.06,0-0.09,0c-1.01,10.77-2.01,21.55-3.01,32.32c-4.1,0-6.14,0-10.24,0
					C168.35,203.44,167.16,190.48,165.97,177.53z"/>
				<path class="st9" d="M202.59,185.27c0.01-5.74,2.65-7.89,9.42-7.6c6.78,0.29,9.4,2.62,9.39,8.25
					c-0.02,9.26-0.04,13.89-0.06,23.14c-0.01,5.63-2.65,7.78-9.46,7.77c-6.76-0.01-9.34-2.22-9.33-7.96
					C202.57,199.43,202.58,194.71,202.59,185.27z M213.88,186.07c0-1.32-0.47-1.8-1.88-1.85c-1.41-0.05-1.88,0.34-1.88,1.72
					c-0.02,9.01-0.03,13.52-0.04,22.53c0,1.38,0.47,1.79,1.92,1.8c1.36,0.01,1.83-0.44,1.84-1.76
					C213.85,199.53,213.86,195.05,213.88,186.07z"/>
				<path class="st9" d="M225.8,178.77c3.59,0.22,5.39,0.33,8.98,0.59c7.85,0.56,9.95,2.64,9.93,9.46
					c-0.01,1.75-0.01,2.62-0.01,4.36c-0.06,4.85-1.29,6.65-4.95,7.23c0,0.04,0,0.07,0,0.11c3.94,1.08,4.83,2.2,4.91,6.08
					c-0.01,3.97-0.02,5.96-0.03,9.93c-2.89-0.01-4.34-0.02-7.23-0.03c0.01-4.23,0.02-6.35,0.03-10.58c0-1.61-0.79-2.18-3.23-2.25
					c-0.49-0.01-0.73-0.02-1.22-0.03c-0.02,5.14-0.02,7.71-0.04,12.84c-2.89-0.01-4.34-0.02-7.23-0.03
					C225.73,203.9,225.77,191.34,225.8,178.77z M232.99,197.22c0.56,0.02,0.85,0.03,1.41,0.05c2.49,0.1,3.05-0.49,3.06-3.09
					c0.01-2.22,0.01-3.32,0.02-5.54c0.01-1.94-0.65-2.81-2.25-2.91c-0.88-0.05-1.32-0.08-2.21-0.13
					C233.01,190.26,233,192.58,232.99,197.22z"/>
				<path class="st9" d="M248.96,180.52c2.89,0.26,4.34,0.4,7.22,0.69c-0.02,5.96-0.03,8.94-0.05,14.91
					c-0.02,0.04-0.03,0.06-0.05,0.1c0.04,0,0.06,0,0.09,0.01c1.88-5.89,2.81-8.8,4.69-14.53c3.09,0.33,4.64,0.5,7.73,0.86
					c-2.47,6.2-3.71,9.37-6.18,15.83c2.76,7.46,4.13,11.13,6.89,18.29c-3.12-0.02-4.68-0.03-7.79-0.05
					c-2.14-6.24-3.21-9.41-5.35-15.84c-0.04,0-0.06,0-0.09,0c0.02,0.04,0.03,0.06,0.05,0.11c-0.02,6.28-0.03,9.42-0.05,15.7
					c-2.89-0.02-4.34-0.02-7.23-0.04C248.89,204.55,248.92,192.53,248.96,180.52z"/>
				<path class="st9" d="M277.97,208.27c0,2.72,0.28,3.17,2.15,3.23c1.59,0.04,2.16-0.43,2.16-1.84c0-1.4,0-2.1,0-3.51
					c0-1.95-0.32-2.3-3.04-3.2c-6.89-2.03-7.92-3.29-7.95-9.68c0-0.83,0-1.25,0-2.08c0.02-7.04,1.61-8.5,8.63-7.57
					c6.69,0.89,8.88,2.76,8.87,7.4c0,1.52,0,2.28,0,3.79c-2.56-0.26-3.84-0.39-6.41-0.64c0-0.62,0-0.93,0-1.56
					c0-2.77-0.23-3.14-1.91-3.33c-1.82-0.21-2.2,0.2-2.2,2.13c0,0.87,0,1.31,0,2.18c0,2.03,0.42,2.51,2.66,3.24
					c7.72,2.66,8.56,3.68,8.56,10.77c0,7.61-1.88,9.53-9.11,9.49c-7.37-0.04-9.15-1.72-9.13-8.72c0-1.12,0-1.67,0.01-2.79
					c2.68,0.12,4.02,0.18,6.7,0.31C277.97,206.84,277.97,207.32,277.97,208.27z"/>
			</g>
			<g>
				<g>
					<path class="st8" d="M70.49,184.58c3.57-0.53,5.35-0.78,8.92-1.27c7.81-1.06,9.92,0.45,9.94,6.8c0,1.63,0.01,2.44,0.01,4.06
						c-0.04,4.52-1.25,6.33-4.91,7.2c0,0.04,0,0.06,0,0.1c3.94,0.61,4.83,1.59,4.94,5.19c0.01,3.7,0.01,5.55,0.02,9.24
						c-2.89,0.03-4.34,0.04-7.23,0.07c-0.01-3.78-0.01-5.68-0.02-9.46c0-1.44-0.8-1.89-3.24-1.76c-0.49,0.03-0.73,0.04-1.22,0.07
						c0.01,4.48,0.01,6.72,0.01,11.2c-2.89,0.03-4.34,0.05-7.23,0.08C70.5,205.6,70.49,195.09,70.49,184.58z M77.7,199.23
						c0.56-0.04,0.84-0.06,1.41-0.11c2.48-0.19,3.04-0.77,3.04-3.1c0-1.98-0.01-2.97-0.01-4.95c0-1.73-0.66-2.4-2.25-2.22
						c-0.88,0.1-1.32,0.15-2.2,0.25C77.7,193.15,77.7,195.18,77.7,199.23z"/>
					<path class="st8" d="M93.28,188.25c-0.01-5.09,2.6-7.38,9.35-8.09s9.39,1.13,9.41,6.49c0.03,8.82,0.04,13.22,0.07,22.04
						c0.02,5.36-2.61,7.43-9.41,7.48c-6.76,0.05-9.35-1.89-9.36-6.98C93.32,200.82,93.31,196.63,93.28,188.25z M104.54,187.67
						c0-1.22-0.47-1.61-1.88-1.48c-1.41,0.12-1.87,0.54-1.87,1.8c0.02,8.23,0.04,12.34,0.06,20.57c0,1.26,0.47,1.62,1.93,1.59
						c1.36-0.03,1.83-0.47,1.83-1.69C104.58,200.14,104.56,195.98,104.54,187.67z"/>
					<path class="st8" d="M115.99,186.36c-0.02-5.41,2.6-7.74,9.37-8.24c6.77-0.5,9.41,1.51,9.42,7.11
						c0.03,9.21,0.04,13.81,0.06,23.02c0.02,5.6-2.61,7.76-9.42,7.79c-6.76,0.03-9.35-2.03-9.37-7.44
						C116.03,199.71,116.02,195.26,115.99,186.36z M127.26,186.09c0-1.29-0.47-1.7-1.88-1.62c-1.41,0.09-1.88,0.51-1.87,1.84
						c0.03,8.68,0.04,13.02,0.07,21.69c0,1.33,0.47,1.71,1.93,1.69c1.36-0.02,1.83-0.48,1.83-1.76
						C127.3,199.19,127.29,194.82,127.26,186.09z"/>
					<path class="st8" d="M139.14,177.63c5.47-0.3,8.21-0.42,13.69-0.62c0.01,2.77,0.01,4.16,0.01,6.93
						c-2.58,0.08-3.87,0.12-6.44,0.22c0.01,3.79,0.01,5.68,0.02,9.47c2.35-0.06,3.53-0.09,5.88-0.15c0.01,2.77,0.01,4.16,0.01,6.93
						c-2.35,0.04-3.52,0.06-5.87,0.11c0.01,6.02,0.02,9.02,0.03,15.04c-2.89,0.01-4.34,0.02-7.23,0.03
						C139.2,202.93,139.17,190.28,139.14,177.63z"/>
					<path class="st8" d="M165.26,176.66c2.81-0.06,4.21-0.08,7.02-0.11c0.66,11.08,1.33,22.15,1.99,33.23c0.02,0,0.03,0,0.05,0
						c0.97-11.09,1.94-22.17,2.91-33.26c3.92-0.01,5.88-0.01,9.79,0.03c0.95,11.08,1.9,22.16,2.85,33.24c0.04,0,0.06,0,0.09,0
						c0.67-11.06,1.33-22.12,2-33.18c2.81,0.04,4.21,0.07,7.02,0.15c-1.2,12.92-2.39,25.84-3.57,38.76
						c-4.09-0.01-6.14-0.01-10.24-0.01c-1-10.77-2-21.55-3-32.32c-0.04,0-0.06,0-0.09,0c-1,10.77-2.01,21.55-3.01,32.32
						c-4.1,0-6.14,0-10.24,0.01C167.64,202.56,166.45,189.61,165.26,176.66z"/>
					<path class="st8" d="M201.88,184.37c0.01-5.74,2.65-7.9,9.42-7.61c6.78,0.29,9.4,2.62,9.39,8.26
						c-0.02,9.27-0.03,13.9-0.06,23.16c-0.01,5.63-2.65,7.79-9.46,7.77c-6.76-0.02-9.34-2.23-9.33-7.97
						C201.86,198.54,201.87,193.82,201.88,184.37z M213.17,185.18c0-1.32-0.47-1.8-1.88-1.85c-1.41-0.05-1.88,0.34-1.88,1.72
						c-0.02,9.02-0.03,13.52-0.04,22.54c0,1.38,0.47,1.79,1.92,1.8c1.36,0.01,1.83-0.44,1.84-1.76
						C213.14,198.65,213.15,194.16,213.17,185.18z"/>
					<path class="st8" d="M225.09,177.87c3.59,0.22,5.39,0.34,8.98,0.6c7.85,0.57,9.95,2.65,9.93,9.48
						c-0.01,1.75-0.01,2.62-0.01,4.37c-0.06,4.86-1.29,6.66-4.95,7.24c0,0.04,0,0.07,0,0.11c3.94,1.09,4.83,2.21,4.91,6.1
						c-0.01,3.98-0.02,5.97-0.03,9.94c-2.89-0.02-4.34-0.03-7.23-0.04c0.01-4.24,0.02-6.36,0.03-10.59c0-1.61-0.79-2.19-3.23-2.26
						c-0.49-0.01-0.73-0.02-1.22-0.03c-0.02,5.14-0.02,7.72-0.04,12.86c-2.89-0.02-4.34-0.02-7.23-0.04
						C225.02,203.03,225.06,190.45,225.09,177.87z M232.28,196.35c0.56,0.02,0.85,0.03,1.41,0.06c2.49,0.1,3.05-0.48,3.06-3.09
						c0.01-2.22,0.01-3.33,0.02-5.55c0.01-1.94-0.65-2.82-2.25-2.91c-0.88-0.05-1.32-0.08-2.21-0.13
						C232.3,189.37,232.29,191.7,232.28,196.35z"/>
					<path class="st8" d="M248.25,179.64c2.89,0.27,4.34,0.4,7.22,0.7c-0.02,5.97-0.03,8.96-0.05,14.94
						c-0.02,0.04-0.03,0.06-0.05,0.1c0.04,0,0.06,0,0.09,0.01c1.88-5.9,2.81-8.81,4.69-14.55c3.09,0.33,4.64,0.51,7.73,0.88
						c-2.47,6.21-3.71,9.38-6.19,15.85c2.76,7.48,4.13,11.16,6.89,18.34c-3.12-0.03-4.68-0.04-7.79-0.07
						c-2.14-6.26-3.21-9.44-5.35-15.88c-0.04,0-0.06,0-0.09,0c0.02,0.04,0.03,0.07,0.05,0.11c-0.02,6.29-0.03,9.44-0.05,15.73
						c-2.89-0.02-4.34-0.03-7.23-0.05C248.18,203.7,248.21,191.67,248.25,179.64z"/>
					<path class="st8" d="M277.26,207.49c-0.01,2.73,0.28,3.18,2.15,3.24c1.59,0.05,2.16-0.42,2.16-1.84c0-1.41,0-2.11,0-3.52
						c0-1.95-0.32-2.31-3.04-3.22c-6.89-2.05-7.92-3.31-7.95-9.72c0-0.83,0-1.25,0.01-2.08c0.02-7.06,1.61-8.52,8.63-7.57
						c6.69,0.91,8.88,2.78,8.87,7.44c0,1.52,0,2.28,0,3.8c-2.56-0.27-3.84-0.4-6.41-0.65c0-0.62,0-0.94,0-1.56
						c0-2.78-0.23-3.15-1.91-3.35c-1.82-0.21-2.2,0.2-2.2,2.13c0,0.87,0,1.31,0,2.18c0,2.03,0.42,2.52,2.66,3.25
						c7.72,2.68,8.56,3.71,8.56,10.82c0,7.63-1.88,9.56-9.11,9.49c-7.37-0.06-9.15-1.75-9.13-8.76c0-1.12,0-1.68,0.01-2.79
						c2.68,0.12,4.02,0.19,6.7,0.32C277.26,206.06,277.26,206.54,277.26,207.49z"/>
				</g>
				<g>
					<path class="st15" d="M70.49,184.58c3.57-0.53,5.35-0.78,8.92-1.27c7.81-1.06,9.92,0.45,9.94,6.8c0,1.63,0.01,2.44,0.01,4.06
						c-0.04,4.52-1.25,6.33-4.91,7.2c0,0.04,0,0.06,0,0.1c3.94,0.61,4.83,1.59,4.94,5.19c0.01,3.7,0.01,5.55,0.02,9.24
						c-2.89,0.03-4.34,0.04-7.23,0.07c-0.01-3.78-0.01-5.68-0.02-9.46c0-1.44-0.8-1.89-3.24-1.76c-0.49,0.03-0.73,0.04-1.22,0.07
						c0.01,4.48,0.01,6.72,0.01,11.2c-2.89,0.03-4.34,0.05-7.23,0.08C70.5,205.6,70.49,195.09,70.49,184.58z M77.7,199.23
						c0.56-0.04,0.84-0.06,1.41-0.11c2.48-0.19,3.04-0.77,3.04-3.1c0-1.98-0.01-2.97-0.01-4.95c0-1.73-0.66-2.4-2.25-2.22
						c-0.88,0.1-1.32,0.15-2.2,0.25C77.7,193.15,77.7,195.18,77.7,199.23z"/>
					<path class="st15" d="M93.28,188.25c-0.01-5.09,2.6-7.38,9.35-8.09s9.39,1.13,9.41,6.49c0.03,8.82,0.04,13.22,0.07,22.04
						c0.02,5.36-2.61,7.43-9.41,7.48c-6.76,0.05-9.35-1.89-9.36-6.98C93.32,200.82,93.31,196.63,93.28,188.25z M104.54,187.67
						c0-1.22-0.47-1.61-1.88-1.48c-1.41,0.12-1.87,0.54-1.87,1.8c0.02,8.23,0.04,12.34,0.06,20.57c0,1.26,0.47,1.62,1.93,1.59
						c1.36-0.03,1.83-0.47,1.83-1.69C104.58,200.14,104.56,195.98,104.54,187.67z"/>
					<path class="st15" d="M115.99,186.36c-0.02-5.41,2.6-7.74,9.37-8.24c6.77-0.5,9.41,1.51,9.42,7.11
						c0.03,9.21,0.04,13.81,0.06,23.02c0.02,5.6-2.61,7.76-9.42,7.79c-6.76,0.03-9.35-2.03-9.37-7.44
						C116.03,199.71,116.02,195.26,115.99,186.36z M127.26,186.09c0-1.29-0.47-1.7-1.88-1.62c-1.41,0.09-1.88,0.51-1.87,1.84
						c0.03,8.68,0.04,13.02,0.07,21.69c0,1.33,0.47,1.71,1.93,1.69c1.36-0.02,1.83-0.48,1.83-1.76
						C127.3,199.19,127.29,194.82,127.26,186.09z"/>
					<path class="st15" d="M139.14,177.63c5.47-0.3,8.21-0.42,13.69-0.62c0.01,2.77,0.01,4.16,0.01,6.93
						c-2.58,0.08-3.87,0.12-6.44,0.22c0.01,3.79,0.01,5.68,0.02,9.47c2.35-0.06,3.53-0.09,5.88-0.15c0.01,2.77,0.01,4.16,0.01,6.93
						c-2.35,0.04-3.52,0.06-5.87,0.11c0.01,6.02,0.02,9.02,0.03,15.04c-2.89,0.01-4.34,0.02-7.23,0.03
						C139.2,202.93,139.17,190.28,139.14,177.63z"/>
					<path class="st15" d="M165.26,176.66c2.81-0.06,4.21-0.08,7.02-0.11c0.66,11.08,1.33,22.15,1.99,33.23c0.02,0,0.03,0,0.05,0
						c0.97-11.09,1.94-22.17,2.91-33.26c3.92-0.01,5.88-0.01,9.79,0.03c0.95,11.08,1.9,22.16,2.85,33.24c0.04,0,0.06,0,0.09,0
						c0.67-11.06,1.33-22.12,2-33.18c2.81,0.04,4.21,0.07,7.02,0.15c-1.2,12.92-2.39,25.84-3.57,38.76
						c-4.09-0.01-6.14-0.01-10.24-0.01c-1-10.77-2-21.55-3-32.32c-0.04,0-0.06,0-0.09,0c-1,10.77-2.01,21.55-3.01,32.32
						c-4.1,0-6.14,0-10.24,0.01C167.64,202.56,166.45,189.61,165.26,176.66z"/>
					<path class="st15" d="M201.88,184.37c0.01-5.74,2.65-7.9,9.42-7.61c6.78,0.29,9.4,2.62,9.39,8.26
						c-0.02,9.27-0.03,13.9-0.06,23.16c-0.01,5.63-2.65,7.79-9.46,7.77c-6.76-0.02-9.34-2.23-9.33-7.97
						C201.86,198.54,201.87,193.82,201.88,184.37z M213.17,185.18c0-1.32-0.47-1.8-1.88-1.85c-1.41-0.05-1.88,0.34-1.88,1.72
						c-0.02,9.02-0.03,13.52-0.04,22.54c0,1.38,0.47,1.79,1.92,1.8c1.36,0.01,1.83-0.44,1.84-1.76
						C213.14,198.65,213.15,194.16,213.17,185.18z"/>
					<path class="st15" d="M225.09,177.87c3.59,0.22,5.39,0.34,8.98,0.6c7.85,0.57,9.95,2.65,9.93,9.48
						c-0.01,1.75-0.01,2.62-0.01,4.37c-0.06,4.86-1.29,6.66-4.95,7.24c0,0.04,0,0.07,0,0.11c3.94,1.09,4.83,2.21,4.91,6.1
						c-0.01,3.98-0.02,5.97-0.03,9.94c-2.89-0.02-4.34-0.03-7.23-0.04c0.01-4.24,0.02-6.36,0.03-10.59c0-1.61-0.79-2.19-3.23-2.26
						c-0.49-0.01-0.73-0.02-1.22-0.03c-0.02,5.14-0.02,7.72-0.04,12.86c-2.89-0.02-4.34-0.02-7.23-0.04
						C225.02,203.03,225.06,190.45,225.09,177.87z M232.28,196.35c0.56,0.02,0.85,0.03,1.41,0.06c2.49,0.1,3.05-0.48,3.06-3.09
						c0.01-2.22,0.01-3.33,0.02-5.55c0.01-1.94-0.65-2.82-2.25-2.91c-0.88-0.05-1.32-0.08-2.21-0.13
						C232.3,189.37,232.29,191.7,232.28,196.35z"/>
					<path class="st15" d="M248.25,179.64c2.89,0.27,4.34,0.4,7.22,0.7c-0.02,5.97-0.03,8.96-0.05,14.94
						c-0.02,0.04-0.03,0.06-0.05,0.1c0.04,0,0.06,0,0.09,0.01c1.88-5.9,2.81-8.81,4.69-14.55c3.09,0.33,4.64,0.51,7.73,0.88
						c-2.47,6.21-3.71,9.38-6.19,15.85c2.76,7.48,4.13,11.16,6.89,18.34c-3.12-0.03-4.68-0.04-7.79-0.07
						c-2.14-6.26-3.21-9.44-5.35-15.88c-0.04,0-0.06,0-0.09,0c0.02,0.04,0.03,0.07,0.05,0.11c-0.02,6.29-0.03,9.44-0.05,15.73
						c-2.89-0.02-4.34-0.03-7.23-0.05C248.18,203.7,248.21,191.67,248.25,179.64z"/>
					<path class="st15" d="M277.26,207.49c-0.01,2.73,0.28,3.18,2.15,3.24c1.59,0.05,2.16-0.42,2.16-1.84c0-1.41,0-2.11,0-3.52
						c0-1.95-0.32-2.31-3.04-3.22c-6.89-2.05-7.92-3.31-7.95-9.72c0-0.83,0-1.25,0.01-2.08c0.02-7.06,1.61-8.52,8.63-7.57
						c6.69,0.91,8.88,2.78,8.87,7.44c0,1.52,0,2.28,0,3.8c-2.56-0.27-3.84-0.4-6.41-0.65c0-0.62,0-0.94,0-1.56
						c0-2.78-0.23-3.15-1.91-3.35c-1.82-0.21-2.2,0.2-2.2,2.13c0,0.87,0,1.31,0,2.18c0,2.03,0.42,2.52,2.66,3.25
						c7.72,2.68,8.56,3.71,8.56,10.82c0,7.63-1.88,9.56-9.11,9.49c-7.37-0.06-9.15-1.75-9.13-8.76c0-1.12,0-1.68,0.01-2.79
						c2.68,0.12,4.02,0.19,6.7,0.32C277.26,206.06,277.26,206.54,277.26,207.49z"/>
				</g>
				<g>
					<path class="st8" d="M70.49,184.58c3.57-0.53,5.35-0.78,8.92-1.27c7.81-1.06,9.92,0.45,9.94,6.8c0,1.63,0.01,2.44,0.01,4.06
						c-0.04,4.52-1.25,6.33-4.91,7.2c0,0.04,0,0.06,0,0.1c3.94,0.61,4.83,1.59,4.94,5.19c0.01,3.7,0.01,5.55,0.02,9.24
						c-2.89,0.03-4.34,0.04-7.23,0.07c-0.01-3.78-0.01-5.68-0.02-9.46c0-1.44-0.8-1.89-3.24-1.76c-0.49,0.03-0.73,0.04-1.22,0.07
						c0.01,4.48,0.01,6.72,0.01,11.2c-2.89,0.03-4.34,0.05-7.23,0.08C70.5,205.6,70.49,195.09,70.49,184.58z M77.7,199.23
						c0.56-0.04,0.84-0.06,1.41-0.11c2.48-0.19,3.04-0.77,3.04-3.1c0-1.98-0.01-2.97-0.01-4.95c0-1.73-0.66-2.4-2.25-2.22
						c-0.88,0.1-1.32,0.15-2.2,0.25C77.7,193.15,77.7,195.18,77.7,199.23z"/>
					<path class="st8" d="M93.28,188.25c-0.01-5.09,2.6-7.38,9.35-8.09s9.39,1.13,9.41,6.49c0.03,8.82,0.04,13.22,0.07,22.04
						c0.02,5.36-2.61,7.43-9.41,7.48c-6.76,0.05-9.35-1.89-9.36-6.98C93.32,200.82,93.31,196.63,93.28,188.25z M104.54,187.67
						c0-1.22-0.47-1.61-1.88-1.48c-1.41,0.12-1.87,0.54-1.87,1.8c0.02,8.23,0.04,12.34,0.06,20.57c0,1.26,0.47,1.62,1.93,1.59
						c1.36-0.03,1.83-0.47,1.83-1.69C104.58,200.14,104.56,195.98,104.54,187.67z"/>
					<path class="st8" d="M115.99,186.36c-0.02-5.41,2.6-7.74,9.37-8.24c6.77-0.5,9.41,1.51,9.42,7.11
						c0.03,9.21,0.04,13.81,0.06,23.02c0.02,5.6-2.61,7.76-9.42,7.79c-6.76,0.03-9.35-2.03-9.37-7.44
						C116.03,199.71,116.02,195.26,115.99,186.36z M127.26,186.09c0-1.29-0.47-1.7-1.88-1.62c-1.41,0.09-1.88,0.51-1.87,1.84
						c0.03,8.68,0.04,13.02,0.07,21.69c0,1.33,0.47,1.71,1.93,1.69c1.36-0.02,1.83-0.48,1.83-1.76
						C127.3,199.19,127.29,194.82,127.26,186.09z"/>
					<path class="st8" d="M139.14,177.63c5.47-0.3,8.21-0.42,13.69-0.62c0.01,2.77,0.01,4.16,0.01,6.93
						c-2.58,0.08-3.87,0.12-6.44,0.22c0.01,3.79,0.01,5.68,0.02,9.47c2.35-0.06,3.53-0.09,5.88-0.15c0.01,2.77,0.01,4.16,0.01,6.93
						c-2.35,0.04-3.52,0.06-5.87,0.11c0.01,6.02,0.02,9.02,0.03,15.04c-2.89,0.01-4.34,0.02-7.23,0.03
						C139.2,202.93,139.17,190.28,139.14,177.63z"/>
					<path class="st8" d="M165.26,176.66c2.81-0.06,4.21-0.08,7.02-0.11c0.66,11.08,1.33,22.15,1.99,33.23c0.02,0,0.03,0,0.05,0
						c0.97-11.09,1.94-22.17,2.91-33.26c3.92-0.01,5.88-0.01,9.79,0.03c0.95,11.08,1.9,22.16,2.85,33.24c0.04,0,0.06,0,0.09,0
						c0.67-11.06,1.33-22.12,2-33.18c2.81,0.04,4.21,0.07,7.02,0.15c-1.2,12.92-2.39,25.84-3.57,38.76
						c-4.09-0.01-6.14-0.01-10.24-0.01c-1-10.77-2-21.55-3-32.32c-0.04,0-0.06,0-0.09,0c-1,10.77-2.01,21.55-3.01,32.32
						c-4.1,0-6.14,0-10.24,0.01C167.64,202.56,166.45,189.61,165.26,176.66z"/>
					<path class="st8" d="M201.88,184.37c0.01-5.74,2.65-7.9,9.42-7.61c6.78,0.29,9.4,2.62,9.39,8.26
						c-0.02,9.27-0.03,13.9-0.06,23.16c-0.01,5.63-2.65,7.79-9.46,7.77c-6.76-0.02-9.34-2.23-9.33-7.97
						C201.86,198.54,201.87,193.82,201.88,184.37z M213.17,185.18c0-1.32-0.47-1.8-1.88-1.85c-1.41-0.05-1.88,0.34-1.88,1.72
						c-0.02,9.02-0.03,13.52-0.04,22.54c0,1.38,0.47,1.79,1.92,1.8c1.36,0.01,1.83-0.44,1.84-1.76
						C213.14,198.65,213.15,194.16,213.17,185.18z"/>
					<path class="st8" d="M225.09,177.87c3.59,0.22,5.39,0.34,8.98,0.6c7.85,0.57,9.95,2.65,9.93,9.48
						c-0.01,1.75-0.01,2.62-0.01,4.37c-0.06,4.86-1.29,6.66-4.95,7.24c0,0.04,0,0.07,0,0.11c3.94,1.09,4.83,2.21,4.91,6.1
						c-0.01,3.98-0.02,5.97-0.03,9.94c-2.89-0.02-4.34-0.03-7.23-0.04c0.01-4.24,0.02-6.36,0.03-10.59c0-1.61-0.79-2.19-3.23-2.26
						c-0.49-0.01-0.73-0.02-1.22-0.03c-0.02,5.14-0.02,7.72-0.04,12.86c-2.89-0.02-4.34-0.02-7.23-0.04
						C225.02,203.03,225.06,190.45,225.09,177.87z M232.28,196.35c0.56,0.02,0.85,0.03,1.41,0.06c2.49,0.1,3.05-0.48,3.06-3.09
						c0.01-2.22,0.01-3.33,0.02-5.55c0.01-1.94-0.65-2.82-2.25-2.91c-0.88-0.05-1.32-0.08-2.21-0.13
						C232.3,189.37,232.29,191.7,232.28,196.35z"/>
					<path class="st8" d="M248.25,179.64c2.89,0.27,4.34,0.4,7.22,0.7c-0.02,5.97-0.03,8.96-0.05,14.94
						c-0.02,0.04-0.03,0.06-0.05,0.1c0.04,0,0.06,0,0.09,0.01c1.88-5.9,2.81-8.81,4.69-14.55c3.09,0.33,4.64,0.51,7.73,0.88
						c-2.47,6.21-3.71,9.38-6.19,15.85c2.76,7.48,4.13,11.16,6.89,18.34c-3.12-0.03-4.68-0.04-7.79-0.07
						c-2.14-6.26-3.21-9.44-5.35-15.88c-0.04,0-0.06,0-0.09,0c0.02,0.04,0.03,0.07,0.05,0.11c-0.02,6.29-0.03,9.44-0.05,15.73
						c-2.89-0.02-4.34-0.03-7.23-0.05C248.18,203.7,248.21,191.67,248.25,179.64z"/>
					<path class="st8" d="M277.26,207.49c-0.01,2.73,0.28,3.18,2.15,3.24c1.59,0.05,2.16-0.42,2.16-1.84c0-1.41,0-2.11,0-3.52
						c0-1.95-0.32-2.31-3.04-3.22c-6.89-2.05-7.92-3.31-7.95-9.72c0-0.83,0-1.25,0.01-2.08c0.02-7.06,1.61-8.52,8.63-7.57
						c6.69,0.91,8.88,2.78,8.87,7.44c0,1.52,0,2.28,0,3.8c-2.56-0.27-3.84-0.4-6.41-0.65c0-0.62,0-0.94,0-1.56
						c0-2.78-0.23-3.15-1.91-3.35c-1.82-0.21-2.2,0.2-2.2,2.13c0,0.87,0,1.31,0,2.18c0,2.03,0.42,2.52,2.66,3.25
						c7.72,2.68,8.56,3.71,8.56,10.82c0,7.63-1.88,9.56-9.11,9.49c-7.37-0.06-9.15-1.75-9.13-8.76c0-1.12,0-1.68,0.01-2.79
						c2.68,0.12,4.02,0.19,6.7,0.32C277.26,206.06,277.26,206.54,277.26,207.49z"/>
				</g>
			</g>
		</g>
	</g>
</g>
</svg>
