<?xml version="1.0" encoding="utf-8"?>
<!-- Generator: Adobe Illustrator 27.9.0, SVG Export Plug-In . SVG Version: 6.00 Build 0)  -->
<svg version="1.1" id="Layer_1" xmlns="http://www.w3.org/2000/svg" xmlns:xlink="http://www.w3.org/1999/xlink" x="0px" y="0px"
	 viewBox="0 0 239.41 115.32" style="enable-background:new 0 0 239.41 115.32;" xml:space="preserve">
<style type="text/css">
	.st0{fill:#FFFFFF;}
</style>
<g>
	<polygon class="st0" points="55.76,19.14 53.83,16.54 34.27,42.45 38.57,42.45 	"/>
	<polygon class="st0" points="120.16,12.55 119.75,12.66 119.98,12.96 	"/>
	<polygon class="st0" points="156.94,6.74 154.62,9.88 175.95,38.48 178.76,35.34 	"/>
	<polygon class="st0" points="193.92,22.17 192.48,24.43 202.73,37.08 205.14,36.18 	"/>
	<rect x="53.31" y="28.16" class="st0" width="3.49" height="3.49"/>
	<rect x="57.47" y="28.16" class="st0" width="3.49" height="3.49"/>
	<rect x="53.31" y="32.18" class="st0" width="3.49" height="3.49"/>
	<rect x="57.47" y="32.18" class="st0" width="3.49" height="3.49"/>
	<rect x="149.8" y="21.13" class="st0" width="4.61" height="4.61"/>
	<rect x="155.3" y="21.13" class="st0" width="4.61" height="4.61"/>
	<rect x="149.8" y="26.44" class="st0" width="4.61" height="4.61"/>
	<rect x="155.3" y="26.44" class="st0" width="4.61" height="4.61"/>
	<rect x="190.63" y="29.18" class="st0" width="2.21" height="2.21"/>
	<rect x="193.26" y="29.18" class="st0" width="2.21" height="2.21"/>
	<rect x="190.63" y="31.72" class="st0" width="2.21" height="2.21"/>
	<rect x="193.26" y="31.72" class="st0" width="2.21" height="2.21"/>
	<path class="st0" d="M119.71,43.7c43.95,0,84.04,4.31,114.42,11.41c-27.12-10.59-68.31-17.35-114.42-17.35S32.41,44.52,5.28,55.11
		C35.67,48.02,75.76,43.7,119.71,43.7z"/>
	<rect x="9.34" y="106.01" class="st0" width="79.19" height="0.88"/>
	<rect x="150.89" y="106.01" class="st0" width="79.19" height="0.88"/>
	<path class="st0" d="M98.94,103.71v5.07c0,0.25,0.1,0.46,0.29,0.64c0.19,0.17,0.42,0.25,0.7,0.26h4.27c0.28-0.01,0.51-0.1,0.7-0.26
		c0.19-0.18,0.29-0.39,0.29-0.63v-5.07h2.09v5.43c0,0.62-0.24,1.15-0.72,1.58c-0.48,0.44-1.06,0.66-1.75,0.66h-5.5
		c-0.68,0-1.27-0.22-1.75-0.66c-0.48-0.44-0.72-0.96-0.72-1.58v-5.43H98.94z"/>
	<path class="st0" d="M121.47,103.71c0.71,0,1.3,0.23,1.79,0.68c0.49,0.45,0.74,1,0.74,1.64v0.03h-2.04l0.01-0.03
		c0-0.17-0.06-0.31-0.19-0.42c-0.12-0.12-0.27-0.18-0.47-0.17h-4.36c-0.18-0.01-0.33,0.05-0.46,0.17c-0.12,0.11-0.18,0.25-0.18,0.41
		c0,0.16,0.07,0.3,0.19,0.42c0.12,0.12,0.27,0.17,0.45,0.17c0.51,0,1.31,0,2.39-0.01c1.07-0.01,1.87-0.01,2.38,0
		c0.73,0,1.34,0.23,1.85,0.7c0.52,0.46,0.77,1.02,0.76,1.68c0,0.66-0.25,1.22-0.77,1.69c-0.5,0.46-1.11,0.69-1.84,0.69h-5.08
		c-0.72,0-1.33-0.23-1.85-0.69c-0.51-0.46-0.76-1.02-0.76-1.69h1.96v0.01c0,0.19,0.07,0.35,0.22,0.48c0.15,0.13,0.32,0.2,0.52,0.2
		h4.79c0.21-0.01,0.38-0.08,0.53-0.2c0.14-0.13,0.21-0.29,0.21-0.48c0-0.19-0.07-0.35-0.22-0.48c-0.15-0.13-0.32-0.2-0.52-0.2h-4.94
		c-0.7,0-1.3-0.23-1.79-0.68c-0.49-0.46-0.74-1-0.74-1.63c0-0.64,0.25-1.18,0.74-1.62c0.49-0.44,1.09-0.68,1.79-0.7H121.47z"/>
	<path class="st0" d="M137.7,103.71l4.87,7.67h-2.26l-1.06-1.68h-5.19l-1.07,1.68h-2.25l4.87-7.67H137.7z M135.09,108.08h3.12
		l-1.56-2.46L135.09,108.08z"/>
	<polygon class="st0" points="57.96,17.18 89.92,21.54 91.62,19.25 55.76,14.35 	"/>
	<polygon class="st0" points="57.96,17.18 89.92,21.54 91.62,19.25 55.76,14.35 	"/>
	<polygon class="st0" points="62.72,23.34 86.2,26.54 88.07,24.02 60.32,20.23 	"/>
	<polygon class="st0" points="62.72,23.34 86.2,26.54 88.07,24.02 60.32,20.23 	"/>
	<polygon class="st0" points="67.49,29.49 82.48,31.54 84.36,29.02 65.08,26.38 	"/>
	<polygon class="st0" points="67.49,29.49 82.48,31.54 84.36,29.02 65.08,26.38 	"/>
	<polygon class="st0" points="72.26,35.65 77.28,36.34 78.91,36.34 80.64,34.01 69.85,32.54 	"/>
	<polygon class="st0" points="72.26,35.65 77.28,36.34 78.91,36.34 80.64,34.01 69.85,32.54 	"/>
	<g>
		<path class="st0" d="M20.37,84.18c-0.13-0.04-0.41-0.1-1-0.1c-0.14,0-0.29,0-0.45,0.01l0.01,11.26l-9.68,0.1l0,0.62l10.23-0.11
			l-0.01-11.26c0.16-0.01,0.31-0.01,0.45-0.01c0.18,0,0.33,0.01,0.46,0.02l0-0.35L20.37,84.18z M129.57,64.28l-0.92-10.76l-0.5,0
			l1.21,14.16L129.57,64.28z M64.78,86.03c0.08,0.01,0.18,0.01,0.3,0.01c0.09,0,0.17,0,0.24-0.01l-0.07-21.26
			c0-0.13,0-0.22,0.01-0.28l0.2-0.03c0-0.41,0-0.64,0-0.65l-0.29,0.01c-0.22,0.01-0.36,0.03-0.46,0.05
			c-0.01,0.07-0.01,0.16-0.01,0.28l0.07,21.69L64.78,86.03z M31.12,72.63l-0.01-4.06c-0.01-2.67-0.35-5.22-2.04-6.84
			c1.22,1.61,1.49,3.87,1.49,6.22l0.01,4.06c-0.02,2.96-0.52,5.36-2.41,6.96c0.25,0.15,0.47,0.31,0.68,0.49
			C30.62,77.87,31.09,75.52,31.12,72.63z M19.46,75.4l-0.01-6.5l0.87-0.1l0.03,0c-0.01-0.35-0.05-0.54-0.08-0.62
			c-0.04-0.01-0.1-0.01-0.19-0.01c-0.09,0-0.19,0.01-0.3,0.02l-0.87,0.1l0.01,7.17C19.13,75.44,19.3,75.42,19.46,75.4z
			 M151.01,85.74L151.01,85.74l0.11,0l0.04-22.22c0-0.09,0-0.17,0.01-0.23l0.15,0l0.06,0l0-0.27c0-0.14-0.01-0.24-0.01-0.31
			c-0.08-0.02-0.22-0.03-0.42-0.04l-0.17,0l-0.15,0c0,0.06-0.01,0.14-0.01,0.23l-0.04,22.54c0,0.12,0,0.21,0.01,0.28
			C150.68,85.73,150.81,85.74,151.01,85.74z M42.31,86.49l0.14,0l0.15-0.01c-0.01-3.42-0.06-20.04-0.06-20.04
			c0-0.1,0-0.17,0.01-0.23l0.2-0.04c0-0.42,0-0.67,0-0.67l-0.25,0.02c-0.25,0.02-0.4,0.05-0.5,0.07c-0.01,0.06-0.01,0.13-0.01,0.23
			l0.06,20.65C42.12,86.49,42.2,86.49,42.31,86.49z M114.57,64.04l-0.63-10.54l-0.51,0.01l0.84,14L114.57,64.04z M174.13,64.2
			l-0.62-0.04l-0.03,8.59c0.15,0.01,0.27,0.01,0.39,0.01l0.16-0.01l0.02-7.98l0.62,0.04c0.09,0.01,0.17,0.01,0.25,0.02
			C174.83,64.24,174.58,64.22,174.13,64.2z M228.2,73.98l1.66,0.17l0-5.47c0-2.73-0.73-4.61-2.08-5.93
			c0.99,1.28,1.53,2.99,1.53,5.32l0,5.47l-1.66-0.17c-2.56-0.27-3.84-0.4-6.4-0.65l-0.13-0.01c0.73,0.26,1.39,0.51,2.01,0.76
			C224.88,73.64,226.13,73.76,228.2,73.98z M216.39,81.42c0.21,0.01,0.42,0.02,0.65,0.03L218,81.5l-0.23-0.08
			c-3.29-0.98-5.41-1.9-6.77-3.22C212.06,79.57,213.76,80.51,216.39,81.42z M219.37,72.08c-0.04-0.2-0.04-0.46-0.04-0.83l0-2.18
			c0-0.32,0.01-0.54,0.03-0.68c0.15,0,0.32,0.02,0.5,0.04l0.01,0c-0.01-0.23-0.03-0.42-0.06-0.54c-0.09-0.02-0.24-0.05-0.49-0.08
			c-0.19-0.02-0.36-0.04-0.5-0.04c-0.01,0.14-0.03,0.36-0.03,0.68l0,2.18C218.77,71.54,218.78,71.81,219.37,72.08z M196.67,63.67
			c0.13-0.41,0.33-1.02,0.56-1.71l0.01-4.52l-0.55-0.06L196.67,63.67z M219.04,87.07c-0.02-0.27-0.03-0.63-0.03-1.11l0.01-3.67
			c0.31,0.11,0.55,0.2,0.73,0.29c-0.08-0.41-0.34-0.58-1.28-0.9l0,0.43l0.07,0.02l-0.07,0l-0.01,3.22c0,1,0.04,1.47,0.09,1.69
			C218.65,87.04,218.81,87.06,219.04,87.07z M228.34,76.78c1.34,1.73,1.66,4.06,1.66,7.92c0,8.32-2.5,10.99-10.27,10.99l-0.35,0
			c-4.07-0.04-6.73-0.65-8.37-2.23c1.57,2.04,4.35,2.81,8.92,2.85l0.35,0c7.77,0,10.27-2.67,10.27-10.99
			C230.55,80.98,230.15,78.57,228.34,76.78z M185.21,65.8l-0.01,4.37c-0.04,3.23-0.58,5.79-2.59,7.32c0.24,0.16,0.46,0.33,0.66,0.51
			c1.92-1.54,2.44-4.05,2.48-7.21l0.01-4.37c0.01-3.79-0.66-6.35-2.36-8.06C184.7,60.05,185.22,62.45,185.21,65.8z M185.15,83.58
			l-0.04,11.49L175.43,95l0,0.61l10.23,0.06l0.04-11.49c-0.06-2.63-0.54-4.3-1.8-5.48C184.75,79.85,185.1,81.37,185.15,83.58z
			 M29.5,80.19c0.72,1,1.04,2.36,1.09,4.28l0.03,10.77l-9.68,0.09l0,0.62l10.23-0.1l-0.03-10.77C31.08,82.75,30.62,81.22,29.5,80.19
			z M203.57,76.03c2.4-6.25,3.61-9.36,5.98-15.31l0.72-1.81l-0.76-0.09L209,60.1c-2.37,5.95-3.58,9.06-5.98,15.31
			c2.68,7.29,4.04,10.88,6.69,17.79l0.79,2.06l-10.72-0.09l0.21,0.61l11.06,0.09l-0.79-2.06C207.61,86.91,206.26,83.32,203.57,76.03
			z M196.57,95.14l-9.68-0.07l0,0.61l10.23,0.07l0.02-7.35c-0.18-0.54-0.36-1.08-0.55-1.61L196.57,95.14z M161.9,62.87l-0.06,23.16
			c-0.02,6.49-3.27,9.26-10.87,9.26h-0.09c-4.02-0.01-6.8-0.82-8.55-2.54c1.68,2.15,4.63,3.15,9.1,3.16h0.09
			c7.6,0,10.86-2.77,10.87-9.26l0.06-23.16c0.01-3.1-0.73-5.38-2.32-6.96C161.34,58.07,161.91,60.15,161.9,62.87z M173.46,82.17
			l-0.04,12.82l-9.68-0.05l0,0.61l10.23,0.05l0.04-12.82c0.41,0.02,0.7,0.06,0.91,0.1c0-0.35-0.06-0.45-0.06-0.46
			C174.86,82.43,174.63,82.23,173.46,82.17z M74.35,57.17c1.1,1.41,1.64,3.37,1.64,5.91l0.06,23.02c0.02,6.48-3.25,9.26-10.91,9.29
			l-0.16,0c-4.03,0-6.81-0.78-8.53-2.47C58.1,95.03,61.04,96,65.53,96l0.16,0c7.66-0.04,10.93-2.82,10.91-9.29l-0.06-23.02
			C76.53,60.75,75.81,58.6,74.35,57.17z M94.05,70.41l-0.55,0.01l0.02,9.31c0,0-4.39,0.07-5.87,0.1l0.03,15.06l-9.68,0.04l0,0.62
			l10.23-0.04l-0.03-15.06c1.48-0.03,5.87-0.1,5.87-0.1L94.05,70.41z M140.17,54.74c-1.2,12.92-2.39,25.84-3.57,38.76l-0.13,1.36
			l-12.48-0.01l0.06,0.62l12.97,0.01l0.13-1.36c0.98-10.63,1.96-21.26,2.94-31.88v-0.01c0-1.04,0.09-1.98,0.26-2.83
			c0.12-1.34,0.25-2.69,0.37-4.03l0.15-1.6l-0.6-0.02L140.17,54.74z M51.72,58.95c1.02,1.32,1.52,3.16,1.53,5.55l0.07,22.04
			c0.02,7.85-5.5,8.95-10.9,8.98l-0.24,0c-3.2,0-6.45-0.38-8.5-2.38c1.98,2.54,5.54,3,9.04,3l0.24,0c5.41-0.04,10.93-1.13,10.9-8.98
			L53.8,65.11C53.79,62.32,53.11,60.29,51.72,58.95z M120.13,94.85l-12.48,0.01l0.06,0.62l12.98-0.01l1.44-15.48l-0.3-3.26
			L120.13,94.85z M94.03,53.93l0.02,9.31l-1.46,0.04c-2.04,0.06-3.28,0.1-4.99,0.16l0.01,6.49c0.19,0,0.37-0.01,0.55-0.01
			l-0.01-5.85c1.71-0.06,2.94-0.1,4.99-0.16l1.46-0.04l-0.02-9.94L94.03,53.93z"/>
		<path class="st0" d="M10.2,62.43c3.57-0.53,5.35-0.78,8.92-1.27c7.81-1.06,9.92,0.45,9.94,6.8c0,1.63,0.01,2.44,0.01,4.06
			c-0.04,4.52-1.25,6.33-4.91,7.2l0,0.1c3.94,0.61,4.83,1.59,4.94,5.19c0.01,3.7,0.01,5.55,0.02,9.24
			c-2.89,0.03-4.34,0.04-7.23,0.07c-0.01-3.78-0.01-5.68-0.02-9.46c0-1.44-0.8-1.89-3.24-1.76c-0.49,0.03-0.73,0.04-1.22,0.07
			c0.01,4.48,0.01,6.72,0.01,11.2c-2.89,0.03-4.34,0.05-7.23,0.08C10.2,83.44,10.2,72.94,10.2,62.43z M17.41,77.08
			c0.56-0.04,0.84-0.06,1.41-0.11c2.48-0.19,3.04-0.77,3.04-3.1c0-1.98-0.01-2.97-0.01-4.95c0-1.73-0.66-2.4-2.25-2.22
			c-0.88,0.1-1.32,0.15-2.2,0.25C17.4,71,17.41,73.02,17.41,77.08z"/>
		<path class="st0" d="M32.99,66.1c-0.01-5.09,2.6-7.38,9.35-8.09s9.39,1.13,9.41,6.49c0.03,8.82,0.04,13.22,0.07,22.04
			c0.02,5.36-2.61,7.43-9.41,7.48c-6.76,0.05-9.35-1.89-9.36-6.98C33.02,78.66,33.01,74.47,32.99,66.1z M44.24,65.52
			c0-1.22-0.47-1.61-1.88-1.48c-1.41,0.12-1.87,0.54-1.87,1.8c0.02,8.23,0.04,12.34,0.06,20.57c0,1.26,0.47,1.62,1.93,1.59
			c1.36-0.03,1.83-0.47,1.83-1.69C44.28,77.98,44.27,73.83,44.24,65.52z"/>
		<path class="st0" d="M55.7,64.21c-0.02-5.41,2.6-7.74,9.37-8.24c6.77-0.5,9.41,1.51,9.42,7.11c0.03,9.21,0.04,13.81,0.06,23.02
			c0.02,5.6-2.61,7.76-9.42,7.79c-6.76,0.03-9.35-2.03-9.37-7.44C55.74,77.55,55.72,73.11,55.7,64.21z M66.97,63.93
			c0-1.29-0.47-1.7-1.88-1.62c-1.41,0.09-1.88,0.51-1.87,1.84c0.03,8.68,0.04,13.02,0.07,21.69c0,1.33,0.47,1.71,1.93,1.69
			c1.36-0.02,1.83-0.48,1.83-1.76C67.01,77.04,67,72.67,66.97,63.93z"/>
		<path class="st0" d="M78.84,55.48c5.47-0.3,8.21-0.42,13.69-0.62c0.01,2.77,0.01,4.16,0.01,6.93c-2.58,0.08-3.87,0.12-6.44,0.22
			c0.01,3.79,0.01,5.68,0.02,9.47c2.35-0.06,3.53-0.09,5.88-0.15c0.01,2.77,0.01,4.16,0.01,6.93c-2.35,0.04-3.52,0.06-5.87,0.11
			c0.01,6.02,0.02,9.02,0.03,15.04c-2.89,0.01-4.34,0.02-7.23,0.03C78.91,80.78,78.88,68.13,78.84,55.48z"/>
		<path class="st0" d="M104.97,54.5c2.81-0.06,4.21-0.08,7.02-0.11c0.66,11.08,1.33,22.15,1.99,33.23l0.05,0
			c0.97-11.09,1.94-22.17,2.91-33.26c3.92-0.01,5.88-0.01,9.79,0.03c0.95,11.08,1.9,22.16,2.85,33.24l0.09,0
			c0.67-11.06,1.33-22.12,2-33.18c2.81,0.04,4.21,0.07,7.02,0.15c-1.2,12.92-2.39,25.84-3.57,38.76c-4.09-0.01-6.14-0.01-10.24-0.01
			c-1-10.77-2-21.55-3-32.32l-0.09,0c-1,10.77-2.01,21.55-3.01,32.32c-4.1,0-6.14,0-10.24,0.01
			C107.34,80.4,106.16,67.45,104.97,54.5z"/>
		<path class="st0" d="M141.59,62.22c0.01-5.74,2.65-7.9,9.42-7.61c6.78,0.29,9.4,2.62,9.39,8.26c-0.02,9.27-0.03,13.9-0.06,23.16
			c-0.01,5.63-2.65,7.79-9.46,7.77c-6.76-0.02-9.34-2.23-9.33-7.97C141.57,76.39,141.57,71.66,141.59,62.22z M152.88,63.02
			c0-1.32-0.47-1.8-1.88-1.85c-1.41-0.05-1.88,0.34-1.88,1.72c-0.02,9.02-0.03,13.52-0.04,22.54c0,1.38,0.47,1.79,1.92,1.8
			c1.36,0.01,1.83-0.44,1.84-1.76C152.85,76.49,152.86,72,152.88,63.02z"/>
		<path class="st0" d="M164.8,55.72c3.59,0.22,5.39,0.34,8.98,0.6c7.85,0.57,9.95,2.65,9.93,9.48c-0.01,1.75-0.01,2.62-0.01,4.37
			c-0.06,4.86-1.29,6.66-4.95,7.24l0,0.11c3.94,1.09,4.83,2.21,4.91,6.1c-0.01,3.98-0.02,5.97-0.03,9.94
			c-2.89-0.02-4.34-0.03-7.23-0.04c0.01-4.24,0.02-6.36,0.03-10.59c0-1.61-0.79-2.19-3.23-2.26c-0.49-0.01-0.73-0.02-1.22-0.03
			c-0.02,5.14-0.02,7.72-0.04,12.86c-2.89-0.02-4.34-0.02-7.23-0.04C164.73,80.87,164.76,68.3,164.8,55.72z M171.98,74.2
			c0.56,0.02,0.85,0.03,1.41,0.06c2.49,0.1,3.05-0.48,3.06-3.09c0.01-2.22,0.01-3.33,0.02-5.55c0.01-1.94-0.65-2.82-2.25-2.91
			c-0.88-0.05-1.32-0.08-2.21-0.13C172,67.22,172,69.54,171.98,74.2z"/>
		<path class="st0" d="M187.96,57.48c2.89,0.27,4.34,0.4,7.22,0.7c-0.02,5.97-0.03,8.96-0.05,14.94l-0.05,0.1l0.09,0.01
			c1.88-5.9,2.81-8.81,4.69-14.55c3.09,0.33,4.64,0.51,7.73,0.88c-2.47,6.21-3.71,9.38-6.19,15.85c2.76,7.48,4.13,11.16,6.89,18.34
			c-3.12-0.03-4.68-0.04-7.79-0.07c-2.14-6.26-3.21-9.44-5.35-15.88l-0.09,0l0.05,0.11c-0.02,6.29-0.03,9.44-0.05,15.73
			c-2.89-0.02-4.34-0.03-7.23-0.05C187.88,81.55,187.92,69.51,187.96,57.48z"/>
		<path class="st0" d="M216.97,85.34c-0.01,2.73,0.28,3.18,2.15,3.24c1.59,0.05,2.16-0.42,2.16-1.84c0-1.41,0-2.11,0-3.52
			c0-1.95-0.32-2.31-3.04-3.22c-6.89-2.05-7.92-3.31-7.95-9.72c0-0.83,0-1.25,0.01-2.08c0.02-7.06,1.61-8.52,8.63-7.57
			c6.69,0.91,8.88,2.78,8.87,7.44c0,1.52,0,2.28,0,3.8c-2.56-0.27-3.84-0.4-6.41-0.65c0-0.62,0-0.94,0-1.56
			c0-2.78-0.23-3.15-1.91-3.35c-1.82-0.21-2.2,0.2-2.2,2.13c0,0.87,0,1.31,0,2.18c0,2.03,0.42,2.52,2.66,3.25
			c7.72,2.68,8.56,3.71,8.56,10.82c0,7.63-1.88,9.56-9.11,9.49c-7.37-0.06-9.15-1.75-9.13-8.76c0-1.12,0-1.68,0.01-2.79
			c2.68,0.12,4.02,0.19,6.7,0.32C216.97,83.91,216.97,84.38,216.97,85.34z"/>
	</g>
	<polygon class="st0" points="181.74,36.34 181.94,36.06 181.56,36.11 	"/>
	<polygon class="st0" points="172.31,24.27 173.84,26.22 190.91,23.72 192.82,21.09 190.97,21.36 	"/>
	<polygon class="st0" points="177.7,31.17 186.43,29.89 188.69,26.77 175.75,28.67 	"/>
	<polygon class="st0" points="181.56,36.11 181.94,36.06 184.2,32.94 179.61,33.61 	"/>
	<g>
		<g>
			<path class="st0" d="M145.6,6.03l-0.33,0.93L149,7.15l-4.76,2.34l-1.66,3.69l-1.65-2.15l-4.77,2.09l3.75-3.67l-0.92-1.72
				l-34.22,8.77l0,0l2.44,0.12l-4.76,2.34l-1.66,3.69l-1.65-2.15l-4.76,2.09l3.75-3.67l-0.19-0.35l0,0l-0.19-0.27l-3.95,1.01
				L81.22,36.34l1.29-0.04l-0.08-0.16l3.96-0.12l3.97-3.58l-1.29,3.6l0.13,0.04l20.85-0.63l2.92-2.79l-0.98,2.73l18.34-0.56
				L153.8,3.93L145.6,6.03z M107.25,28.89l-1.66,3.69l-1.65-2.15l-4.77,2.09l3.75-3.67l-1.29-2.4l3.97-0.12l3.97-3.57l-1.29,3.6
				l3.73,0.19L107.25,28.89z M116.96,22.82l3.75-3.67l-1.29-2.4l3.96-0.12l3.97-3.58l-1.29,3.6l3.74,0.19l-4.76,2.34l-1.66,3.69
				l-1.65-2.15L116.96,22.82z M129.84,29.11l-1.66,3.69l-1.65-2.15l-4.77,2.09l3.75-3.67l-1.29-2.4l3.97-0.12l3.97-3.57l-1.29,3.6
				l3.73,0.19L129.84,29.11z"/>
		</g>
	</g>
</g>
</svg>
