<?xml version="1.0" encoding="utf-8"?>
<!-- Generator: Adobe Illustrator 27.9.0, SVG Export Plug-In . SVG Version: 6.00 Build 0)  -->
<svg version="1.1" id="Layer_1" xmlns="http://www.w3.org/2000/svg" xmlns:xlink="http://www.w3.org/1999/xlink" x="0px" y="0px"
	 viewBox="0 0 238.79 134.09" style="enable-background:new 0 0 238.79 134.09;" xml:space="preserve">
<style type="text/css">
	.st0{fill:url(#SVGID_1_);}
	.st1{fill:#9E1725;}
	.st2{fill:#FFFFFF;}
	.st3{fill:url(#SVGID_00000169541966047177618780000002270903507041057936_);}
	.st4{fill:url(#SVGID_00000093868171185528651030000011016189411974695597_);}
	.st5{fill:url(#SVGID_00000181792731691301646340000008438107531045002914_);}
	.st6{fill:url(#SVGID_00000136391860394173621590000005335646749685660085_);}
	.st7{fill:url(#SVGID_00000095318083044520853820000004418707421801460108_);}
	.st8{fill:#04164B;}
	.st9{fill:#B4B4B4;}
	.st10{fill:url(#SVGID_00000077301823475055389230000012698574357655395005_);}
	.st11{fill:url(#SVGID_00000128450732607022421260000012710189501923023540_);}
	.st12{fill:url(#SVGID_00000032606609372141333860000013165546162966307763_);}
	.st13{fill:url(#SVGID_00000122691428846098385710000008955936469947679404_);}
	.st14{fill:none;stroke:#B4B4B4;stroke-width:2.9663;}
	.st15{fill:none;stroke:#FFFFFF;stroke-width:2.9663;}
</style>
<g>
	<linearGradient id="SVGID_1_" gradientUnits="userSpaceOnUse" x1="80.2135" y1="21.6685" x2="152.7884" y2="21.6685">
		<stop  offset="0" style="stop-color:#194891"/>
		<stop  offset="0.6961" style="stop-color:#18234F"/>
	</linearGradient>
	<polygon class="st0" points="80.21,37.87 129.31,36.38 152.79,5.47 92.78,20.84 	"/>
	<polygon class="st1" points="54.75,20.68 52.83,18.07 33.26,43.99 37.56,43.99 	"/>
	<g>
		<polygon class="st2" points="135.15,14.66 139.92,12.57 141.57,14.72 143.23,11.03 147.99,8.68 144.26,8.49 144.59,7.57 
			141.78,8.29 141.58,8.47 141.02,8.48 137.98,9.26 138.9,10.99 		"/>
		<polygon class="st2" points="120.72,22.26 122.37,24.41 124.03,20.72 128.79,18.38 125.06,18.19 126.35,14.58 122.38,18.16 
			118.42,18.27 119.7,20.68 115.95,24.35 		"/>
		<polygon class="st2" points="127.18,28.09 123.22,28.2 124.5,30.61 120.75,34.28 125.52,32.19 127.17,34.34 128.83,30.65 
			133.59,28.31 129.86,28.11 131.16,24.51 		"/>
		<polygon class="st2" points="111.95,34.21 108.85,37 110.97,36.94 		"/>
		<polygon class="st2" points="119.16,14.08 118.74,14.19 118.97,14.5 		"/>
		<polygon class="st2" points="93.36,24.13 98.12,22.04 99.77,24.19 101.44,20.5 106.2,18.15 103.76,18.03 96.77,19.82 97.11,20.45 
					"/>
		<polygon class="st2" points="108.56,24.29 104.59,27.86 100.62,27.98 101.91,30.38 98.16,34.06 102.93,31.96 104.57,34.12 
			106.24,30.43 111,28.08 107.26,27.89 		"/>
		<polygon class="st2" points="89.36,33.98 85.39,37.56 81.42,37.67 81.51,37.83 88.65,37.61 88.06,37.58 		"/>
	</g>
	
		<linearGradient id="SVGID_00000029751051462281334780000016952571646475737756_" gradientUnits="userSpaceOnUse" x1="159.6983" y1="30.0559" x2="176.5135" y2="12.7406">
		<stop  offset="0.2822" style="stop-color:#18234F"/>
		<stop  offset="1" style="stop-color:#194891"/>
	</linearGradient>
	<polygon style="fill:url(#SVGID_00000029751051462281334780000016952571646475737756_);" points="155.93,8.28 153.61,11.42 
		174.94,40.02 177.75,36.88 	"/>
	<g>
		<polygon class="st2" points="174.74,30.2 187.68,28.31 189.9,25.25 172.83,27.75 		"/>
		<polygon class="st2" points="178.6,35.15 183.19,34.48 185.42,31.42 176.69,32.7 		"/>
		<polygon class="st2" points="180.73,37.87 180.93,37.59 180.55,37.65 		"/>
		
			<radialGradient id="SVGID_00000026143436285733589860000001091531714815737737_" cx="140.0197" cy="-9.0073" r="21.2131" gradientTransform="matrix(0.938 -0.1374 0.1967 0.9293 48.7205 59.4741)" gradientUnits="userSpaceOnUse">
			<stop  offset="0" style="stop-color:#9E1725"/>
			<stop  offset="0.5047" style="stop-color:#9F1725"/>
			<stop  offset="0.6895" style="stop-color:#A51926"/>
			<stop  offset="0.8216" style="stop-color:#AD1B26"/>
			<stop  offset="0.9281" style="stop-color:#BA1E26"/>
			<stop  offset="1" style="stop-color:#C62026"/>
		</radialGradient>
		<polygon style="fill:url(#SVGID_00000026143436285733589860000001091531714815737737_);" points="191.81,22.62 191.83,22.61 
			189.96,22.9 		"/>
		<polygon class="st2" points="171.3,25.8 172.83,27.75 189.9,25.25 191.81,22.62 189.96,22.9 		"/>
		
			<radialGradient id="SVGID_00000099644499237912249440000005964063188757425036_" cx="140.0197" cy="-9.0073" r="21.2131" gradientTransform="matrix(0.938 -0.1374 0.1967 0.9293 48.7205 59.4741)" gradientUnits="userSpaceOnUse">
			<stop  offset="0" style="stop-color:#9E1725"/>
			<stop  offset="0.5047" style="stop-color:#9F1725"/>
			<stop  offset="0.6895" style="stop-color:#A51926"/>
			<stop  offset="0.8216" style="stop-color:#AD1B26"/>
			<stop  offset="0.9281" style="stop-color:#BA1E26"/>
			<stop  offset="1" style="stop-color:#C62026"/>
		</radialGradient>
		<polygon style="fill:url(#SVGID_00000099644499237912249440000005964063188757425036_);" points="171.3,25.8 172.83,27.75 
			189.9,25.25 191.81,22.62 189.96,22.9 		"/>
		<polygon class="st2" points="176.69,32.7 185.42,31.42 187.68,28.31 174.74,30.2 		"/>
		
			<radialGradient id="SVGID_00000147917918007427330380000016206283826422015383_" cx="140.0197" cy="-9.0075" r="21.2131" gradientTransform="matrix(0.938 -0.1374 0.1967 0.9293 48.7205 59.4741)" gradientUnits="userSpaceOnUse">
			<stop  offset="0" style="stop-color:#9E1725"/>
			<stop  offset="0.5047" style="stop-color:#9F1725"/>
			<stop  offset="0.6895" style="stop-color:#A51926"/>
			<stop  offset="0.8216" style="stop-color:#AD1B26"/>
			<stop  offset="0.9281" style="stop-color:#BA1E26"/>
			<stop  offset="1" style="stop-color:#C62026"/>
		</radialGradient>
		<polygon style="fill:url(#SVGID_00000147917918007427330380000016206283826422015383_);" points="176.69,32.7 185.42,31.42 
			187.68,28.31 174.74,30.2 		"/>
		<polygon class="st2" points="180.55,37.65 180.93,37.59 183.19,34.48 178.6,35.15 		"/>
		
			<radialGradient id="SVGID_00000164488385638470571460000016402246029321175995_" cx="140.0197" cy="-9.0073" r="21.213" gradientTransform="matrix(0.938 -0.1374 0.1967 0.9293 48.7205 59.4741)" gradientUnits="userSpaceOnUse">
			<stop  offset="0" style="stop-color:#9E1725"/>
			<stop  offset="0.5047" style="stop-color:#9F1725"/>
			<stop  offset="0.6895" style="stop-color:#A51926"/>
			<stop  offset="0.8216" style="stop-color:#AD1B26"/>
			<stop  offset="0.9281" style="stop-color:#BA1E26"/>
			<stop  offset="1" style="stop-color:#C62026"/>
		</radialGradient>
		<polygon style="fill:url(#SVGID_00000164488385638470571460000016402246029321175995_);" points="180.55,37.65 180.93,37.59 
			183.19,34.48 178.6,35.15 		"/>
	</g>
	<polygon class="st1" points="192.91,23.7 191.47,25.97 201.72,38.61 204.13,37.71 	"/>
	<g>
		<rect x="52.3" y="29.69" class="st1" width="3.49" height="3.49"/>
		<rect x="56.46" y="29.69" class="st1" width="3.49" height="3.49"/>
		<rect x="52.3" y="33.72" class="st1" width="3.49" height="3.49"/>
		<rect x="56.46" y="33.72" class="st1" width="3.49" height="3.49"/>
	</g>
	<g>
		<rect x="148.8" y="22.66" class="st8" width="4.61" height="4.61"/>
		<rect x="154.29" y="22.66" class="st8" width="4.61" height="4.61"/>
		<rect x="148.8" y="27.98" class="st8" width="4.61" height="4.61"/>
		<rect x="154.29" y="27.98" class="st8" width="4.61" height="4.61"/>
	</g>
	<g>
		<rect x="189.62" y="30.71" class="st1" width="2.21" height="2.21"/>
		<rect x="192.25" y="30.71" class="st1" width="2.21" height="2.21"/>
		<rect x="189.62" y="33.26" class="st1" width="2.21" height="2.21"/>
		<rect x="192.25" y="33.26" class="st1" width="2.21" height="2.21"/>
	</g>
	<path class="st1" d="M118.7,45.24c43.95,0,84.04,4.31,114.42,11.41C206,46.05,164.81,39.29,118.7,39.29S31.4,46.05,4.27,56.65
		C34.66,49.55,74.75,45.24,118.7,45.24z"/>
	<g>
		<g>
			<rect x="8.33" y="107.54" class="st9" width="79.19" height="0.88"/>
		</g>
		<g>
			<rect x="149.88" y="107.54" class="st9" width="79.19" height="0.88"/>
		</g>
		<g>
			<path class="st1" d="M97.93,105.25v5.07c0,0.25,0.1,0.46,0.29,0.64c0.19,0.17,0.42,0.25,0.7,0.26h4.27
				c0.28-0.01,0.51-0.1,0.7-0.26c0.19-0.18,0.29-0.39,0.29-0.63v-5.07h2.09v5.43c0,0.62-0.23,1.15-0.72,1.58
				c-0.48,0.44-1.06,0.66-1.75,0.66h-5.5c-0.68,0-1.27-0.22-1.75-0.66c-0.48-0.44-0.72-0.96-0.72-1.58v-5.43H97.93z"/>
			<path class="st1" d="M120.46,105.25c0.71,0,1.3,0.23,1.79,0.68c0.49,0.45,0.74,1,0.74,1.64v0.03h-2.04
				c0.01-0.02,0.01-0.03,0.01-0.03c0-0.17-0.06-0.31-0.19-0.42c-0.12-0.12-0.27-0.18-0.47-0.17h-4.36
				c-0.18-0.01-0.33,0.05-0.46,0.17c-0.12,0.11-0.18,0.25-0.18,0.41c0,0.16,0.07,0.3,0.19,0.42c0.12,0.12,0.27,0.17,0.45,0.17
				c0.51,0,1.31,0,2.39-0.01c1.07-0.01,1.87-0.01,2.38,0c0.73,0,1.34,0.23,1.85,0.7c0.52,0.46,0.77,1.02,0.76,1.68
				c0,0.66-0.25,1.22-0.77,1.69c-0.5,0.46-1.11,0.69-1.84,0.69h-5.08c-0.72,0-1.33-0.23-1.85-0.69c-0.51-0.46-0.76-1.02-0.76-1.69
				h1.96v0.01c0,0.19,0.07,0.35,0.22,0.48c0.15,0.13,0.32,0.2,0.52,0.2h4.79c0.21-0.01,0.38-0.08,0.53-0.2
				c0.14-0.13,0.21-0.29,0.21-0.48c0-0.19-0.07-0.35-0.22-0.48c-0.15-0.13-0.32-0.2-0.52-0.2h-4.94c-0.7,0-1.3-0.23-1.79-0.68
				c-0.49-0.46-0.74-1-0.74-1.63c0-0.64,0.25-1.18,0.74-1.62c0.49-0.44,1.09-0.68,1.79-0.7H120.46z"/>
			<path class="st1" d="M136.69,105.25l4.87,7.67h-2.26l-1.06-1.68h-5.19l-1.07,1.68h-2.25l4.87-7.67H136.69z M134.08,109.62h3.12
				l-1.56-2.46L134.08,109.62z"/>
		</g>
	</g>
	<g>
		<polygon class="st2" points="64.08,27.92 83.35,30.55 85.19,28.08 61.71,24.87 		"/>
		<polygon class="st2" points="68.84,34.07 79.63,35.55 81.47,33.07 66.48,31.03 		"/>
		<polygon class="st2" points="59.31,21.76 87.06,25.55 88.91,23.08 56.95,18.71 		"/>
		<polygon class="st2" points="71.78,37.87 76.27,37.87 71.25,37.18 		"/>
		<polygon class="st2" points="56.95,18.71 88.91,23.08 90.61,20.79 54.75,15.88 		"/>
		
			<radialGradient id="SVGID_00000023975358081412695630000001890334253543386512_" cx="162.5331" cy="24.1496" r="21.2131" gradientTransform="matrix(0.9393 0.1283 -0.0689 0.9474 -77.3564 -23.3361)" gradientUnits="userSpaceOnUse">
			<stop  offset="0" style="stop-color:#9E1725"/>
			<stop  offset="0.5047" style="stop-color:#9F1725"/>
			<stop  offset="0.6895" style="stop-color:#A51926"/>
			<stop  offset="0.8216" style="stop-color:#AD1B26"/>
			<stop  offset="0.9281" style="stop-color:#BA1E26"/>
			<stop  offset="1" style="stop-color:#C62026"/>
		</radialGradient>
		<polygon style="fill:url(#SVGID_00000023975358081412695630000001890334253543386512_);" points="56.95,18.71 88.91,23.08 
			90.61,20.79 54.75,15.88 		"/>
		<polygon class="st2" points="61.71,24.87 85.19,28.08 87.06,25.55 59.31,21.76 		"/>
		
			<radialGradient id="SVGID_00000060748965839751870520000001686472197846212532_" cx="162.5331" cy="24.1499" r="21.213" gradientTransform="matrix(0.9393 0.1283 -0.0689 0.9474 -77.3564 -23.3361)" gradientUnits="userSpaceOnUse">
			<stop  offset="0" style="stop-color:#9E1725"/>
			<stop  offset="0.5047" style="stop-color:#9F1725"/>
			<stop  offset="0.6895" style="stop-color:#A51926"/>
			<stop  offset="0.8216" style="stop-color:#AD1B26"/>
			<stop  offset="0.9281" style="stop-color:#BA1E26"/>
			<stop  offset="1" style="stop-color:#C62026"/>
		</radialGradient>
		<polygon style="fill:url(#SVGID_00000060748965839751870520000001686472197846212532_);" points="61.71,24.87 85.19,28.08 
			87.06,25.55 59.31,21.76 		"/>
		<polygon class="st2" points="66.48,31.03 81.47,33.07 83.35,30.55 64.08,27.92 		"/>
		
			<radialGradient id="SVGID_00000160880839337296903500000016876151799090664581_" cx="162.5331" cy="24.1502" r="21.2128" gradientTransform="matrix(0.9393 0.1283 -0.0689 0.9474 -77.3564 -23.3361)" gradientUnits="userSpaceOnUse">
			<stop  offset="0" style="stop-color:#9E1725"/>
			<stop  offset="0.5047" style="stop-color:#9F1725"/>
			<stop  offset="0.6895" style="stop-color:#A51926"/>
			<stop  offset="0.8216" style="stop-color:#AD1B26"/>
			<stop  offset="0.9281" style="stop-color:#BA1E26"/>
			<stop  offset="1" style="stop-color:#C62026"/>
		</radialGradient>
		<polygon style="fill:url(#SVGID_00000160880839337296903500000016876151799090664581_);" points="66.48,31.03 81.47,33.07 
			83.35,30.55 64.08,27.92 		"/>
		<polygon class="st2" points="71.25,37.18 76.27,37.87 77.9,37.87 79.63,35.55 68.84,34.07 		"/>
		
			<radialGradient id="SVGID_00000033356852812073301890000001429046415619097737_" cx="162.5331" cy="24.1505" r="21.2127" gradientTransform="matrix(0.9393 0.1283 -0.0689 0.9474 -77.3564 -23.3361)" gradientUnits="userSpaceOnUse">
			<stop  offset="0" style="stop-color:#9E1725"/>
			<stop  offset="0.5047" style="stop-color:#9F1725"/>
			<stop  offset="0.6895" style="stop-color:#A51926"/>
			<stop  offset="0.8216" style="stop-color:#AD1B26"/>
			<stop  offset="0.9281" style="stop-color:#BA1E26"/>
			<stop  offset="1" style="stop-color:#C62026"/>
		</radialGradient>
		<polygon style="fill:url(#SVGID_00000033356852812073301890000001429046415619097737_);" points="71.25,37.18 76.27,37.87 
			77.9,37.87 79.63,35.55 68.84,34.07 		"/>
	</g>
	<g>
		<g>
			<g>
				<path class="st9" d="M9.9,64.39c3.57-0.51,5.35-0.76,8.92-1.23c7.81-1.03,9.92,0.49,9.94,6.85c0,1.63,0.01,2.44,0.01,4.07
					c-0.04,4.53-1.25,6.34-4.91,7.21c0,0.04,0,0.06,0,0.1c3.94,0.62,4.83,1.61,4.94,5.22c0.01,3.71,0.01,5.56,0.02,9.27
					c-2.89,0.02-4.34,0.03-7.23,0.05c-0.01-3.79-0.01-5.69-0.02-9.48c0-1.44-0.8-1.9-3.24-1.78c-0.49,0.02-0.73,0.04-1.22,0.06
					c0.01,4.49,0.01,6.74,0.02,11.23c-2.89,0.02-4.34,0.03-7.23,0.05C9.9,85.47,9.9,74.93,9.9,64.39z M17.11,79.11
					c0.56-0.04,0.84-0.06,1.41-0.1c2.48-0.18,3.04-0.76,3.04-3.1c0-1.99-0.01-2.98-0.01-4.96c0-1.74-0.66-2.41-2.25-2.24
					c-0.88,0.1-1.32,0.15-2.2,0.24C17.1,73.02,17.11,75.05,17.11,79.11z"/>
				<path class="st9" d="M32.69,68.16c-0.01-5.1,2.6-7.39,9.35-8.08s9.39,1.16,9.41,6.53c0.03,8.83,0.04,13.25,0.07,22.08
					c0.02,5.37-2.61,7.44-9.41,7.47c-6.76,0.03-9.35-1.91-9.36-7.02C32.73,80.75,32.72,76.55,32.69,68.16z M43.95,67.61
					c0-1.22-0.47-1.61-1.88-1.49c-1.41,0.12-1.87,0.53-1.87,1.8c0.03,8.24,0.04,12.37,0.06,20.61c0,1.27,0.47,1.62,1.93,1.59
					c1.36-0.03,1.83-0.46,1.83-1.69C43.99,80.11,43.97,75.94,43.95,67.61z"/>
				<path class="st9" d="M55.4,66.34c-0.02-5.42,2.6-7.74,9.37-8.23c6.77-0.48,9.41,1.54,9.42,7.14c0.02,9.22,0.04,13.82,0.06,23.04
					c0.02,5.6-2.61,7.76-9.42,7.78c-6.76,0.02-9.35-2.05-9.37-7.46C55.44,79.7,55.43,75.25,55.4,66.34z M66.67,66.09
					c0-1.29-0.47-1.71-1.88-1.62c-1.41,0.08-1.88,0.5-1.87,1.84c0.03,8.69,0.04,13.03,0.07,21.72c0,1.33,0.47,1.71,1.93,1.69
					c1.36-0.02,1.83-0.47,1.83-1.76C66.71,79.21,66.7,74.84,66.67,66.09z"/>
				<path class="st9" d="M78.55,57.65c5.47-0.29,8.21-0.41,13.69-0.6c0,2.77,0.01,4.16,0.01,6.94c-2.58,0.07-3.87,0.12-6.44,0.21
					c0.01,3.79,0.01,5.69,0.02,9.48c2.35-0.06,3.53-0.09,5.88-0.14c0,2.77,0.01,4.16,0.01,6.93c-2.35,0.04-3.52,0.06-5.87,0.1
					c0.01,6.02,0.02,9.03,0.03,15.05c-2.89,0.01-4.34,0.01-7.23,0.02C78.61,82.98,78.58,70.31,78.55,57.65z"/>
				<path class="st9" d="M104.67,56.72c2.81-0.05,4.21-0.07,7.02-0.1c0.66,11.08,1.33,22.15,1.99,33.23c0.02,0,0.03,0,0.05,0
					c0.97-11.09,1.94-22.17,2.91-33.26c3.92-0.01,5.88,0,9.79,0.04c0.95,11.08,1.9,22.16,2.85,33.24c0.04,0,0.06,0,0.09,0
					c0.67-11.06,1.33-22.11,2-33.17c2.81,0.05,4.21,0.08,7.02,0.15c-1.2,12.91-2.39,25.83-3.57,38.74c-4.09,0-6.14-0.01-10.24-0.01
					c-1-10.77-2-21.55-3-32.32c-0.04,0-0.06,0-0.09,0c-1.01,10.77-2.01,21.55-3.01,32.32c-4.1,0-6.14,0-10.24,0
					C107.05,82.63,105.86,69.67,104.67,56.72z"/>
				<path class="st9" d="M141.29,64.46c0.01-5.74,2.65-7.89,9.42-7.6c6.78,0.29,9.4,2.62,9.39,8.25
					c-0.02,9.26-0.04,13.89-0.06,23.14c-0.01,5.63-2.65,7.78-9.46,7.77c-6.76-0.01-9.34-2.22-9.33-7.96
					C141.27,78.62,141.28,73.9,141.29,64.46z M152.58,65.26c0-1.32-0.47-1.8-1.88-1.85c-1.41-0.05-1.88,0.34-1.88,1.72
					c-0.02,9.01-0.03,13.52-0.04,22.53c0,1.38,0.47,1.79,1.92,1.8c1.36,0.01,1.83-0.44,1.84-1.76
					C152.55,78.73,152.56,74.24,152.58,65.26z"/>
				<path class="st9" d="M164.5,57.97c3.59,0.22,5.39,0.33,8.98,0.59c7.85,0.56,9.95,2.64,9.93,9.46c-0.01,1.75-0.01,2.62-0.01,4.36
					c-0.06,4.85-1.29,6.65-4.95,7.23c0,0.04,0,0.07,0,0.11c3.94,1.08,4.83,2.2,4.91,6.08c-0.01,3.97-0.02,5.96-0.03,9.93
					c-2.89-0.01-4.34-0.02-7.23-0.03c0.01-4.23,0.02-6.35,0.03-10.58c0-1.61-0.79-2.18-3.23-2.25c-0.49-0.01-0.73-0.02-1.22-0.03
					c-0.02,5.14-0.02,7.71-0.04,12.84c-2.89-0.01-4.34-0.02-7.23-0.03C164.43,83.09,164.46,70.53,164.5,57.97z M171.68,76.42
					c0.56,0.02,0.85,0.03,1.41,0.05c2.49,0.1,3.05-0.49,3.06-3.09c0.01-2.22,0.01-3.32,0.02-5.54c0.01-1.94-0.65-2.81-2.25-2.91
					c-0.88-0.05-1.32-0.08-2.21-0.13C171.7,69.45,171.7,71.77,171.68,76.42z"/>
				<path class="st9" d="M187.66,59.71c2.89,0.26,4.34,0.4,7.22,0.69c-0.02,5.96-0.03,8.94-0.05,14.91
					c-0.02,0.04-0.03,0.06-0.05,0.1c0.04,0,0.06,0,0.09,0.01c1.88-5.89,2.81-8.8,4.69-14.53c3.09,0.33,4.64,0.5,7.73,0.86
					c-2.47,6.2-3.71,9.37-6.18,15.83c2.76,7.46,4.13,11.13,6.89,18.29c-3.12-0.02-4.68-0.03-7.79-0.05
					c-2.14-6.24-3.21-9.41-5.35-15.84c-0.04,0-0.06,0-0.09,0c0.02,0.04,0.03,0.06,0.05,0.11c-0.02,6.28-0.03,9.42-0.05,15.7
					c-2.89-0.02-4.34-0.02-7.23-0.04C187.58,83.74,187.62,71.73,187.66,59.71z"/>
				<path class="st9" d="M216.67,87.46c0,2.72,0.28,3.17,2.15,3.23c1.59,0.04,2.16-0.43,2.16-1.84c0-1.4,0-2.1,0-3.51
					c0-1.95-0.32-2.3-3.04-3.2c-6.89-2.03-7.92-3.29-7.95-9.68c0-0.83,0-1.25,0-2.08c0.02-7.04,1.61-8.5,8.63-7.57
					c6.69,0.89,8.88,2.76,8.87,7.4c0,1.52,0,2.28,0,3.79c-2.56-0.26-3.84-0.39-6.41-0.64c0-0.62,0-0.93,0-1.56
					c0-2.77-0.23-3.14-1.91-3.33c-1.82-0.21-2.2,0.2-2.2,2.13c0,0.87,0,1.31,0,2.18c0,2.03,0.42,2.51,2.66,3.24
					c7.72,2.66,8.56,3.68,8.56,10.77c0,7.61-1.88,9.53-9.11,9.49c-7.37-0.04-9.15-1.72-9.13-8.72c0-1.12,0-1.67,0.01-2.79
					c2.68,0.12,4.02,0.18,6.7,0.31C216.67,86.04,216.67,86.51,216.67,87.46z"/>
				<path class="st14" d="M9.9,64.39c3.57-0.51,5.35-0.76,8.92-1.23c7.81-1.03,9.92,0.49,9.94,6.85c0,1.63,0.01,2.44,0.01,4.07
					c-0.04,4.53-1.25,6.34-4.91,7.21c0,0.04,0,0.06,0,0.1c3.94,0.62,4.83,1.61,4.94,5.22c0.01,3.71,0.01,5.56,0.02,9.27
					c-2.89,0.02-4.34,0.03-7.23,0.05c-0.01-3.79-0.01-5.69-0.02-9.48c0-1.44-0.8-1.9-3.24-1.78c-0.49,0.02-0.73,0.04-1.22,0.06
					c0.01,4.49,0.01,6.74,0.02,11.23c-2.89,0.02-4.34,0.03-7.23,0.05C9.9,85.47,9.9,74.93,9.9,64.39z M17.11,79.11
					c0.56-0.04,0.84-0.06,1.41-0.1c2.48-0.18,3.04-0.76,3.04-3.1c0-1.99-0.01-2.98-0.01-4.96c0-1.74-0.66-2.41-2.25-2.24
					c-0.88,0.1-1.32,0.15-2.2,0.24C17.1,73.02,17.11,75.05,17.11,79.11z"/>
				<path class="st14" d="M32.69,68.16c-0.01-5.1,2.6-7.39,9.35-8.08s9.39,1.16,9.41,6.53c0.03,8.83,0.04,13.25,0.07,22.08
					c0.02,5.37-2.61,7.44-9.41,7.47c-6.76,0.03-9.35-1.91-9.36-7.02C32.73,80.75,32.72,76.55,32.69,68.16z M43.95,67.61
					c0-1.22-0.47-1.61-1.88-1.49c-1.41,0.12-1.87,0.53-1.87,1.8c0.03,8.24,0.04,12.37,0.06,20.61c0,1.27,0.47,1.62,1.93,1.59
					c1.36-0.03,1.83-0.46,1.83-1.69C43.99,80.11,43.97,75.94,43.95,67.61z"/>
				<path class="st14" d="M55.4,66.34c-0.02-5.42,2.6-7.74,9.37-8.23c6.77-0.48,9.41,1.54,9.42,7.14
					c0.02,9.22,0.04,13.82,0.06,23.04c0.02,5.6-2.61,7.76-9.42,7.78c-6.76,0.02-9.35-2.05-9.37-7.46
					C55.44,79.7,55.43,75.25,55.4,66.34z M66.67,66.09c0-1.29-0.47-1.71-1.88-1.62c-1.41,0.08-1.88,0.5-1.87,1.84
					c0.03,8.69,0.04,13.03,0.07,21.72c0,1.33,0.47,1.71,1.93,1.69c1.36-0.02,1.83-0.47,1.83-1.76
					C66.71,79.21,66.7,74.84,66.67,66.09z"/>
				<path class="st14" d="M78.55,57.65c5.47-0.29,8.21-0.41,13.69-0.6c0,2.77,0.01,4.16,0.01,6.94c-2.58,0.07-3.87,0.12-6.44,0.21
					c0.01,3.79,0.01,5.69,0.02,9.48c2.35-0.06,3.53-0.09,5.88-0.14c0,2.77,0.01,4.16,0.01,6.93c-2.35,0.04-3.52,0.06-5.87,0.1
					c0.01,6.02,0.02,9.03,0.03,15.05c-2.89,0.01-4.34,0.01-7.23,0.02C78.61,82.98,78.58,70.31,78.55,57.65z"/>
				<path class="st14" d="M104.67,56.72c2.81-0.05,4.21-0.07,7.02-0.1c0.66,11.08,1.33,22.15,1.99,33.23c0.02,0,0.03,0,0.05,0
					c0.97-11.09,1.94-22.17,2.91-33.26c3.92-0.01,5.88,0,9.79,0.04c0.95,11.08,1.9,22.16,2.85,33.24c0.04,0,0.06,0,0.09,0
					c0.67-11.06,1.33-22.11,2-33.17c2.81,0.05,4.21,0.08,7.02,0.15c-1.2,12.91-2.39,25.83-3.57,38.74c-4.09,0-6.14-0.01-10.24-0.01
					c-1-10.77-2-21.55-3-32.32c-0.04,0-0.06,0-0.09,0c-1.01,10.77-2.01,21.55-3.01,32.32c-4.1,0-6.14,0-10.24,0
					C107.05,82.63,105.86,69.67,104.67,56.72z"/>
				<path class="st14" d="M141.29,64.46c0.01-5.74,2.65-7.89,9.42-7.6c6.78,0.29,9.4,2.62,9.39,8.25
					c-0.02,9.26-0.04,13.89-0.06,23.14c-0.01,5.63-2.65,7.78-9.46,7.77c-6.76-0.01-9.34-2.22-9.33-7.96
					C141.27,78.62,141.28,73.9,141.29,64.46z M152.58,65.26c0-1.32-0.47-1.8-1.88-1.85c-1.41-0.05-1.88,0.34-1.88,1.72
					c-0.02,9.01-0.03,13.52-0.04,22.53c0,1.38,0.47,1.79,1.92,1.8c1.36,0.01,1.83-0.44,1.84-1.76
					C152.55,78.73,152.56,74.24,152.58,65.26z"/>
				<path class="st14" d="M164.5,57.97c3.59,0.22,5.39,0.33,8.98,0.59c7.85,0.56,9.95,2.64,9.93,9.46
					c-0.01,1.75-0.01,2.62-0.01,4.36c-0.06,4.85-1.29,6.65-4.95,7.23c0,0.04,0,0.07,0,0.11c3.94,1.08,4.83,2.2,4.91,6.08
					c-0.01,3.97-0.02,5.96-0.03,9.93c-2.89-0.01-4.34-0.02-7.23-0.03c0.01-4.23,0.02-6.35,0.03-10.58c0-1.61-0.79-2.18-3.23-2.25
					c-0.49-0.01-0.73-0.02-1.22-0.03c-0.02,5.14-0.02,7.71-0.04,12.84c-2.89-0.01-4.34-0.02-7.23-0.03
					C164.43,83.09,164.46,70.53,164.5,57.97z M171.68,76.42c0.56,0.02,0.85,0.03,1.41,0.05c2.49,0.1,3.05-0.49,3.06-3.09
					c0.01-2.22,0.01-3.32,0.02-5.54c0.01-1.94-0.65-2.81-2.25-2.91c-0.88-0.05-1.32-0.08-2.21-0.13
					C171.7,69.45,171.7,71.77,171.68,76.42z"/>
				<path class="st14" d="M187.66,59.71c2.89,0.26,4.34,0.4,7.22,0.69c-0.02,5.96-0.03,8.94-0.05,14.91
					c-0.02,0.04-0.03,0.06-0.05,0.1c0.04,0,0.06,0,0.09,0.01c1.88-5.89,2.81-8.8,4.69-14.53c3.09,0.33,4.64,0.5,7.73,0.86
					c-2.47,6.2-3.71,9.37-6.18,15.83c2.76,7.46,4.13,11.13,6.89,18.29c-3.12-0.02-4.68-0.03-7.79-0.05
					c-2.14-6.24-3.21-9.41-5.35-15.84c-0.04,0-0.06,0-0.09,0c0.02,0.04,0.03,0.06,0.05,0.11c-0.02,6.28-0.03,9.42-0.05,15.7
					c-2.89-0.02-4.34-0.02-7.23-0.04C187.58,83.74,187.62,71.73,187.66,59.71z"/>
				<path class="st14" d="M216.67,87.46c0,2.72,0.28,3.17,2.15,3.23c1.59,0.04,2.16-0.43,2.16-1.84c0-1.4,0-2.1,0-3.51
					c0-1.95-0.32-2.3-3.04-3.2c-6.89-2.03-7.92-3.29-7.95-9.68c0-0.83,0-1.25,0-2.08c0.02-7.04,1.61-8.5,8.63-7.57
					c6.69,0.89,8.88,2.76,8.87,7.4c0,1.52,0,2.28,0,3.79c-2.56-0.26-3.84-0.39-6.41-0.64c0-0.62,0-0.93,0-1.56
					c0-2.77-0.23-3.14-1.91-3.33c-1.82-0.21-2.2,0.2-2.2,2.13c0,0.87,0,1.31,0,2.18c0,2.03,0.42,2.51,2.66,3.24
					c7.72,2.66,8.56,3.68,8.56,10.77c0,7.61-1.88,9.53-9.11,9.49c-7.37-0.04-9.15-1.72-9.13-8.72c0-1.12,0-1.67,0.01-2.79
					c2.68,0.12,4.02,0.18,6.7,0.31C216.67,86.04,216.67,86.51,216.67,87.46z"/>
				<path class="st9" d="M9.9,64.39c3.57-0.51,5.35-0.76,8.92-1.23c7.81-1.03,9.92,0.49,9.94,6.85c0,1.63,0.01,2.44,0.01,4.07
					c-0.04,4.53-1.25,6.34-4.91,7.21c0,0.04,0,0.06,0,0.1c3.94,0.62,4.83,1.61,4.94,5.22c0.01,3.71,0.01,5.56,0.02,9.27
					c-2.89,0.02-4.34,0.03-7.23,0.05c-0.01-3.79-0.01-5.69-0.02-9.48c0-1.44-0.8-1.9-3.24-1.78c-0.49,0.02-0.73,0.04-1.22,0.06
					c0.01,4.49,0.01,6.74,0.02,11.23c-2.89,0.02-4.34,0.03-7.23,0.05C9.9,85.47,9.9,74.93,9.9,64.39z M17.11,79.11
					c0.56-0.04,0.84-0.06,1.41-0.1c2.48-0.18,3.04-0.76,3.04-3.1c0-1.99-0.01-2.98-0.01-4.96c0-1.74-0.66-2.41-2.25-2.24
					c-0.88,0.1-1.32,0.15-2.2,0.24C17.1,73.02,17.11,75.05,17.11,79.11z"/>
				<path class="st9" d="M32.69,68.16c-0.01-5.1,2.6-7.39,9.35-8.08s9.39,1.16,9.41,6.53c0.03,8.83,0.04,13.25,0.07,22.08
					c0.02,5.37-2.61,7.44-9.41,7.47c-6.76,0.03-9.35-1.91-9.36-7.02C32.73,80.75,32.72,76.55,32.69,68.16z M43.95,67.61
					c0-1.22-0.47-1.61-1.88-1.49c-1.41,0.12-1.87,0.53-1.87,1.8c0.03,8.24,0.04,12.37,0.06,20.61c0,1.27,0.47,1.62,1.93,1.59
					c1.36-0.03,1.83-0.46,1.83-1.69C43.99,80.11,43.97,75.94,43.95,67.61z"/>
				<path class="st9" d="M55.4,66.34c-0.02-5.42,2.6-7.74,9.37-8.23c6.77-0.48,9.41,1.54,9.42,7.14c0.02,9.22,0.04,13.82,0.06,23.04
					c0.02,5.6-2.61,7.76-9.42,7.78c-6.76,0.02-9.35-2.05-9.37-7.46C55.44,79.7,55.43,75.25,55.4,66.34z M66.67,66.09
					c0-1.29-0.47-1.71-1.88-1.62c-1.41,0.08-1.88,0.5-1.87,1.84c0.03,8.69,0.04,13.03,0.07,21.72c0,1.33,0.47,1.71,1.93,1.69
					c1.36-0.02,1.83-0.47,1.83-1.76C66.71,79.21,66.7,74.84,66.67,66.09z"/>
				<path class="st9" d="M78.55,57.65c5.47-0.29,8.21-0.41,13.69-0.6c0,2.77,0.01,4.16,0.01,6.94c-2.58,0.07-3.87,0.12-6.44,0.21
					c0.01,3.79,0.01,5.69,0.02,9.48c2.35-0.06,3.53-0.09,5.88-0.14c0,2.77,0.01,4.16,0.01,6.93c-2.35,0.04-3.52,0.06-5.87,0.1
					c0.01,6.02,0.02,9.03,0.03,15.05c-2.89,0.01-4.34,0.01-7.23,0.02C78.61,82.98,78.58,70.31,78.55,57.65z"/>
				<path class="st9" d="M104.67,56.72c2.81-0.05,4.21-0.07,7.02-0.1c0.66,11.08,1.33,22.15,1.99,33.23c0.02,0,0.03,0,0.05,0
					c0.97-11.09,1.94-22.17,2.91-33.26c3.92-0.01,5.88,0,9.79,0.04c0.95,11.08,1.9,22.16,2.85,33.24c0.04,0,0.06,0,0.09,0
					c0.67-11.06,1.33-22.11,2-33.17c2.81,0.05,4.21,0.08,7.02,0.15c-1.2,12.91-2.39,25.83-3.57,38.74c-4.09,0-6.14-0.01-10.24-0.01
					c-1-10.77-2-21.55-3-32.32c-0.04,0-0.06,0-0.09,0c-1.01,10.77-2.01,21.55-3.01,32.32c-4.1,0-6.14,0-10.24,0
					C107.05,82.63,105.86,69.67,104.67,56.72z"/>
				<path class="st9" d="M141.29,64.46c0.01-5.74,2.65-7.89,9.42-7.6c6.78,0.29,9.4,2.62,9.39,8.25
					c-0.02,9.26-0.04,13.89-0.06,23.14c-0.01,5.63-2.65,7.78-9.46,7.77c-6.76-0.01-9.34-2.22-9.33-7.96
					C141.27,78.62,141.28,73.9,141.29,64.46z M152.58,65.26c0-1.32-0.47-1.8-1.88-1.85c-1.41-0.05-1.88,0.34-1.88,1.72
					c-0.02,9.01-0.03,13.52-0.04,22.53c0,1.38,0.47,1.79,1.92,1.8c1.36,0.01,1.83-0.44,1.84-1.76
					C152.55,78.73,152.56,74.24,152.58,65.26z"/>
				<path class="st9" d="M164.5,57.97c3.59,0.22,5.39,0.33,8.98,0.59c7.85,0.56,9.95,2.64,9.93,9.46c-0.01,1.75-0.01,2.62-0.01,4.36
					c-0.06,4.85-1.29,6.65-4.95,7.23c0,0.04,0,0.07,0,0.11c3.94,1.08,4.83,2.2,4.91,6.08c-0.01,3.97-0.02,5.96-0.03,9.93
					c-2.89-0.01-4.34-0.02-7.23-0.03c0.01-4.23,0.02-6.35,0.03-10.58c0-1.61-0.79-2.18-3.23-2.25c-0.49-0.01-0.73-0.02-1.22-0.03
					c-0.02,5.14-0.02,7.71-0.04,12.84c-2.89-0.01-4.34-0.02-7.23-0.03C164.43,83.09,164.46,70.53,164.5,57.97z M171.68,76.42
					c0.56,0.02,0.85,0.03,1.41,0.05c2.49,0.1,3.05-0.49,3.06-3.09c0.01-2.22,0.01-3.32,0.02-5.54c0.01-1.94-0.65-2.81-2.25-2.91
					c-0.88-0.05-1.32-0.08-2.21-0.13C171.7,69.45,171.7,71.77,171.68,76.42z"/>
				<path class="st9" d="M187.66,59.71c2.89,0.26,4.34,0.4,7.22,0.69c-0.02,5.96-0.03,8.94-0.05,14.91
					c-0.02,0.04-0.03,0.06-0.05,0.1c0.04,0,0.06,0,0.09,0.01c1.88-5.89,2.81-8.8,4.69-14.53c3.09,0.33,4.64,0.5,7.73,0.86
					c-2.47,6.2-3.71,9.37-6.18,15.83c2.76,7.46,4.13,11.13,6.89,18.29c-3.12-0.02-4.68-0.03-7.79-0.05
					c-2.14-6.24-3.21-9.41-5.35-15.84c-0.04,0-0.06,0-0.09,0c0.02,0.04,0.03,0.06,0.05,0.11c-0.02,6.28-0.03,9.42-0.05,15.7
					c-2.89-0.02-4.34-0.02-7.23-0.04C187.58,83.74,187.62,71.73,187.66,59.71z"/>
				<path class="st9" d="M216.67,87.46c0,2.72,0.28,3.17,2.15,3.23c1.59,0.04,2.16-0.43,2.16-1.84c0-1.4,0-2.1,0-3.51
					c0-1.95-0.32-2.3-3.04-3.2c-6.89-2.03-7.92-3.29-7.95-9.68c0-0.83,0-1.25,0-2.08c0.02-7.04,1.61-8.5,8.63-7.57
					c6.69,0.89,8.88,2.76,8.87,7.4c0,1.52,0,2.28,0,3.79c-2.56-0.26-3.84-0.39-6.41-0.64c0-0.62,0-0.93,0-1.56
					c0-2.77-0.23-3.14-1.91-3.33c-1.82-0.21-2.2,0.2-2.2,2.13c0,0.87,0,1.31,0,2.18c0,2.03,0.42,2.51,2.66,3.24
					c7.72,2.66,8.56,3.68,8.56,10.77c0,7.61-1.88,9.53-9.11,9.49c-7.37-0.04-9.15-1.72-9.13-8.72c0-1.12,0-1.67,0.01-2.79
					c2.68,0.12,4.02,0.18,6.7,0.31C216.67,86.04,216.67,86.51,216.67,87.46z"/>
			</g>
			<g>
				<g>
					<path class="st8" d="M9.19,63.78c3.57-0.53,5.35-0.78,8.92-1.27c7.81-1.06,9.92,0.45,9.94,6.8c0,1.63,0.01,2.44,0.01,4.06
						c-0.04,4.52-1.25,6.33-4.91,7.2c0,0.04,0,0.06,0,0.1c3.94,0.61,4.83,1.59,4.94,5.19c0.01,3.7,0.01,5.55,0.02,9.24
						c-2.89,0.03-4.34,0.04-7.23,0.07c-0.01-3.78-0.01-5.68-0.02-9.46c0-1.44-0.8-1.89-3.24-1.76c-0.49,0.03-0.73,0.04-1.22,0.07
						c0.01,4.48,0.01,6.72,0.01,11.2c-2.89,0.03-4.34,0.05-7.23,0.08C9.19,84.79,9.19,74.28,9.19,63.78z M16.4,78.42
						c0.56-0.04,0.84-0.06,1.41-0.11c2.48-0.19,3.04-0.77,3.04-3.1c0-1.98-0.01-2.97-0.01-4.95c0-1.73-0.66-2.4-2.25-2.22
						c-0.88,0.1-1.32,0.15-2.2,0.25C16.39,72.35,16.4,74.37,16.4,78.42z"/>
					<path class="st8" d="M31.98,67.45c-0.01-5.09,2.6-7.38,9.35-8.09s9.39,1.13,9.41,6.49c0.03,8.82,0.04,13.22,0.07,22.04
						c0.02,5.36-2.61,7.43-9.41,7.48c-6.76,0.05-9.35-1.89-9.36-6.98C32.01,80.01,32,75.82,31.98,67.45z M43.23,66.86
						c0-1.22-0.47-1.61-1.88-1.48c-1.41,0.12-1.87,0.54-1.87,1.8c0.02,8.23,0.04,12.34,0.06,20.57c0,1.26,0.47,1.62,1.93,1.59
						c1.36-0.03,1.83-0.47,1.83-1.69C43.27,79.33,43.26,75.18,43.23,66.86z"/>
					<path class="st8" d="M54.69,65.56c-0.02-5.41,2.6-7.74,9.37-8.24c6.77-0.5,9.41,1.51,9.42,7.11
						c0.03,9.21,0.04,13.81,0.06,23.02c0.02,5.6-2.61,7.76-9.42,7.79c-6.76,0.03-9.35-2.03-9.37-7.44
						C54.73,78.9,54.71,74.45,54.69,65.56z M65.96,65.28c0-1.29-0.47-1.7-1.88-1.62c-1.41,0.09-1.88,0.51-1.87,1.84
						c0.03,8.68,0.04,13.02,0.07,21.69c0,1.33,0.47,1.71,1.93,1.69c1.36-0.02,1.83-0.48,1.83-1.76C66,78.39,65.99,74.02,65.96,65.28
						z"/>
					<path class="st8" d="M77.83,56.82c5.47-0.3,8.21-0.42,13.69-0.62c0.01,2.77,0.01,4.16,0.01,6.93
						c-2.58,0.08-3.87,0.12-6.44,0.22c0.01,3.79,0.01,5.68,0.02,9.47c2.35-0.06,3.53-0.09,5.88-0.15C91,75.45,91,76.83,91,79.6
						c-2.35,0.04-3.52,0.06-5.87,0.11c0.01,6.02,0.02,9.02,0.03,15.04c-2.89,0.01-4.34,0.02-7.23,0.03
						C77.9,82.13,77.87,69.47,77.83,56.82z"/>
					<path class="st8" d="M103.96,55.85c2.81-0.06,4.21-0.08,7.02-0.11c0.66,11.08,1.33,22.15,1.99,33.23c0.02,0,0.03,0,0.05,0
						c0.97-11.09,1.94-22.17,2.91-33.26c3.92-0.01,5.88-0.01,9.79,0.03c0.95,11.08,1.9,22.16,2.85,33.24c0.04,0,0.06,0,0.09,0
						c0.67-11.06,1.33-22.12,2-33.18c2.81,0.04,4.21,0.07,7.02,0.15c-1.2,12.92-2.39,25.84-3.57,38.76
						c-4.09-0.01-6.14-0.01-10.24-0.01c-1-10.77-2-21.55-3-32.32c-0.04,0-0.06,0-0.09,0c-1,10.77-2.01,21.55-3.01,32.32
						c-4.1,0-6.14,0-10.24,0.01C106.33,81.75,105.15,68.8,103.96,55.85z"/>
					<path class="st8" d="M140.58,63.57c0.01-5.74,2.65-7.9,9.42-7.61c6.78,0.29,9.4,2.62,9.39,8.26
						c-0.02,9.27-0.03,13.9-0.06,23.16c-0.01,5.63-2.65,7.79-9.46,7.77c-6.76-0.02-9.34-2.23-9.33-7.97
						C140.56,77.73,140.56,73.01,140.58,63.57z M151.87,64.37c0-1.32-0.47-1.8-1.88-1.85c-1.41-0.05-1.88,0.34-1.88,1.72
						c-0.02,9.02-0.03,13.52-0.04,22.54c0,1.38,0.47,1.79,1.92,1.8c1.36,0.01,1.83-0.44,1.84-1.76
						C151.84,77.84,151.85,73.35,151.87,64.37z"/>
					<path class="st8" d="M163.79,57.07c3.59,0.22,5.39,0.34,8.98,0.6c7.85,0.57,9.95,2.65,9.93,9.48
						c-0.01,1.75-0.01,2.62-0.01,4.37c-0.06,4.86-1.29,6.66-4.95,7.24c0,0.04,0,0.07,0,0.11c3.94,1.09,4.83,2.21,4.91,6.1
						c-0.01,3.98-0.02,5.97-0.03,9.94c-2.89-0.02-4.34-0.03-7.23-0.04c0.01-4.24,0.02-6.36,0.03-10.59c0-1.61-0.79-2.19-3.23-2.26
						c-0.49-0.01-0.73-0.02-1.22-0.03c-0.02,5.14-0.02,7.72-0.04,12.86c-2.89-0.02-4.34-0.02-7.23-0.04
						C163.72,82.22,163.75,69.64,163.79,57.07z M170.97,75.54c0.56,0.02,0.85,0.03,1.41,0.06c2.49,0.1,3.05-0.48,3.06-3.09
						c0.01-2.22,0.01-3.33,0.02-5.55c0.01-1.94-0.65-2.82-2.25-2.91c-0.88-0.05-1.32-0.08-2.21-0.13
						C170.99,68.57,170.99,70.89,170.97,75.54z"/>
					<path class="st8" d="M186.95,58.83c2.89,0.27,4.34,0.4,7.22,0.7c-0.02,5.97-0.03,8.96-0.05,14.94
						c-0.02,0.04-0.03,0.06-0.05,0.1c0.04,0,0.06,0,0.09,0.01c1.88-5.9,2.81-8.81,4.69-14.55c3.09,0.33,4.64,0.51,7.73,0.88
						c-2.47,6.21-3.71,9.38-6.19,15.85c2.76,7.48,4.13,11.16,6.89,18.34c-3.12-0.03-4.68-0.04-7.79-0.07
						c-2.14-6.26-3.21-9.44-5.35-15.88c-0.04,0-0.06,0-0.09,0c0.02,0.04,0.03,0.07,0.05,0.11c-0.02,6.29-0.03,9.44-0.05,15.73
						c-2.89-0.02-4.34-0.03-7.23-0.05C186.87,82.89,186.91,70.86,186.95,58.83z"/>
					<path class="st8" d="M215.96,86.68c-0.01,2.73,0.28,3.18,2.15,3.24c1.59,0.05,2.16-0.42,2.16-1.84c0-1.41,0-2.11,0-3.52
						c0-1.95-0.32-2.31-3.04-3.22c-6.89-2.05-7.92-3.31-7.95-9.72c0-0.83,0-1.25,0.01-2.08c0.02-7.06,1.61-8.52,8.63-7.57
						c6.69,0.91,8.88,2.78,8.87,7.44c0,1.52,0,2.28,0,3.8c-2.56-0.27-3.84-0.4-6.41-0.65c0-0.62,0-0.94,0-1.56
						c0-2.78-0.23-3.15-1.91-3.35c-1.82-0.21-2.2,0.2-2.2,2.13c0,0.87,0,1.31,0,2.18c0,2.03,0.42,2.52,2.66,3.25
						c7.72,2.68,8.56,3.71,8.56,10.82c0,7.63-1.88,9.56-9.11,9.49c-7.37-0.06-9.15-1.75-9.13-8.76c0-1.12,0-1.68,0.01-2.79
						c2.68,0.12,4.02,0.19,6.7,0.32C215.96,85.25,215.96,85.73,215.96,86.68z"/>
				</g>
				<g>
					<path class="st15" d="M9.19,63.78c3.57-0.53,5.35-0.78,8.92-1.27c7.81-1.06,9.92,0.45,9.94,6.8c0,1.63,0.01,2.44,0.01,4.06
						c-0.04,4.52-1.25,6.33-4.91,7.2c0,0.04,0,0.06,0,0.1c3.94,0.61,4.83,1.59,4.94,5.19c0.01,3.7,0.01,5.55,0.02,9.24
						c-2.89,0.03-4.34,0.04-7.23,0.07c-0.01-3.78-0.01-5.68-0.02-9.46c0-1.44-0.8-1.89-3.24-1.76c-0.49,0.03-0.73,0.04-1.22,0.07
						c0.01,4.48,0.01,6.72,0.01,11.2c-2.89,0.03-4.34,0.05-7.23,0.08C9.19,84.79,9.19,74.28,9.19,63.78z M16.4,78.42
						c0.56-0.04,0.84-0.06,1.41-0.11c2.48-0.19,3.04-0.77,3.04-3.1c0-1.98-0.01-2.97-0.01-4.95c0-1.73-0.66-2.4-2.25-2.22
						c-0.88,0.1-1.32,0.15-2.2,0.25C16.39,72.35,16.4,74.37,16.4,78.42z"/>
					<path class="st15" d="M31.98,67.45c-0.01-5.09,2.6-7.38,9.35-8.09s9.39,1.13,9.41,6.49c0.03,8.82,0.04,13.22,0.07,22.04
						c0.02,5.36-2.61,7.43-9.41,7.48c-6.76,0.05-9.35-1.89-9.36-6.98C32.01,80.01,32,75.82,31.98,67.45z M43.23,66.86
						c0-1.22-0.47-1.61-1.88-1.48c-1.41,0.12-1.87,0.54-1.87,1.8c0.02,8.23,0.04,12.34,0.06,20.57c0,1.26,0.47,1.62,1.93,1.59
						c1.36-0.03,1.83-0.47,1.83-1.69C43.27,79.33,43.26,75.18,43.23,66.86z"/>
					<path class="st15" d="M54.69,65.56c-0.02-5.41,2.6-7.74,9.37-8.24c6.77-0.5,9.41,1.51,9.42,7.11
						c0.03,9.21,0.04,13.81,0.06,23.02c0.02,5.6-2.61,7.76-9.42,7.79c-6.76,0.03-9.35-2.03-9.37-7.44
						C54.73,78.9,54.71,74.45,54.69,65.56z M65.96,65.28c0-1.29-0.47-1.7-1.88-1.62c-1.41,0.09-1.88,0.51-1.87,1.84
						c0.03,8.68,0.04,13.02,0.07,21.69c0,1.33,0.47,1.71,1.93,1.69c1.36-0.02,1.83-0.48,1.83-1.76C66,78.39,65.99,74.02,65.96,65.28
						z"/>
					<path class="st15" d="M77.83,56.82c5.47-0.3,8.21-0.42,13.69-0.62c0.01,2.77,0.01,4.16,0.01,6.93
						c-2.58,0.08-3.87,0.12-6.44,0.22c0.01,3.79,0.01,5.68,0.02,9.47c2.35-0.06,3.53-0.09,5.88-0.15C91,75.45,91,76.83,91,79.6
						c-2.35,0.04-3.52,0.06-5.87,0.11c0.01,6.02,0.02,9.02,0.03,15.04c-2.89,0.01-4.34,0.02-7.23,0.03
						C77.9,82.13,77.87,69.47,77.83,56.82z"/>
					<path class="st15" d="M103.96,55.85c2.81-0.06,4.21-0.08,7.02-0.11c0.66,11.08,1.33,22.15,1.99,33.23c0.02,0,0.03,0,0.05,0
						c0.97-11.09,1.94-22.17,2.91-33.26c3.92-0.01,5.88-0.01,9.79,0.03c0.95,11.08,1.9,22.16,2.85,33.24c0.04,0,0.06,0,0.09,0
						c0.67-11.06,1.33-22.12,2-33.18c2.81,0.04,4.21,0.07,7.02,0.15c-1.2,12.92-2.39,25.84-3.57,38.76
						c-4.09-0.01-6.14-0.01-10.24-0.01c-1-10.77-2-21.55-3-32.32c-0.04,0-0.06,0-0.09,0c-1,10.77-2.01,21.55-3.01,32.32
						c-4.1,0-6.14,0-10.24,0.01C106.33,81.75,105.15,68.8,103.96,55.85z"/>
					<path class="st15" d="M140.58,63.57c0.01-5.74,2.65-7.9,9.42-7.61c6.78,0.29,9.4,2.62,9.39,8.26
						c-0.02,9.27-0.03,13.9-0.06,23.16c-0.01,5.63-2.65,7.79-9.46,7.77c-6.76-0.02-9.34-2.23-9.33-7.97
						C140.56,77.73,140.56,73.01,140.58,63.57z M151.87,64.37c0-1.32-0.47-1.8-1.88-1.85c-1.41-0.05-1.88,0.34-1.88,1.72
						c-0.02,9.02-0.03,13.52-0.04,22.54c0,1.38,0.47,1.79,1.92,1.8c1.36,0.01,1.83-0.44,1.84-1.76
						C151.84,77.84,151.85,73.35,151.87,64.37z"/>
					<path class="st15" d="M163.79,57.07c3.59,0.22,5.39,0.34,8.98,0.6c7.85,0.57,9.95,2.65,9.93,9.48
						c-0.01,1.75-0.01,2.62-0.01,4.37c-0.06,4.86-1.29,6.66-4.95,7.24c0,0.04,0,0.07,0,0.11c3.94,1.09,4.83,2.21,4.91,6.1
						c-0.01,3.98-0.02,5.97-0.03,9.94c-2.89-0.02-4.34-0.03-7.23-0.04c0.01-4.24,0.02-6.36,0.03-10.59c0-1.61-0.79-2.19-3.23-2.26
						c-0.49-0.01-0.73-0.02-1.22-0.03c-0.02,5.14-0.02,7.72-0.04,12.86c-2.89-0.02-4.34-0.02-7.23-0.04
						C163.72,82.22,163.75,69.64,163.79,57.07z M170.97,75.54c0.56,0.02,0.85,0.03,1.41,0.06c2.49,0.1,3.05-0.48,3.06-3.09
						c0.01-2.22,0.01-3.33,0.02-5.55c0.01-1.94-0.65-2.82-2.25-2.91c-0.88-0.05-1.32-0.08-2.21-0.13
						C170.99,68.57,170.99,70.89,170.97,75.54z"/>
					<path class="st15" d="M186.95,58.83c2.89,0.27,4.34,0.4,7.22,0.7c-0.02,5.97-0.03,8.96-0.05,14.94
						c-0.02,0.04-0.03,0.06-0.05,0.1c0.04,0,0.06,0,0.09,0.01c1.88-5.9,2.81-8.81,4.69-14.55c3.09,0.33,4.64,0.51,7.73,0.88
						c-2.47,6.21-3.71,9.38-6.19,15.85c2.76,7.48,4.13,11.16,6.89,18.34c-3.12-0.03-4.68-0.04-7.79-0.07
						c-2.14-6.26-3.21-9.44-5.35-15.88c-0.04,0-0.06,0-0.09,0c0.02,0.04,0.03,0.07,0.05,0.11c-0.02,6.29-0.03,9.44-0.05,15.73
						c-2.89-0.02-4.34-0.03-7.23-0.05C186.87,82.89,186.91,70.86,186.95,58.83z"/>
					<path class="st15" d="M215.96,86.68c-0.01,2.73,0.28,3.18,2.15,3.24c1.59,0.05,2.16-0.42,2.16-1.84c0-1.41,0-2.11,0-3.52
						c0-1.95-0.32-2.31-3.04-3.22c-6.89-2.05-7.92-3.31-7.95-9.72c0-0.83,0-1.25,0.01-2.08c0.02-7.06,1.61-8.52,8.63-7.57
						c6.69,0.91,8.88,2.78,8.87,7.44c0,1.52,0,2.28,0,3.8c-2.56-0.27-3.84-0.4-6.41-0.65c0-0.62,0-0.94,0-1.56
						c0-2.78-0.23-3.15-1.91-3.35c-1.82-0.21-2.2,0.2-2.2,2.13c0,0.87,0,1.31,0,2.18c0,2.03,0.42,2.52,2.66,3.25
						c7.72,2.68,8.56,3.71,8.56,10.82c0,7.63-1.88,9.56-9.11,9.49c-7.37-0.06-9.15-1.75-9.13-8.76c0-1.12,0-1.68,0.01-2.79
						c2.68,0.12,4.02,0.19,6.7,0.32C215.96,85.25,215.96,85.73,215.96,86.68z"/>
				</g>
				<g>
					<path class="st8" d="M9.19,63.78c3.57-0.53,5.35-0.78,8.92-1.27c7.81-1.06,9.92,0.45,9.94,6.8c0,1.63,0.01,2.44,0.01,4.06
						c-0.04,4.52-1.25,6.33-4.91,7.2c0,0.04,0,0.06,0,0.1c3.94,0.61,4.83,1.59,4.94,5.19c0.01,3.7,0.01,5.55,0.02,9.24
						c-2.89,0.03-4.34,0.04-7.23,0.07c-0.01-3.78-0.01-5.68-0.02-9.46c0-1.44-0.8-1.89-3.24-1.76c-0.49,0.03-0.73,0.04-1.22,0.07
						c0.01,4.48,0.01,6.72,0.01,11.2c-2.89,0.03-4.34,0.05-7.23,0.08C9.19,84.79,9.19,74.28,9.19,63.78z M16.4,78.42
						c0.56-0.04,0.84-0.06,1.41-0.11c2.48-0.19,3.04-0.77,3.04-3.1c0-1.98-0.01-2.97-0.01-4.95c0-1.73-0.66-2.4-2.25-2.22
						c-0.88,0.1-1.32,0.15-2.2,0.25C16.39,72.35,16.4,74.37,16.4,78.42z"/>
					<path class="st8" d="M31.98,67.45c-0.01-5.09,2.6-7.38,9.35-8.09s9.39,1.13,9.41,6.49c0.03,8.82,0.04,13.22,0.07,22.04
						c0.02,5.36-2.61,7.43-9.41,7.48c-6.76,0.05-9.35-1.89-9.36-6.98C32.01,80.01,32,75.82,31.98,67.45z M43.23,66.86
						c0-1.22-0.47-1.61-1.88-1.48c-1.41,0.12-1.87,0.54-1.87,1.8c0.02,8.23,0.04,12.34,0.06,20.57c0,1.26,0.47,1.62,1.93,1.59
						c1.36-0.03,1.83-0.47,1.83-1.69C43.27,79.33,43.26,75.18,43.23,66.86z"/>
					<path class="st8" d="M54.69,65.56c-0.02-5.41,2.6-7.74,9.37-8.24c6.77-0.5,9.41,1.51,9.42,7.11
						c0.03,9.21,0.04,13.81,0.06,23.02c0.02,5.6-2.61,7.76-9.42,7.79c-6.76,0.03-9.35-2.03-9.37-7.44
						C54.73,78.9,54.71,74.45,54.69,65.56z M65.96,65.28c0-1.29-0.47-1.7-1.88-1.62c-1.41,0.09-1.88,0.51-1.87,1.84
						c0.03,8.68,0.04,13.02,0.07,21.69c0,1.33,0.47,1.71,1.93,1.69c1.36-0.02,1.83-0.48,1.83-1.76C66,78.39,65.99,74.02,65.96,65.28
						z"/>
					<path class="st8" d="M77.83,56.82c5.47-0.3,8.21-0.42,13.69-0.62c0.01,2.77,0.01,4.16,0.01,6.93
						c-2.58,0.08-3.87,0.12-6.44,0.22c0.01,3.79,0.01,5.68,0.02,9.47c2.35-0.06,3.53-0.09,5.88-0.15C91,75.45,91,76.83,91,79.6
						c-2.35,0.04-3.52,0.06-5.87,0.11c0.01,6.02,0.02,9.02,0.03,15.04c-2.89,0.01-4.34,0.02-7.23,0.03
						C77.9,82.13,77.87,69.47,77.83,56.82z"/>
					<path class="st8" d="M103.96,55.85c2.81-0.06,4.21-0.08,7.02-0.11c0.66,11.08,1.33,22.15,1.99,33.23c0.02,0,0.03,0,0.05,0
						c0.97-11.09,1.94-22.17,2.91-33.26c3.92-0.01,5.88-0.01,9.79,0.03c0.95,11.08,1.9,22.16,2.85,33.24c0.04,0,0.06,0,0.09,0
						c0.67-11.06,1.33-22.12,2-33.18c2.81,0.04,4.21,0.07,7.02,0.15c-1.2,12.92-2.39,25.84-3.57,38.76
						c-4.09-0.01-6.14-0.01-10.24-0.01c-1-10.77-2-21.55-3-32.32c-0.04,0-0.06,0-0.09,0c-1,10.77-2.01,21.55-3.01,32.32
						c-4.1,0-6.14,0-10.24,0.01C106.33,81.75,105.15,68.8,103.96,55.85z"/>
					<path class="st8" d="M140.58,63.57c0.01-5.74,2.65-7.9,9.42-7.61c6.78,0.29,9.4,2.62,9.39,8.26
						c-0.02,9.27-0.03,13.9-0.06,23.16c-0.01,5.63-2.65,7.79-9.46,7.77c-6.76-0.02-9.34-2.23-9.33-7.97
						C140.56,77.73,140.56,73.01,140.58,63.57z M151.87,64.37c0-1.32-0.47-1.8-1.88-1.85c-1.41-0.05-1.88,0.34-1.88,1.72
						c-0.02,9.02-0.03,13.52-0.04,22.54c0,1.38,0.47,1.79,1.92,1.8c1.36,0.01,1.83-0.44,1.84-1.76
						C151.84,77.84,151.85,73.35,151.87,64.37z"/>
					<path class="st8" d="M163.79,57.07c3.59,0.22,5.39,0.34,8.98,0.6c7.85,0.57,9.95,2.65,9.93,9.48
						c-0.01,1.75-0.01,2.62-0.01,4.37c-0.06,4.86-1.29,6.66-4.95,7.24c0,0.04,0,0.07,0,0.11c3.94,1.09,4.83,2.21,4.91,6.1
						c-0.01,3.98-0.02,5.97-0.03,9.94c-2.89-0.02-4.34-0.03-7.23-0.04c0.01-4.24,0.02-6.36,0.03-10.59c0-1.61-0.79-2.19-3.23-2.26
						c-0.49-0.01-0.73-0.02-1.22-0.03c-0.02,5.14-0.02,7.72-0.04,12.86c-2.89-0.02-4.34-0.02-7.23-0.04
						C163.72,82.22,163.75,69.64,163.79,57.07z M170.97,75.54c0.56,0.02,0.85,0.03,1.41,0.06c2.49,0.1,3.05-0.48,3.06-3.09
						c0.01-2.22,0.01-3.33,0.02-5.55c0.01-1.94-0.65-2.82-2.25-2.91c-0.88-0.05-1.32-0.08-2.21-0.13
						C170.99,68.57,170.99,70.89,170.97,75.54z"/>
					<path class="st8" d="M186.95,58.83c2.89,0.27,4.34,0.4,7.22,0.7c-0.02,5.97-0.03,8.96-0.05,14.94
						c-0.02,0.04-0.03,0.06-0.05,0.1c0.04,0,0.06,0,0.09,0.01c1.88-5.9,2.81-8.81,4.69-14.55c3.09,0.33,4.64,0.51,7.73,0.88
						c-2.47,6.21-3.71,9.38-6.19,15.85c2.76,7.48,4.13,11.16,6.89,18.34c-3.12-0.03-4.68-0.04-7.79-0.07
						c-2.14-6.26-3.21-9.44-5.35-15.88c-0.04,0-0.06,0-0.09,0c0.02,0.04,0.03,0.07,0.05,0.11c-0.02,6.29-0.03,9.44-0.05,15.73
						c-2.89-0.02-4.34-0.03-7.23-0.05C186.87,82.89,186.91,70.86,186.95,58.83z"/>
					<path class="st8" d="M215.96,86.68c-0.01,2.73,0.28,3.18,2.15,3.24c1.59,0.05,2.16-0.42,2.16-1.84c0-1.41,0-2.11,0-3.52
						c0-1.95-0.32-2.31-3.04-3.22c-6.89-2.05-7.92-3.31-7.95-9.72c0-0.83,0-1.25,0.01-2.08c0.02-7.06,1.61-8.52,8.63-7.57
						c6.69,0.91,8.88,2.78,8.87,7.44c0,1.52,0,2.28,0,3.8c-2.56-0.27-3.84-0.4-6.41-0.65c0-0.62,0-0.94,0-1.56
						c0-2.78-0.23-3.15-1.91-3.35c-1.82-0.21-2.2,0.2-2.2,2.13c0,0.87,0,1.31,0,2.18c0,2.03,0.42,2.52,2.66,3.25
						c7.72,2.68,8.56,3.71,8.56,10.82c0,7.63-1.88,9.56-9.11,9.49c-7.37-0.06-9.15-1.75-9.13-8.76c0-1.12,0-1.68,0.01-2.79
						c2.68,0.12,4.02,0.19,6.7,0.32C215.96,85.25,215.96,85.73,215.96,86.68z"/>
				</g>
			</g>
		</g>
	</g>
</g>
</svg>
