<?xml version="1.0" encoding="utf-8"?>
<!-- Generator: Adobe Illustrator 25.0.1, SVG Export Plug-In . SVG Version: 6.00 Build 0)  -->
<svg version="1.1" id="Layer_1" xmlns="http://www.w3.org/2000/svg" xmlns:xlink="http://www.w3.org/1999/xlink" x="0px" y="0px"
	 viewBox="0 0 500 500" style="enable-background:new 0 0 500 500;" xml:space="preserve">
<style type="text/css">
	.st0{fill:#FFFFFF;}
</style>
<g>
	<g>
		<path class="st0" d="M354.6,98.5c2.4,6.1,4.2,13,5.4,20.7c35.7,30.9,58.3,76.5,58.3,127.3c0,49.4-21.4,94-55.5,124.8l0,17
			c41.7-33.3,68.4-84.5,68.4-141.8C431.4,185.5,401,131.4,354.6,98.5z"/>
		<path class="st0" d="M119.3,352.6c-23.5-29-37.7-65.9-37.7-106c0-40.1,14.1-77,37.6-106l0-19.6c-31.3,32.6-50.6,76.9-50.6,125.6
			c0,48.7,19.3,93,50.7,125.6L119.3,352.6z"/>
	</g>
	<path class="st0" d="M275.9,77.1c48.8,0,63.3,20.6,63.4,74.3c0,17,0.1,25.5,0.1,42.5c-0.4,47.3-13.1,66.1-51.3,75.3l0,1.1
		c41.2,6.3,50.5,16.6,51.6,54.2c0.1,38.6,0.1,58,0.2,96.6c-30.2,0.3-45.3,0.4-75.5,0.7c-0.1-39.5-0.1-59.3-0.2-98.8
		c0-13.4-6.7-18.6-26.2-18.6c-2.4,0-4.9,0.1-7.6,0.2c-5.1,0.3-7.6,0.4-12.7,0.7c0.1,46.8,0.1,70.2,0.1,117
		c-30.2,0.3-45.3,0.5-75.5,0.8c0-109.8-0.1-219.6-0.1-329.4c37.3-5.5,55.9-8.2,93.2-13.2C251,78.2,264.4,77.1,275.9,77.1
		 M217.6,246.6c5.9-0.4,8.8-0.7,14.7-1.1c25.9-1.9,31.8-8.1,31.8-32.4c0-20.7-0.1-31-0.1-51.7c0-16.2-5.5-23.5-18.6-23.5
		c-1.5,0-3.2,0.1-4.9,0.3c-9.2,1.1-13.8,1.6-23,2.6C217.6,183.1,217.6,204.3,217.6,246.6 M275.9,64.1c-11.7,0-25.5,1.1-42.2,3.4
		c-38.1,5.2-56.4,7.8-93.4,13.3c-6.4,0.9-11.1,6.4-11.1,12.9l0,164.7l0,164.7c0,3.5,1.4,6.8,3.9,9.2c2.4,2.4,5.7,3.8,9.1,3.8
		c0,0,0.1,0,0.1,0c30-0.3,45.1-0.5,75.5-0.8c7.1-0.1,12.9-5.9,12.9-13c-0.1-42.5-0.1-65.7-0.1-104.7c0.1,0,0.3,0,0.4,0
		c2.5-0.1,4.9-0.2,6.9-0.2c9.6,0,12.3,1.5,12.7,1.8c0.1,0.3,0.5,1.3,0.5,3.9l0.1,49.5l0.1,49.3c0,3.5,1.4,6.8,3.9,9.2
		c2.4,2.4,5.7,3.8,9.1,3.8c0,0,0.1,0,0.1,0c30.2-0.3,45.3-0.4,75.5-0.7c7.1-0.1,12.9-5.9,12.9-13l-0.1-48.5l-0.1-48.1
		c0-0.1,0-0.2,0-0.3c-0.3-11-1.3-19.4-3.1-26.4c-2.3-8.6-5.9-15.5-11.2-21c-3.7-3.9-8.1-7.1-13.1-9.6c5.3-4,9.7-8.6,13.4-13.9
		c9.3-13.6,13.5-31.9,13.7-59.1c0,0,0-0.1,0-0.1l0-17.3l-0.1-25.2c-0.1-31.6-5.1-51.8-16.4-65.5C323.7,71,304.7,64.1,275.9,64.1
		L275.9,64.1z M230.5,152.4c2.3-0.3,4.6-0.5,7.3-0.8l4.2-0.5c1.2-0.1,2.4-0.2,3.4-0.2c0,0,0,0,0,0c2.5,0,3.7,0.4,4,0.7
		c0.2,0.2,1.6,2.3,1.7,9.9l0,22.9l0.1,28.8c0,10.7-1.3,14.3-2.4,15.5c-1.3,1.3-5.3,3-17.3,3.9c-0.2,0-0.5,0-0.7,0.1l-0.1-38.9
		L230.5,152.4L230.5,152.4z"/>
</g>
</svg>
