<?xml version="1.0" encoding="utf-8"?>
<!-- Generator: Adobe Illustrator 25.0.1, SVG Export Plug-In . SVG Version: 6.00 Build 0)  -->
<svg version="1.1" id="Layer_1" xmlns="http://www.w3.org/2000/svg" xmlns:xlink="http://www.w3.org/1999/xlink" x="0px" y="0px"
	 viewBox="0 0 500 500" style="enable-background:new 0 0 500 500;" xml:space="preserve">
<style type="text/css">
	.st0{fill:#FFFFFF;}
</style>
<g>
	<path class="st0" d="M235,235.1c23.3-1.8,28.6-7.2,28.5-29.1c0-18.6,0-27.9-0.1-46.5c0-16.3-6.2-22.6-21.1-20.9
		c-8.3,0.9-12.4,1.4-20.6,2.4c0.1,38,0.1,57,0.1,95C227.1,235.7,229.7,235.5,235,235.1z M244.2,152.5l0.4,0L244.2,152.5
		C244.2,152.5,244.2,152.5,244.2,152.5L244.2,152.5c1.1-0.1,2.1-0.2,2.8-0.2c0.9,0,1.6,0.1,2,0.2c0.3,0.8,0.8,3,0.8,6.4l-7.2,0.8
		l0.1,60.5c-1.8,0.3-4,0.6-6.7,0.9c0-24.9-0.1-42.2-0.1-67.6C238.4,153.2,241,152.9,244.2,152.5z"/>
	<path class="st0" d="M250,25.1C125.8,25.1,25.1,125.8,25.1,250S125.8,474.9,250,474.9S474.9,374.2,474.9,250S374.2,25.1,250,25.1z
		 M331.2,90.9c18.3,16,20.8,42.4,20.9,66.2l0.1,38.2c-0.2,27.3-4.7,49.4-21.5,64.4c-2.3-2.2-4.9-4.1-7.7-5.7
		c2.1-1.8,4.1-3.7,5.9-5.9c6.3-7.2,10.5-16.1,13-25.9c2.5-9.9,3.5-20.8,3.6-33.5v-0.1v-0.1c0-15.2-0.1-22.9-0.1-38.1
		c0-12.7-0.9-23.8-3.1-33.8c-1.7-7.5-4.2-14.4-8-20.6c-1.4-2.4-3-4.6-4.8-6.7C330,89.9,330.6,90.4,331.2,90.9z M237.9,86.8
		c73.3-10,93.1,4.2,93.2,63.8c0,15.3,0.1,22.9,0.1,38.1c-0.3,42.4-11.7,59.4-46,67.6l0,0.9c37,5.7,45.3,14.9,46.3,48.7
		c0.1,34.7,0.1,52,0.2,86.7c-27.1,0.2-40.7,0.4-67.8,0.6c-0.1-35.5-0.1-53.2-0.2-88.7c0-13.5-7.5-17.7-30.4-16.5
		c-4.6,0.2-6.9,0.4-11.4,0.6c0.1,42,0.1,63,0.1,105.1c-27.1,0.3-40.7,0.4-67.8,0.7c0-98.6-0.1-197.2-0.1-295.7
		C187.6,93.7,204.4,91.3,237.9,86.8z M242.8,308.4l0.2,105.9l-95.7,0.7l0-6.7l7.4-0.1c27.1-0.3,40.7-0.4,67.8-0.7l13.8-0.1l0-13.8
		c0-37.4-0.1-58.1-0.1-91.9c1.6-0.1,3-0.1,4.4-0.1c3.8,0,6.6,0.3,8.2,0.6c0.5,0.1,0.9,0.2,1.3,0.3c0.1,0.4,0.1,1.1,0.1,1.9
		c0,1.3,0,2.6,0,3.9C248.2,308.3,245.8,308.3,242.8,308.4z M257,414.3l0-7l7.4-0.1c27.1-0.3,40.7-0.4,67.8-0.6l13.8-0.1l0-13.8
		c-0.1-34.7-0.1-52-0.2-86.7l0-0.2l0-0.2c-0.3-9-1-16.9-2.9-24.2c-1.4-5.5-3.6-10.7-6.9-15.4c-0.3-0.4-0.6-0.8-0.9-1.2
		c12,9.6,16.8,24.4,17.4,47.8l0.3,101.2L257,414.3z"/>
</g>
</svg>
