<?xml version="1.0" encoding="utf-8"?>
<!-- Generator: Adobe Illustrator 27.9.0, SVG Export Plug-In . SVG Version: 6.00 Build 0)  -->
<svg version="1.1" id="Layer_1" xmlns="http://www.w3.org/2000/svg" xmlns:xlink="http://www.w3.org/1999/xlink" x="0px" y="0px"
	 viewBox="0 0 500 500" style="enable-background:new 0 0 500 500;" xml:space="preserve">
<style type="text/css">
	.st0{fill:#FFFFFF;}
</style>
<polygon class="st0" points="1037.05,-504.3 1034.01,-508.4 1003.17,-467.54 1009.95,-467.54 "/>
<polygon class="st0" points="1138.61,-514.69 1137.97,-514.51 1138.33,-514.04 "/>
<polygon class="st0" points="1254.93,-499.52 1252.66,-495.95 1268.83,-476 1272.63,-477.42 "/>
<rect x="1033.19" y="-490.07" class="st0" width="5.5" height="5.5"/>
<rect x="1039.75" y="-490.07" class="st0" width="5.5" height="5.5"/>
<rect x="1033.19" y="-483.73" class="st0" width="5.5" height="5.5"/>
<rect x="1039.75" y="-483.73" class="st0" width="5.5" height="5.5"/>
<rect x="1249.74" y="-488.46" class="st0" width="3.49" height="3.49"/>
<rect x="1253.89" y="-488.46" class="st0" width="3.49" height="3.49"/>
<rect x="1249.74" y="-484.46" class="st0" width="3.49" height="3.49"/>
<rect x="1253.89" y="-484.46" class="st0" width="3.49" height="3.49"/>
<path class="st0" d="M1137.9-465.56c69.31,0,132.53,6.8,180.44,17.99c-42.77-16.7-107.72-27.36-180.44-27.36
	s-137.67,10.66-180.46,27.36C1005.37-458.75,1068.59-465.56,1137.9-465.56z"/>
<rect x="963.85" y="-367.3" class="st0" width="124.88" height="1.39"/>
<rect x="1187.07" y="-367.3" class="st0" width="124.88" height="1.39"/>
<path class="st0" d="M1105.15-370.93v8c0,0.39,0.16,0.73,0.46,1.01c0.3,0.27,0.66,0.39,1.1,0.41h6.73c0.44-0.02,0.8-0.16,1.1-0.41
	c0.3-0.28,0.46-0.62,0.46-0.99v-8h3.3v8.56c0,0.98-0.38,1.81-1.14,2.49c-0.76,0.69-1.67,1.04-2.76,1.04h-8.67
	c-1.07,0-2-0.35-2.76-1.04c-0.76-0.69-1.14-1.51-1.14-2.49v-8.56h3.31V-370.93z"/>
<path class="st0" d="M1140.68-370.93c1.12,0,2.05,0.36,2.82,1.07c0.77,0.71,1.17,1.58,1.17,2.59v0.05h-3.22l0.02-0.05
	c0-0.27-0.09-0.49-0.3-0.66c-0.19-0.19-0.43-0.28-0.74-0.27h-6.88c-0.28-0.02-0.52,0.08-0.73,0.27c-0.19,0.17-0.28,0.39-0.28,0.65
	s0.11,0.47,0.3,0.66c0.19,0.19,0.43,0.27,0.71,0.27c0.8,0,2.07,0,3.77-0.02c1.69-0.02,2.95-0.02,3.75,0c1.15,0,2.11,0.36,2.92,1.1
	c0.82,0.73,1.21,1.61,1.2,2.65c0,1.04-0.39,1.92-1.21,2.67c-0.79,0.73-1.75,1.09-2.9,1.09h-8.01c-1.14,0-2.1-0.36-2.92-1.09
	c-0.8-0.73-1.2-1.61-1.2-2.67h3.09v0.02c0,0.3,0.11,0.55,0.35,0.76c0.24,0.2,0.5,0.32,0.82,0.32h7.55c0.33-0.02,0.6-0.13,0.84-0.32
	c0.22-0.21,0.33-0.46,0.33-0.76c0-0.3-0.11-0.55-0.35-0.76c-0.24-0.2-0.5-0.32-0.82-0.32h-7.79c-1.1,0-2.05-0.36-2.82-1.07
	c-0.77-0.73-1.17-1.58-1.17-2.57c0-1.01,0.39-1.86,1.17-2.55s1.72-1.07,2.82-1.1h7.71V-370.93z"/>
<path class="st0" d="M1166.27-370.93l7.68,12.1h-3.56l-1.67-2.65h-8.18l-1.69,2.65h-3.55l7.68-12.1H1166.27z M1162.16-364.04h4.92
	l-2.46-3.88L1162.16-364.04z"/>
<polygon class="st0" points="1040.52,-507.39 1090.92,-500.51 1093.61,-504.12 1037.05,-511.85 "/>
<polygon class="st0" points="1040.52,-507.39 1090.92,-500.51 1093.61,-504.12 1037.05,-511.85 "/>
<polygon class="st0" points="1048.03,-497.67 1085.06,-492.63 1088.01,-496.6 1044.25,-502.58 "/>
<polygon class="st0" points="1048.03,-497.67 1085.06,-492.63 1088.01,-496.6 1044.25,-502.58 "/>
<polygon class="st0" points="1055.55,-487.97 1079.19,-484.74 1082.16,-488.71 1051.75,-492.88 "/>
<polygon class="st0" points="1055.55,-487.97 1079.19,-484.74 1082.16,-488.71 1051.75,-492.88 "/>
<polygon class="st0" points="1063.08,-478.26 1070.99,-477.17 1073.56,-477.17 1076.29,-480.85 1059.27,-483.16 "/>
<polygon class="st0" points="1063.08,-478.26 1070.99,-477.17 1073.56,-477.17 1076.29,-480.85 1059.27,-483.16 "/>
<g>
	<path class="st0" d="M981.24-401.73c-0.21-0.06-0.65-0.16-1.58-0.16c-0.22,0-0.46,0-0.71,0.02l0.02,17.76l-15.27,0.16v0.98
		l16.13-0.17l-0.02-17.76c0.25-0.02,0.49-0.02,0.71-0.02c0.28,0,0.52,0.02,0.73,0.03v-0.55L981.24-401.73z M1153.45-433.11
		l-1.45-16.97h-0.79l1.91,22.33L1153.45-433.11z M1051.28-398.81c0.13,0.02,0.28,0.02,0.47,0.02c0.14,0,0.27,0,0.38-0.02
		l-0.11-33.53c0-0.2,0-0.35,0.02-0.44l0.32-0.05c0-0.65,0-1.01,0-1.03l-0.46,0.02c-0.35,0.02-0.57,0.05-0.73,0.08
		c-0.02,0.11-0.02,0.25-0.02,0.44l0.11,34.21L1051.28-398.81z M998.2-419.94l-0.02-6.4c-0.02-4.21-0.55-8.23-3.22-10.79
		c1.92,2.54,2.35,6.1,2.35,9.81l0.02,6.4c-0.03,4.67-0.82,8.45-3.8,10.98c0.39,0.24,0.74,0.49,1.07,0.77
		C997.41-411.68,998.15-415.38,998.2-419.94z M979.81-415.57l-0.02-10.25l1.37-0.16h0.05c-0.02-0.55-0.08-0.85-0.13-0.98
		c-0.06-0.02-0.16-0.02-0.3-0.02c-0.14,0-0.3,0.02-0.47,0.03l-1.37,0.16l0.02,11.31C979.29-415.51,979.56-415.54,979.81-415.57z
		 M1187.26-399.27L1187.26-399.27h0.17l0.06-35.04c0-0.14,0-0.27,0.02-0.36h0.24h0.09v-0.43c0-0.22-0.02-0.38-0.02-0.49
		c-0.13-0.03-0.35-0.05-0.66-0.06h-0.27h-0.24c0,0.09-0.02,0.22-0.02,0.36l-0.06,35.55c0,0.19,0,0.33,0.02,0.44
		C1186.74-399.28,1186.95-399.27,1187.26-399.27z M1015.84-398.08h0.22l0.24-0.02c-0.02-5.39-0.09-31.6-0.09-31.6
		c0-0.16,0-0.27,0.02-0.36l0.32-0.06c0-0.66,0-1.06,0-1.06l-0.39,0.03c-0.39,0.03-0.63,0.08-0.79,0.11
		c-0.02,0.09-0.02,0.2-0.02,0.36l0.09,32.57C1015.54-398.08,1015.67-398.08,1015.84-398.08z M1129.8-433.49l-0.99-16.62l-0.8,0.02
		l1.32,22.08L1129.8-433.49z M1223.72-433.24l-0.98-0.06l-0.05,13.55c0.24,0.02,0.43,0.02,0.62,0.02l0.25-0.02l0.03-12.58l0.98,0.06
		c0.14,0.02,0.27,0.02,0.39,0.03C1224.83-433.17,1224.43-433.2,1223.72-433.24z M1308.99-417.81l2.62,0.27v-8.63
		c0-4.31-1.15-7.27-3.28-9.35c1.56,2.02,2.41,4.72,2.41,8.39v8.63l-2.62-0.27c-4.04-0.43-6.06-0.63-10.09-1.03l-0.2-0.02
		c1.15,0.41,2.19,0.8,3.17,1.2C1303.76-418.35,1305.73-418.16,1308.99-417.81z M1290.37-406.08c0.33,0.02,0.66,0.03,1.03,0.05
		l1.51,0.08l-0.36-0.13c-5.19-1.55-8.53-3-10.68-5.08C1283.54-409,1286.22-407.52,1290.37-406.08z M1295.07-420.81
		c-0.06-0.32-0.06-0.73-0.06-1.31v-3.44c0-0.5,0.02-0.85,0.05-1.07c0.24,0,0.5,0.03,0.79,0.06h0.02c-0.02-0.36-0.05-0.66-0.09-0.85
		c-0.14-0.03-0.38-0.08-0.77-0.13c-0.3-0.03-0.57-0.06-0.79-0.06c-0.02,0.22-0.05,0.57-0.05,1.07v3.44
		C1294.12-421.66,1294.14-421.24,1295.07-420.81z M1259.27-434.07c0.21-0.65,0.52-1.61,0.88-2.7l0.02-7.13l-0.87-0.09
		L1259.27-434.07z M1294.55-397.17c-0.03-0.43-0.05-0.99-0.05-1.75l0.02-5.79c0.49,0.17,0.87,0.32,1.15,0.46
		c-0.13-0.65-0.54-0.91-2.02-1.42v0.68l0.11,0.03h-0.11l-0.02,5.08c0,1.58,0.06,2.32,0.14,2.67
		C1293.93-397.22,1294.18-397.19,1294.55-397.17z M1309.21-413.4c2.11,2.73,2.62,6.4,2.62,12.49c0,13.12-3.94,17.33-16.2,17.33
		h-0.55c-6.42-0.06-10.61-1.03-13.2-3.52c2.48,3.22,6.86,4.43,14.07,4.49h0.55c12.25,0,16.2-4.21,16.2-17.33
		C1312.7-406.77,1312.07-410.57,1309.21-413.4z M1241.2-430.71l-0.02,6.89c-0.06,5.09-0.91,9.13-4.08,11.54
		c0.38,0.25,0.73,0.52,1.04,0.8c3.03-2.43,3.85-6.39,3.91-11.37l0.02-6.89c0.02-5.98-1.04-10.01-3.72-12.71
		C1240.39-439.78,1241.21-436,1241.2-430.71z M1241.1-402.67l-0.06,18.12l-15.27-0.11v0.96l16.13,0.09l0.06-18.12
		c-0.09-4.15-0.85-6.78-2.84-8.64C1240.47-408.56,1241.02-406.16,1241.1-402.67z M995.64-408.02c1.14,1.58,1.64,3.72,1.72,6.75
		l0.05,16.98l-15.27,0.14v0.98l16.13-0.16l-0.05-16.98C998.13-403.98,997.41-406.4,995.64-408.02z M1270.15-414.58
		c3.78-9.86,5.69-14.76,9.43-24.14l1.14-2.85l-1.2-0.14l-0.8,2.02c-3.74,9.38-5.65,14.29-9.43,24.14
		c4.23,11.5,6.37,17.16,10.55,28.05l1.25,3.25l-16.91-0.14l0.33,0.96l17.44,0.14l-1.25-3.25
		C1276.52-397.42,1274.39-403.08,1270.15-414.58z M1259.11-384.44l-15.27-0.11v0.96l16.13,0.11l0.03-11.59
		c-0.28-0.85-0.57-1.7-0.87-2.54L1259.11-384.44z M1204.44-435.33l-0.09,36.52c-0.03,10.23-5.16,14.6-17.14,14.6h-0.14
		c-6.34-0.02-10.72-1.29-13.48-4.01c2.65,3.39,7.3,4.97,14.35,4.98h0.14c11.99,0,17.13-4.37,17.14-14.6l0.09-36.52
		c0.02-4.89-1.15-8.48-3.66-10.98C1203.55-442.9,1204.45-439.62,1204.44-435.33z M1222.67-404.9l-0.06,20.22l-15.27-0.08v0.96
		l16.13,0.08l0.06-20.22c0.65,0.03,1.1,0.09,1.44,0.16c0-0.55-0.09-0.71-0.09-0.73C1224.88-404.49,1224.51-404.8,1222.67-404.9z
		 M1066.37-444.32c1.73,2.22,2.59,5.31,2.59,9.32l0.09,36.3c0.03,10.22-5.13,14.6-17.21,14.65h-0.25c-6.36,0-10.74-1.23-13.45-3.9
		c2.6,3.33,7.24,4.86,14.32,4.86h0.25c12.08-0.06,17.24-4.45,17.21-14.65l-0.09-36.3C1069.81-438.68,1068.67-442.07,1066.37-444.32z
		 M1097.44-423.44l-0.87,0.02l0.03,14.68c0,0-6.92,0.11-9.26,0.16l0.05,23.75l-15.27,0.06v0.98l16.13-0.06l-0.05-23.75
		c2.33-0.05,9.26-0.16,9.26-0.16L1097.44-423.44z M1170.17-448.15c-1.89,20.37-3.77,40.75-5.63,61.12l-0.2,2.14l-19.68-0.02
		l0.09,0.98l20.45,0.02l0.21-2.14c1.55-16.76,3.09-33.53,4.64-50.27v-0.02c0-1.64,0.14-3.12,0.41-4.46
		c0.19-2.11,0.39-4.24,0.58-6.36l0.24-2.52l-0.95-0.03L1170.17-448.15z M1030.68-441.52c1.61,2.08,2.4,4.98,2.41,8.75l0.11,34.76
		c0.03,12.38-8.67,14.11-17.19,14.16h-0.38c-5.05,0-10.17-0.6-13.4-3.75c3.12,4.01,8.74,4.73,14.26,4.73h0.38
		c8.53-0.06,17.24-1.78,17.19-14.16l-0.09-34.77C1033.95-436.2,1032.88-439.4,1030.68-441.52z M1138.57-384.9l-19.68,0.02l0.09,0.98
		l20.47-0.02l2.27-24.41l-0.47-5.14L1138.57-384.9z M1097.41-449.43l0.03,14.68l-2.3,0.06c-3.22,0.09-5.17,0.16-7.87,0.25
		l0.02,10.23c0.3,0,0.58-0.02,0.87-0.02l-0.02-9.23c2.7-0.09,4.64-0.16,7.87-0.25l2.3-0.06l-0.03-15.68H1097.41z"/>
	<path class="st0" d="M1001.15-430.24c-0.02-8.03,4.1-11.64,14.74-12.76c10.64-1.12,14.81,1.78,14.84,10.23
		c0.05,13.91,0.06,20.85,0.11,34.76c0.03,8.45-4.12,11.72-14.84,11.8c-10.66,0.08-14.74-2.98-14.76-11.01
		C1001.19-410.43,1001.18-417.04,1001.15-430.24z M1018.89-431.15c0-1.92-0.74-2.54-2.96-2.33c-2.22,0.19-2.95,0.85-2.95,2.84
		c0.03,12.98,0.06,19.46,0.09,32.44c0,1.99,0.74,2.55,3.04,2.51c2.14-0.05,2.89-0.74,2.89-2.67
		C1018.95-411.5,1018.93-418.05,1018.89-431.15z"/>
	<path class="st0" d="M1036.96-433.22c-0.03-8.53,4.1-12.21,14.78-12.99c10.68-0.79,14.84,2.38,14.86,11.21
		c0.05,14.52,0.06,21.78,0.09,36.3c0.03,8.83-4.12,12.24-14.86,12.28c-10.66,0.05-14.74-3.2-14.78-11.73
		C1037.02-412.18,1036.99-419.18,1036.96-433.22z M1054.73-433.66c0-2.03-0.74-2.68-2.96-2.55c-2.22,0.14-2.96,0.8-2.95,2.9
		c0.05,13.69,0.06,20.53,0.11,34.21c0,2.1,0.74,2.7,3.04,2.67c2.14-0.03,2.89-0.76,2.89-2.78
		C1054.8-412.99,1054.78-419.88,1054.73-433.66z"/>
	<path class="st0" d="M1073.45-446.99c8.63-0.47,12.95-0.66,21.59-0.98c0.02,4.37,0.02,6.56,0.02,10.93
		c-4.07,0.13-6.1,0.19-10.16,0.35c0.02,5.98,0.02,8.96,0.03,14.93c3.71-0.09,5.57-0.14,9.27-0.24c0.02,4.37,0.02,6.56,0.02,10.93
		c-3.71,0.06-5.55,0.09-9.26,0.17c0.02,9.49,0.03,14.22,0.05,23.72c-4.56,0.02-6.84,0.03-11.4,0.05
		C1073.56-407.09,1073.51-427.04,1073.45-446.99z"/>
	<path class="st0" d="M1114.66-448.53c4.43-0.09,6.64-0.13,11.07-0.17c1.04,17.47,2.1,34.93,3.14,52.4h0.08
		c1.53-17.49,3.06-34.96,4.59-52.45c6.18-0.02,9.27-0.02,15.44,0.05c1.5,17.47,3,34.95,4.49,52.42h0.14
		c1.06-17.44,2.1-34.88,3.15-52.32c4.43,0.06,6.64,0.11,11.07,0.24c-1.89,20.37-3.77,40.75-5.63,61.12
		c-6.45-0.02-9.68-0.02-16.15-0.02c-1.58-16.98-3.15-33.98-4.73-50.97h-0.14c-1.58,16.98-3.17,33.98-4.75,50.97
		c-6.47,0-9.68,0-16.15,0.02C1118.4-407.69,1116.54-428.11,1114.66-448.53z"/>
	<path class="st0" d="M1172.41-436.36c0.02-9.05,4.18-12.46,14.86-12c10.69,0.46,14.82,4.13,14.81,13.03
		c-0.03,14.62-0.05,21.92-0.09,36.52c-0.02,8.88-4.18,12.28-14.92,12.25c-10.66-0.03-14.73-3.52-14.71-12.57
		C1172.38-414.01,1172.38-421.47,1172.41-436.36z M1190.21-435.1c0-2.08-0.74-2.84-2.96-2.92c-2.22-0.08-2.96,0.54-2.96,2.71
		c-0.03,14.22-0.05,21.32-0.06,35.55c0,2.18,0.74,2.82,3.03,2.84c2.14,0.02,2.89-0.69,2.9-2.78
		C1190.17-413.85,1190.18-420.94,1190.21-435.1z"/>
	<path class="st0" d="M1209.01-446.61c5.66,0.35,8.5,0.54,14.16,0.95c12.38,0.9,15.69,4.18,15.66,14.95
		c-0.02,2.76-0.02,4.13-0.02,6.89c-0.09,7.66-2.03,10.5-7.81,11.42v0.17c6.21,1.72,7.62,3.49,7.74,9.62
		c-0.02,6.28-0.03,9.41-0.05,15.68c-4.56-0.03-6.84-0.05-11.4-0.06c0.02-6.69,0.03-10.03,0.05-16.7c0-2.54-1.25-3.45-5.09-3.56
		c-0.77-0.02-1.15-0.03-1.92-0.05c-0.03,8.11-0.03,12.17-0.06,20.28c-4.56-0.03-6.84-0.03-11.4-0.06
		C1208.9-406.95,1208.95-426.77,1209.01-446.61z M1220.33-417.47c0.88,0.03,1.34,0.05,2.22,0.09c3.93,0.16,4.81-0.76,4.83-4.87
		c0.02-3.5,0.02-5.25,0.03-8.75c0.02-3.06-1.03-4.45-3.55-4.59c-1.39-0.08-2.08-0.13-3.49-0.21
		C1220.36-428.47,1220.36-424.81,1220.33-417.47z"/>
	<path class="st0" d="M1245.53-443.83c4.56,0.43,6.84,0.63,11.39,1.1c-0.03,9.41-0.05,14.13-0.08,23.56l-0.08,0.16l0.14,0.02
		c2.96-9.3,4.43-13.89,7.4-22.95c4.87,0.52,7.32,0.8,12.19,1.39c-3.9,9.79-5.85,14.79-9.76,25c4.35,11.8,6.51,17.6,10.87,28.92
		c-4.92-0.05-7.38-0.06-12.28-0.11c-3.37-9.87-5.06-14.89-8.44-25.04h-0.14l0.08,0.17c-0.03,9.92-0.05,14.89-0.08,24.81
		c-4.56-0.03-6.84-0.05-11.4-0.08C1245.41-405.88,1245.47-424.86,1245.53-443.83z"/>
	<path class="st0" d="M1291.28-399.9c-0.02,4.31,0.44,5.01,3.39,5.11c2.51,0.08,3.41-0.66,3.41-2.9c0-2.22,0-3.33,0-5.55
		c0-3.08-0.5-3.64-4.79-5.08c-10.87-3.23-12.49-5.22-12.54-15.33c0-1.31,0-1.97,0.02-3.28c0.03-11.13,2.54-13.44,13.61-11.94
		c10.55,1.44,14,4.38,13.99,11.73c0,2.4,0,3.6,0,5.99c-4.04-0.43-6.06-0.63-10.11-1.03c0-0.98,0-1.48,0-2.46
		c0-4.38-0.36-4.97-3.01-5.28c-2.87-0.33-3.47,0.32-3.47,3.36c0,1.37,0,2.07,0,3.44c0,3.2,0.66,3.97,4.19,5.13
		c12.17,4.23,13.5,5.85,13.5,17.06c0,12.03-2.96,15.08-14.37,14.97c-11.62-0.09-14.43-2.76-14.4-13.81c0-1.77,0-2.65,0.02-4.4
		c4.23,0.19,6.34,0.3,10.57,0.5C1291.28-402.15,1291.28-401.41,1291.28-399.9z"/>
</g>
<polygon class="st0" points="1235.72,-477.17 1236.04,-477.61 1235.44,-477.53 "/>
<polygon class="st0" points="1220.85,-496.21 1223.27,-493.13 1250.19,-497.07 1253.2,-501.22 1250.28,-500.79 "/>
<polygon class="st0" points="1229.35,-485.32 1243.12,-487.34 1246.68,-492.26 1226.28,-489.27 "/>
<polygon class="st0" points="1235.44,-477.53 1236.04,-477.61 1239.6,-482.53 1232.37,-481.48 "/>
<g>
	<polygon class="st0" points="949.18,-166.54 945.53,-161.59 979.16,-116.49 983.59,-121.44 	"/>
	<rect x="937.92" y="-143.85" class="st0" width="7.27" height="7.27"/>
	<rect x="946.6" y="-143.85" class="st0" width="7.27" height="7.27"/>
	<rect x="937.92" y="-135.48" class="st0" width="7.27" height="7.27"/>
	<rect x="946.6" y="-135.48" class="st0" width="7.27" height="7.27"/>
	<g>
		<g>
			<path class="st0" d="M931.3-167.66l-0.52,1.47l5.88,0.3l-7.51,3.69l-2.62,5.82l-2.6-3.39l-7.52,3.3l5.91-5.79l-1.45-2.71
				l-53.96,13.83l0,0l3.85,0.19l-7.51,3.69l-2.62,5.82l-2.6-3.39l-7.51,3.3l5.91-5.79l-0.3-0.55l0,0l-0.3-0.43l-6.23,1.59
				l-19.84,26.86l2.03-0.06l-0.13-0.25l6.24-0.19l6.26-5.65l-2.03,5.68l0.21,0.06l32.88-0.99l4.6-4.4l-1.55,4.31l28.92-0.88
				l37.01-48.73L931.3-167.66z M870.82-131.61l-2.62,5.82l-2.6-3.39l-7.52,3.3l5.91-5.79l-2.03-3.78l6.26-0.19l6.26-5.63l-2.03,5.68
				l5.88,0.3L870.82-131.61z M886.14-141.19l5.91-5.79l-2.03-3.78l6.24-0.19l6.26-5.65l-2.03,5.68l5.9,0.3l-7.51,3.69l-2.62,5.82
				l-2.6-3.39L886.14-141.19z M906.45-131.27l-2.62,5.82l-2.6-3.39l-7.52,3.3l5.91-5.79l-2.03-3.78l6.26-0.19l6.26-5.63l-2.03,5.68
				l5.88,0.3L906.45-131.27z"/>
		</g>
	</g>
</g>
<g>
	<path class="st0" d="M249.49,151c-8.14,0.93-12.21,1.39-20.36,2.31c0,37.47,0.09,56.16,0.09,93.73c5.18-0.37,7.77-0.56,13.05-1.02
		c22.95-1.76,28.13-7.12,28.13-28.68c0-18.32-0.09-27.48-0.09-45.8C270.31,155.54,264.2,149.34,249.49,151z"/>
	<path class="st0" d="M250,25.1C125.79,25.1,25.1,125.79,25.1,250S125.79,474.9,250,474.9S474.9,374.21,474.9,250
		S374.21,25.1,250,25.1z M270.68,401.92c-0.09-34.97-0.09-52.55-0.18-87.53c0-13.32-7.4-17.49-29.98-16.28
		c-4.53,0.28-6.75,0.37-11.29,0.65c0.09,41.45,0.09,62.18,0.09,103.63c-26.74,0.28-40.15,0.46-66.89,0.74
		c0.09-97.24,0.09-194.39,0.09-291.63c33.03-4.9,49.5-7.22,82.53-11.75c72.26-9.81,91.78,4.16,91.97,62.92
		c0,15.08,0.09,22.58,0.09,37.56c-0.37,41.82-11.57,58.57-45.43,66.62v0.93c36.45,5.64,44.69,14.71,45.71,48.02
		c0.09,34.23,0.09,51.35,0.19,85.49C310.83,401.55,297.42,401.65,270.68,401.92z"/>
</g>
</svg>
