<?xml version="1.0" encoding="utf-8"?>
<!-- Generator: Adobe Illustrator 27.9.0, SVG Export Plug-In . SVG Version: 6.00 Build 0)  -->
<svg version="1.1" id="Layer_1" xmlns="http://www.w3.org/2000/svg" xmlns:xlink="http://www.w3.org/1999/xlink" x="0px" y="0px"
	 viewBox="0 0 100 125" style="enable-background:new 0 0 100 125;" xml:space="preserve">
<style type="text/css">
	.st0{fill:#FFFFFF;}
</style>
<g>
	<path class="st0" d="M64.97,18.96c0.76,0.33,1.58,0.23,2.37,0.31c1.83,0.2,3.66,0.4,5.48,0.67c0.4,0.06,0.51,0.19,0.5,0.58
		c-0.01,4.14-0.02,8.28,0,12.41c0,0.54-0.27,0.5-0.63,0.5c-2.01-0.01-4.02-0.01-6.04,0c-1.51,0-3.01,0.14-4.42,0.72
		c-2.8,1.13-4.29,3.33-4.56,6.24c-0.35,3.76-0.07,7.53-0.14,11.3c-0.01,0.64,0.42,0.48,0.75,0.48c3.77,0.01,7.54,0,11.31,0
		c0.82,0,1.65,0.03,2.47-0.01c0.54-0.03,0.6,0.2,0.53,0.65c-0.54,3.44-1.07,6.88-1.6,10.32c-0.2,1.29-0.45,2.57-0.57,3.86
		c-0.07,0.8-0.36,0.99-1.15,0.98c-3.63-0.05-7.26,0-10.88-0.04c-0.73-0.01-0.87,0.2-0.87,0.89c0.02,12.07,0.02,24.15,0.01,36.22
		c0,0.34-0.04,0.67-0.07,1.01c-5.67,0-11.34,0-17.01,0c0.01-0.31,0.03-0.62,0.03-0.93c0-12.04-0.01-24.08,0.02-36.12
		c0-0.8-0.11-1.09-1.02-1.07c-3.99,0.06-7.99,0.02-11.98,0.04c-0.61,0-0.86-0.08-0.86-0.8c0.04-4.73,0.04-9.46,0-14.19
		c-0.01-0.71,0.23-0.82,0.86-0.81c4.05,0.03,8.1,0,12.15,0.03c0.64,0,0.85-0.12,0.85-0.82c-0.04-3.68-0.03-7.37-0.01-11.05
		c0.02-4.33,0.71-8.51,2.93-12.32c2.79-4.78,7.06-7.42,12.38-8.54c0.84-0.18,1.72-0.11,2.51-0.5
		C60.55,18.96,62.76,18.96,64.97,18.96z"/>
</g>
</svg>
