<?xml version="1.0" encoding="utf-8"?>
<!-- Generator: Adobe Illustrator 27.9.0, SVG Export Plug-In . SVG Version: 6.00 Build 0)  -->
<svg version="1.1" id="Layer_1" xmlns="http://www.w3.org/2000/svg" xmlns:xlink="http://www.w3.org/1999/xlink" x="0px" y="0px"
	 viewBox="0 0 189.99 201.29" style="enable-background:new 0 0 189.99 201.29;" xml:space="preserve">
<style type="text/css">
	.st0{fill-rule:evenodd;clip-rule:evenodd;fill:#FFFFFF;}
</style>
<path class="st0" d="M126.04,117.25V33.95c-2.05-0.8-4.14-1.5-6.27-2.1c-6-1.69-12.32-2.6-18.86-2.6c-38.32,0-69.4,31.08-69.4,69.4
	c0,20.82,9.18,39.51,23.7,52.23v8.09C37,145.15,25.24,123.28,25.24,98.66c0-41.78,33.89-75.67,75.67-75.67
	c6.51,0,12.83,0.82,18.86,2.37c2.13,0.55,4.22,1.18,6.27,1.91c2.23,0.78,4.41,1.67,6.53,2.65v6.98v74.4h19.55v5.95H126.04
	L126.04,117.25z M170.3,98.66c0,38.32-31.08,69.4-69.4,69.4c-9.41,0-18.38-1.87-26.56-5.27c-2.15-0.89-4.24-1.89-6.27-2.98V86.12
	h11.79v-6.05H49.69v6.05h11.79v69.65v7.48c2.13,1.3,4.33,2.5,6.59,3.59c2.04,0.99,4.13,1.88,6.27,2.68c8.27,3.1,17.22,4.8,26.56,4.8
	c41.78,0,75.67-33.89,75.67-75.67c0-27.96-15.17-52.38-37.73-65.48v7.37C157.79,52.94,170.3,74.34,170.3,98.66L170.3,98.66z
	 M184.52,98.66c0-46.17-37.44-83.61-83.61-83.61S17.29,52.48,17.29,98.66s37.44,83.61,83.61,83.61S184.52,144.83,184.52,98.66
	L184.52,98.66z M95.57,80.94c-2.34,1.01-4.36,2.39-6.05,4.14c-1.7,1.75-3.02,3.8-3.96,6.13c-0.94,2.34-1.41,4.83-1.41,7.49
	c0,2.69,0.48,5.21,1.43,7.54c0.96,2.34,2.28,4.36,3.96,6.08c1.68,1.72,3.67,3.07,5.98,4.06c2.3,0.99,4.82,1.49,7.54,1.49
	c1.74,0,3.32-0.15,4.75-0.45c1.43-0.3,2.75-0.74,3.96-1.33c1.2-0.58,2.33-1.27,3.37-2.07c1.04-0.8,2.04-1.71,3-2.74l-4.2-4.25
	c-1.59,1.49-3.21,2.66-4.83,3.53c-1.63,0.87-3.58,1.3-5.84,1.3c-1.77,0-3.41-0.35-4.91-1.04c-1.5-0.69-2.81-1.64-3.9-2.84
	c-1.1-1.2-1.95-2.61-2.55-4.22c-0.6-1.61-0.9-3.34-0.9-5.18c0-1.84,0.3-3.56,0.9-5.15c0.6-1.59,1.45-2.98,2.55-4.17
	c1.1-1.19,2.4-2.12,3.9-2.82c1.5-0.69,3.14-1.04,4.91-1.04c2.12,0,4.02,0.43,5.68,1.27c1.66,0.85,3.24,1.97,4.73,3.35l4.2-4.83
	c-0.89-0.85-1.82-1.63-2.81-2.34c-0.99-0.71-2.07-1.32-3.24-1.83c-1.17-0.51-2.45-0.91-3.85-1.19c-1.4-0.28-2.95-0.42-4.65-0.42
	C100.49,79.43,97.91,79.93,95.57,80.94z"/>
</svg>
