<?xml version="1.0" encoding="utf-8"?>
<!-- Generator: Adobe Illustrator 27.9.0, SVG Export Plug-In . SVG Version: 6.00 Build 0)  -->
<svg version="1.1" id="Layer_1" xmlns="http://www.w3.org/2000/svg" xmlns:xlink="http://www.w3.org/1999/xlink" x="0px" y="0px"
	 viewBox="0 0 360 360" style="enable-background:new 0 0 360 360;" xml:space="preserve">
<style type="text/css">
	.st0{fill-rule:evenodd;clip-rule:evenodd;fill:#233F95;}
	.st1{fill:#FFFFFF;}
	.st2{clip-path:url(#SVGID_00000119092990620020521670000005901654479607207577_);fill:#FFFFFF;}
</style>
<rect y="0" class="st0" width="360" height="360"/>
<g>
	<path class="st1" d="M233.82,256.92l-1.63-2.32h-1.4v2.32h-1.28v-6.72h3c0.89,0,1.6,0.27,2.04,0.71c0.36,0.35,0.55,0.85,0.55,1.42
		v0.04c0,1.08-0.64,1.76-1.56,2.04l1.81,2.52H233.82L233.82,256.92z M232.11,248.42c-3.02,0-5.31,2.4-5.31,5.32v0.03
		c0,2.92,2.27,5.29,5.27,5.29c3.02,0,5.31-2.4,5.31-5.32v-0.03C237.39,250.79,235.12,248.42,232.11,248.42L232.11,248.42z"/>
	<g>
		<defs>
			<rect id="SVGID_1_" x="66.46" y="66.46" width="227.09" height="227.09"/>
		</defs>
		<clipPath id="SVGID_00000114795008437173438850000017614105631197016997_">
			<use xlink:href="#SVGID_1_"  style="overflow:visible;"/>
		</clipPath>
		<path style="clip-path:url(#SVGID_00000114795008437173438850000017614105631197016997_);fill:#FFFFFF;" d="M233.78,252.4
			c0-0.67-0.5-1.05-1.33-1.05h-1.67v2.13h1.67c0.83,0,1.33-0.41,1.33-1.05V252.4L233.78,252.4z"/>
		<path style="clip-path:url(#SVGID_00000114795008437173438850000017614105631197016997_);fill:#FFFFFF;" d="M238.51,253.75
			c0,3.49-2.84,6.42-6.44,6.42c-3.6,0-6.4-2.89-6.4-6.38v-0.03c0-3.49,2.84-6.42,6.43-6.42c3.6,0,6.4,2.89,6.4,6.38V253.75
			L238.51,253.75z M288.07,145.1c-16.88,44.71-54.94,110.92-90.45,110.92c-16.71,0-26.6-8.13-26.6-24.4
			c0-11.87,12.53-36.05,18.24-46.61h-0.43c-43.75,49.47-58.7,71-75.19,71c-6.59,0-13.63-3.73-13.63-12.31
			c0-19.34,50.78-102,50.78-118.05c0-3.74-1.98-4.62-4.61-4.62c-15.61,0-24.62,12.31-35.83,47.27c-1.76,5.5-15.83,13.41-20.67,13.41
			c-3.08,0-3.3-1.54-3.3-3.96c0-12.75,20.88-76.5,60.45-76.5c13.41,0,25.94,6.82,25.94,20c0,7.04-2.86,16.71-7.04,25.28
			l-39.57,80.67h0.44c22.86-23.52,65.95-73.42,78.48-88.81c2.86-3.52,4.4-7.48,9.01-7.48c6.81,0,14.95,4.84,14.95,6.82
			c0,7.47-37.81,77.82-37.81,92.99c0,3.74,3.95,5.49,7.47,5.49c15.82,0,59.58-54.01,76.03-118.83
			c-20.32-30.7-55.17-50.96-94.74-50.96c-62.71,0-113.54,50.84-113.54,113.54c0,62.71,50.84,113.55,113.54,113.55
			c62.71,0,113.54-50.84,113.54-113.55C293.54,167.82,291.62,156.1,288.07,145.1L288.07,145.1z"/>
	</g>
</g>
</svg>
