<?xml version="1.0" encoding="utf-8"?>
<!-- Generator: Adobe Illustrator 27.9.0, SVG Export Plug-In . SVG Version: 6.00 Build 0)  -->
<svg version="1.1" id="Layer_1" xmlns="http://www.w3.org/2000/svg" xmlns:xlink="http://www.w3.org/1999/xlink" x="0px" y="0px"
	 viewBox="0 0 581 276" style="enable-background:new 0 0 581 276;" xml:space="preserve">
<style type="text/css">
	.st0{fill:#0054A6;}
</style>
<g>
	<g>
		<g>
			<path class="st0" d="M96.97,195.81h0.52c27.17-27.96,78.39-87.27,93.28-105.56c3.4-4.18,5.22-8.89,10.71-8.89
				c8.1,0,17.76,5.75,17.76,8.1c0,8.88-44.94,92.49-44.94,110.53c0,4.44,4.7,6.53,8.88,6.53c18.81,0,71.07-63.49,90.67-141.88
				c1.04-4.18,19.6-10.45,23.25-10.45c1.83,0,2.35,2.61,2.35,5.49c0,31.36-61.4,170.36-117.58,170.36c-19.86,0-31.62-9.67-31.62-29
				c0-14.11,14.89-42.85,21.68-55.39h-0.52c-52,58.79-69.77,84.39-89.36,84.39c-7.84,0-16.2-4.44-16.2-14.63
				c0-22.99,60.36-121.23,60.36-140.31c0-4.44-2.35-5.49-5.49-5.49c-18.55,0-29.27,14.63-42.59,56.18
				c-2.09,6.53-18.81,15.94-24.56,15.94c-3.66,0-3.92-1.83-3.92-4.7c0-15.15,24.82-90.93,71.85-90.93c15.94,0,30.83,8.1,30.83,23.78
				c0,8.36-3.4,19.86-8.36,30.05L96.97,195.81z"/>
			<g>
				<path class="st0" d="M303.97,137.82c-4.89,0-8.72-4.92-9.41-9.75c-1.47-10.34,10.75-31.7,15.48-33.48
					c0.38-0.09,1.35-0.17,2.52-0.17c2.44,0,5.93,0.42,6.13,1.86c0.02,0.17-0.04,0.42-0.2,0.68c-1.57,3.39-13.08,25.6-12.25,31.45
					c0.18,1.27,0.84,1.78,1.62,1.78c6.06,0,15.03-16.02,15.91-16.02c1.08,0,1.45,1.95,1.62,3.14
					C325.62,118.83,314.14,137.82,303.97,137.82z"/>
				<path class="st0" d="M351.78,137.73c-4.6,0-9.44-3.14-10.07-7.54c-1.37-9.66,6.94-23.39,9.05-26.44l-0.42-0.17
					c-4.74,4.49-13.84,14.75-18.29,21.95c-4.36,7.12-5.61,12.12-7.66,12.12c-1.96,0-6.62-2.54-7.07-5.68
					c-0.57-3.98,13.29-37.89,17.59-37.89c1.47,0,6.91,1.1,7.24,3.48c0.3,2.12-2.13,8.39-2.41,9.83l0.11,0.09
					c1.54-1.53,11.09-12.8,16.47-12.8c3.62,0,8.61,2.12,8.83,3.64c0.33,2.29-0.64,3.73-1.69,6.02c-0.95,2.29-9.54,19.58-9.02,23.22
					c0.14,1.02,0.55,1.78,2.5,1.78c5.09,0,13.59-15.17,14.47-15.17c0.88,0,1.48,1.44,1.68,2.88
					C373.44,119.51,361.37,137.73,351.78,137.73z"/>
				<path class="st0" d="M406.12,127.82c0.12,0.85,0.69,1.44,1.67,1.44c6.26,0,14.39-15,15.27-15c0.98,0,1.58,1.44,1.81,3.05
					c0.23,1.61-11.45,19.92-20.06,19.92c-6.26,0-10.25-3.98-11.56-7.04c-1.1,1.87-6.03,7.8-12.29,7.8c-5.38,0-11.2-3.81-12.28-11.36
					c-1.77-12.46,12.45-32.12,28.49-32.12c5.58,0,7.47,5.09,7.68,5.85c2.06-4.07,12.51-30.82,14.46-30.82c3.91,0,7.11,3.9,7.5,6.7
					C427.29,79.53,405.13,120.87,406.12,127.82z M395.94,99.59c-8.31,0-16.33,17.88-15.17,26.02c0.34,2.37,1.52,3.81,3.58,3.81
					c5.57,0,16.64-21.87,16.34-23.99C400.07,101.12,397.9,99.59,395.94,99.59z"/>
				<path class="st0" d="M472.23,117.73c-3.77,8.56-12.81,12.12-18.97,12.12c-0.29,0-0.49,0-0.78,0c-4.4,4.83-9.88,8.22-16.24,8.22
					c-8.22,0-14.26-3.98-15.42-12.12c-1.76-12.37,9.78-31.62,25.63-31.62c2.84,0,5.51,0.59,8.08,1.1c4.51,0.9,6.84,3.39,7.32,6.78
					c0.87,6.1-0.87,13.82-4.5,20.6c0.61,0.17,1.12,0.34,1.71,0.34c5.67,0,10.11-8.39,11.48-8.39c0.78,0,1.62,1.1,1.78,2.2
					C472.36,117.31,472.3,117.56,472.23,117.73z M451.39,100.18c-7.73,0-18.06,14.66-16.63,24.75c0.41,2.88,1.87,4.92,4.91,4.92
					c1.76,0,3.42-0.68,5.03-1.78c1.54-0.97,2.71-2.3,4.17-4.13c1.49-1.87,2.59-3.89,2.6-3.91c2.74-5.33,4.64-12.15,4.16-15.52
					C455.32,102.39,454.22,100.18,451.39,100.18z"/>
				<g>
					<path class="st0" d="M293.53,207.48c-3.77,8.56-11.38,12.12-17.54,12.12c-0.29,0-0.49,0-0.78,0c-4.4,4.83-9.88,8.22-16.24,8.22
						c-8.22,0-14.26-3.98-15.42-12.12c-1.76-12.38,9.78-31.62,25.63-31.62c2.84,0,5.41,0.61,8.08,1.1c4.52,0.84,6.84,3.39,7.32,6.78
						c0.87,6.1-0.87,13.81-4.5,20.6c0.61,0.17,1.13,0.34,1.71,0.34c5.67,0,8.69-8.39,10.05-8.39c0.78,0,1.62,1.1,1.78,2.2
						C293.67,207.06,293.61,207.32,293.53,207.48z M274.11,189.94c-7.73,0-18.06,14.66-16.62,24.75c0.41,2.88,1.87,4.92,4.9,4.92
						c1.76,0,3.42-0.68,5.03-1.78c3-1.85,5.16-4.86,6.62-7.27c2.76-5.34,4.79-12.9,4.31-16.29
						C278.05,192.14,276.95,189.94,274.11,189.94z"/>
					<path class="st0" d="M310.84,227.4c-6.16,0-11.4-3.14-12.27-9.24c-1.18-8.31,9.85-23.56,9.81-23.82
						c-0.02-0.17-3.42-1.36-5.08-1.36c-0.39,0-0.67,0.09-0.75,0.26c-3.83,6.78-7.74,12.97-10.56,17.21
						c-0.23,0.42-0.59,0.68-0.98,0.68c-0.88,0-1.61-1.02-1.83-2.54c-0.08-0.59,0.38-1.44,0.62-1.87c1.04-1.61,3.11-4.92,5.07-9.75
						c2.21-5.09,2.28-8.73,3.6-12.55c1.35-4.24,2.7-5.08,5.93-5.08c1.47,0,2.36,0.76,2.56,2.2c0.24,1.69-0.64,2.37-0.6,2.63
						c0.05,0.34,0.67,0.59,2.24,0.59c4.6,0,9.98-0.68,11.35-0.68c2.74,0,7.02,4.66,7.3,6.61c0.22,1.53-2.62,2.88-4.47,5
						c-3.22,3.48-11.55,15.77-10.61,22.38c0.08,0.59,0.57,1.27,1.55,1.27c2.44,0,8.05-4.13,11.12-7.47
						c4.03-4.38,6.87-7.72,7.36-7.72c0.88,0-0.04,6.03-1.23,7.01C328.86,212.93,319.35,227.4,310.84,227.4z"/>
					<path class="st0" d="M341.26,211.81c-0.52,2.54-0.78,4.83-0.49,6.87c0.23,1.61,2.18,2.97,4.24,2.97
						c9.29,0,18.71-17.63,19.79-17.63s1.54,1.87,1.67,2.8c0.42,2.97-12.22,20.68-24.83,20.68c-5.77,0-12.2-5.34-12.77-9.32
						c-1.93-13.56,20.26-58.8,39.14-58.8c3.82,0,7.13,1.95,7.32,3.31C375.81,166.15,356.96,203.92,341.26,211.81z M367.83,166.41
						c-1.47,0-16.61,21.24-23.45,36.42c9.5-7.46,23.99-34.64,23.78-36.16C368.13,166.49,367.92,166.41,367.83,166.41z"/>
					<path class="st0" d="M399.49,217.57c0.12,0.85,0.69,1.44,1.67,1.44c6.26,0,14.39-15,15.27-15c0.98,0,1.58,1.44,1.81,3.05
						c0.23,1.61-11.45,19.92-20.05,19.92c-6.26,0-10.25-3.98-11.56-7.03c-1.1,1.87-6.03,7.8-12.29,7.8
						c-5.38,0-11.2-3.81-12.28-11.36c-1.77-12.46,12.45-32.12,28.49-32.12c5.58,0,7.47,5.08,7.68,5.85
						c2.06-4.07,12.51-30.82,14.46-30.82c3.91,0,7.11,3.9,7.5,6.7C420.66,169.29,398.5,210.62,399.49,217.57z M389.31,189.34
						c-8.31,0-16.33,17.89-15.17,26.02c0.34,2.37,1.52,3.81,3.58,3.81c5.57,0,16.64-21.87,16.34-23.99
						C393.44,190.87,391.26,189.34,389.31,189.34z"/>
				</g>
				<path class="st0" d="M498.68,126.81c-1.47,4.05,1.25,4.22,3.95,1.81c4-3.57,6.4-7.49,9.3-12.73c3.96-7.14,5.34-14.63,6.02-16.78
					c0.31-0.98,0.62-2.11,0.62-2.11s0.28-1.1,1.33-1.66c1.4-0.75,4.63-1.38,7.12-1.73c3.75-0.53,2.5,1.36,2.05,4.32
					c-0.91,6-4.24,13.69-6.98,19.07c-1.48,2.9-3.38,6.54-6.11,10.19c-1.4,1.87-2.82,3.29-4.82,5.47c-2.69,2.93-5.94,5.02-8.93,5.54
					c-1.77,0.31-3.26,0.24-4.36,0.09c-1.89-0.26-2.8-0.7-2.8-0.7c-3.15-1.4-5.69-3.59-5.55-6.27c0.22-4.25,0.82-7.67,4.17-17.23
					c-7.65,13.35-18.22,23.01-18.6,23.24c-0.3,0.3-1.09,0.65-1.67,0.65c-2.74,0-7.39-3.83-7.56-5.71
					c-0.23-2.55,3.52-15.16,5.98-23.68c1.86-6.62,3.23-10.04,4.2-12.07c0.66-1.39,0.6-2.13,3.52-2.07c2.35,0.06,6.23,0.85,6.47,3.41
					c0.31,3.41-5.34,19.68-7.26,24.45l-1.42,4.66c8.99-6.32,17.91-25.49,20.73-28.98c1.14-1.45,1.67-2.13,2.45-2.13
					c2.35,0,7.29,2.73,7.45,4.51c0.32,3.49-2.61,9.17-5.95,17.61C502.02,117.96,500.04,123.09,498.68,126.81z"/>
			</g>
			<circle class="st0" cx="319.34" cy="82.4" r="6.55"/>
		</g>
	</g>
	<g>
		<g>
			<path class="st0" d="M422.75,167.72v-0.03c0-3.1,2.52-5.7,5.72-5.7c3.2,0,5.69,2.57,5.69,5.67v0.03c0,3.1-2.52,5.7-5.72,5.7
				C425.24,173.4,422.75,170.83,422.75,167.72z M433.56,167.69v-0.03c0-2.82-2.19-5.11-5.09-5.11c-2.92,0-5.12,2.32-5.12,5.14v0.03
				c0,2.82,2.19,5.11,5.09,5.11C431.35,172.83,433.56,170.51,433.56,167.69z M426.15,164.54h2.66c0.79,0,1.42,0.24,1.81,0.63
				c0.32,0.32,0.49,0.76,0.49,1.26v0.03c0,0.96-0.57,1.56-1.39,1.81l1.61,2.24h-1.35l-1.45-2.06h-1.24v2.06h-1.13V164.54z
				 M428.77,167.46c0.74,0,1.18-0.36,1.18-0.93v-0.03c0-0.6-0.44-0.93-1.18-0.93h-1.48v1.89H428.77z"/>
		</g>
	</g>
</g>
</svg>
