<?xml version="1.0" encoding="utf-8"?>
<!-- Generator: Adobe Illustrator 25.0.1, SVG Export Plug-In . SVG Version: 6.00 Build 0)  -->
<svg version="1.1" id="Layer_1" xmlns="http://www.w3.org/2000/svg" xmlns:xlink="http://www.w3.org/1999/xlink" x="0px" y="0px"
	 viewBox="0 0 500 500" style="enable-background:new 0 0 500 500;" xml:space="preserve">
<style type="text/css">
	.st0{fill:#FFFFFF;}
</style>
<path class="st0" d="M464.1,180.9c-33.4,88.6-108.8,219.7-179.2,219.7c-33.1,0-52.7-16.1-52.7-48.3c0-23.5,24.8-71.4,36.1-92.3h-0.9
	c-86.7,98-116.3,140.7-148.9,140.7c-13.1,0-27-7.4-27-24.4c0-38.3,100.6-202.1,100.6-233.9c0-7.4-3.9-9.1-9.1-9.1
	c-30.9,0-48.8,24.4-71,93.6c-3.5,10.9-31.4,26.6-40.9,26.6c-6.1,0-6.5-3-6.5-7.8C64.5,220.3,105.9,94,184.3,94
	c26.6,0,51.4,13.5,51.4,39.6c0,13.9-5.7,33.1-13.9,50.1l-78.4,159.8h0.9c45.3-46.6,130.6-145.4,155.5-175.9
	c5.7-7,8.7-14.8,17.9-14.8c13.5,0,29.6,9.6,29.6,13.5c0,14.8-74.9,154.2-74.9,184.2c0,7.4,7.8,10.9,14.8,10.9
	c31.3,0,118-107,150.6-235.4C397.4,65.2,328.4,25.1,250,25.1C125.8,25.1,25.1,125.8,25.1,250c0,124.2,100.7,224.9,224.9,224.9
	c124.2,0,224.9-100.7,224.9-224.9C474.9,225.9,471.1,202.6,464.1,180.9z"/>
</svg>
