<?xml version="1.0" encoding="utf-8"?>
<!-- Generator: Adobe Illustrator 27.9.0, SVG Export Plug-In . SVG Version: 6.00 Build 0)  -->
<svg version="1.1" id="Layer_1" xmlns="http://www.w3.org/2000/svg" xmlns:xlink="http://www.w3.org/1999/xlink" x="0px" y="0px"
	 viewBox="0 0 100 125" style="enable-background:new 0 0 100 125;" xml:space="preserve">
<style type="text/css">
	.st0{fill:#10B981;}
</style>
<path class="st0" d="M86.23,37.73c-18.99-11.3-38.04-12.19-55.11-2.75c-9.76,5.35-16.63,14.23-17.9,23.34
	c-0.84,5.68,0.7,11.46,4.26,15.97c5.32-9.88,13.42-17.98,23.31-23.28c0.69-0.44,1.6-0.24,2.04,0.45c0.44,0.69,0.24,1.6-0.45,2.04
	c-0.05,0.03-0.09,0.06-0.14,0.08C22.92,64.35,16.62,80.54,13.04,95c0,0.32,0.1,0.63,0.3,0.89c0.56,0.71,1.54,0.56,3.34,0.59h3.19
	c3.22,0,3.25-0.21,3.46-1.24c0.89-4.46,2.28-8.81,4.14-12.96c14.38,6.33,34.11-2.96,42.36-12.9c3.29-4.25,5.75-9.09,7.25-14.26
	c2.01-5.5,3.93-10.83,9.26-14.79c0.68-0.46,0.86-1.37,0.4-2.05c-0.11-0.16-0.24-0.3-0.4-0.4L86.23,37.73z"/>
</svg>
