<?xml version="1.0" encoding="utf-8"?>
<!-- Generator: Adobe Illustrator 27.9.0, SVG Export Plug-In . SVG Version: 6.00 Build 0)  -->
<svg version="1.1"
	 id="Layer_1" xmlns:sodipodi="http://sodipodi.sourceforge.net/DTD/sodipodi-0.dtd" xmlns:rdf="http://www.w3.org/1999/02/22-rdf-syntax-ns#" xmlns:inkscape="http://www.inkscape.org/namespaces/inkscape" xmlns:svg="http://www.w3.org/2000/svg" xmlns:dc="http://purl.org/dc/elements/1.1/" xmlns:cc="http://creativecommons.org/ns#"
	 xmlns="http://www.w3.org/2000/svg" xmlns:xlink="http://www.w3.org/1999/xlink" x="0px" y="0px" viewBox="0 0 100 102.12"
	 style="enable-background:new 0 0 100 102.12;" xml:space="preserve">
<style type="text/css">
	.st0{fill-rule:evenodd;clip-rule:evenodd;fill:#FFFFFF;}
</style>
<g transform="translate(0,-952.36218)">
	<path class="st0" d="M50,959.43c-18.76,0-34,15.39-34,34.28c0,12.98,5.73,19.36,12.38,25.53c6.64,6.17,14.24,12.48,19.75,26.91
		c0.41,1.03,1.57,1.53,2.6,1.12c0.51-0.2,0.92-0.61,1.12-1.12c5.51-14.43,13.11-20.73,19.75-26.91
		c6.64-6.17,12.41-12.56,12.41-25.53C84,974.82,68.77,959.43,50,959.43z M50,982.18c6.61,0,12,5.39,12,12c0,6.6-5.39,12-12,12
		c-6.6,0-12-5.4-12-12C38,987.57,43.4,982.18,50,982.18z"/>
</g>
</svg>
