<?xml version="1.0" encoding="utf-8"?>
<!-- Generator: Adobe Illustrator 27.9.0, SVG Export Plug-In . SVG Version: 6.00 Build 0)  -->
<svg version="1.1" id="Layer_1" xmlns="http://www.w3.org/2000/svg" xmlns:xlink="http://www.w3.org/1999/xlink" x="0px" y="0px"
	 viewBox="0 0 32 40" style="enable-background:new 0 0 32 40;" xml:space="preserve">
<style type="text/css">
	.st0{fill:#FFFFFF;}
</style>
<path class="st0" d="M28.61,24.36L25.44,22c-1.35-1.02-3.28-0.88-4.48,0.32l-1.51,1.52c-0.47,0.46-1.21,0.55-1.77,0.21
	c-2.36-1.44-4.29-3.37-5.73-5.73c-0.34-0.56-0.25-1.3,0.21-1.77l1.52-1.51c1.2-1.2,1.34-3.13,0.32-4.49l-2.36-3.16
	c-0.56-0.74-1.37-1.21-2.29-1.34C8.43,5.93,7.53,6.17,6.79,6.73L4.57,8.45c-2.44,1.89-3.25,5.29-1.9,8.08
	c3.62,7.53,9.27,13.18,16.8,16.8c0.91,0.44,1.88,0.65,2.84,0.65c2,0,3.97-0.9,5.24-2.55l1.72-2.22c0.56-0.74,0.81-1.65,0.68-2.56
	C29.83,25.73,29.35,24.92,28.61,24.36z"/>
</svg>
