<?xml version="1.0" encoding="utf-8"?>
<!-- Generator: Adobe Illustrator 25.0.1, SVG Export Plug-In . SVG Version: 6.00 Build 0)  -->
<svg version="1.1" id="Layer_1" xmlns="http://www.w3.org/2000/svg" xmlns:xlink="http://www.w3.org/1999/xlink" x="0px" y="0px"
	 viewBox="0 0 161.3 151.8" style="enable-background:new 0 0 161.3 151.8;" xml:space="preserve">
<style type="text/css">
	.st0{fill-rule:evenodd;clip-rule:evenodd;fill:#A3A3A3;}
</style>
<g>
	<path class="st0" d="M80.6,5.9c38.8,0,70,31.2,70,70s-31.2,70-70,70s-70-31.2-70-70S41.9,5.9,80.6,5.9z M80.6,32.8
		c12.7,0,22.9,10.3,22.9,22.9S93.3,78.3,80.6,78.3s-22.9-9.9-22.9-22.5S68,32.8,80.6,32.8z M35.6,115.5
		c10.3-16.2,26.9-26.9,45.1-26.9c18.6,0,34.8,10.7,45.5,26.9C114.7,128.5,98,136,80.6,136S46.6,128.5,35.6,115.5z"/>
</g>
</svg>
