<?xml version="1.0" encoding="utf-8"?>
<!-- Generator: Adobe Illustrator 27.9.0, SVG Export Plug-In . SVG Version: 6.00 Build 0)  -->
<svg version="1.1" id="Layer_1" xmlns="http://www.w3.org/2000/svg" xmlns:xlink="http://www.w3.org/1999/xlink" x="0px" y="0px"
	 viewBox="0 0 207.09 211.75" style="enable-background:new 0 0 207.09 211.75;" xml:space="preserve">
<style type="text/css">
	.st0{fill:#64ABDE;}
	.st1{fill:#C3E1F6;}
</style>
<g>
	<path class="st0" d="M103.62,176.96c0.66-0.04,1.33-0.02,1.99-0.12c4.31-0.65,6.7,0.67,5.82,5.52c-0.15,0.8,0.02,1.66,0.05,2.49
		c-2.33,0-4.66,0-6.99,0C102.81,182.37,103.55,179.63,103.62,176.96z"/>
	<path class="st0" d="M144.26,83.12c-0.19,2.63,0.94,6.17-1.98,7.34c-2.01,0.8-5.44,1.91-7.17-1.53c0.26-2.37,0.85-4.76-0.38-7.06
		c0,0-0.21-0.28-0.21-0.27c-2.34-1.63-5-0.46-7.48-0.85c-1.02-7.66-0.67-8.1,6.18-7.64c2.03,0.14,4.76,2.29,5.16-2.06
		c0.08-0.83,1.5-1.18,2.54-0.54c0.99,0.6,2.1,1.08,2.92,1.85c1.76,1.66,6.1,2.6,4.1,5.55c-1.42,2.09-5.4,2.64-8.6,1.65
		c-0.89-0.28-1.26-2.42-2.66-0.78c-0.27,0.32-0.32,0.95-0.27,1.41c0.15,1.63,1.44,1.53,2.58,1.58c1.48,0.06,2.97,0.09,4.46,0.13
		C143.72,82.3,143.99,82.71,144.26,83.12z"/>
	<path class="st0" d="M156.45,147.87c-0.01-2.09,0.04-4.18-0.05-6.26c-0.1-2.25,1.25-2.69,3.05-2.7c2.89,0.1,5.78,0.19,8.68,0.29
		c-1.7,9.03-5.93,16.82-11.65,23.88c-1.2-0.29-3.08,0.01-2.9-1.87C154.01,156.67,153.33,151.84,156.45,147.87z"/>
	<path class="st0" d="M158.83,105.8c-0.34,1.64-1.2,4.19-2.84,2.92c-3.91-3.02-3.86,1.44-5.61,2.36c-2.93-1.89-5.33-3.92-2.08-7.51
		c1.3,0.16,2.59,0.33,3.89,0.49c0.93-0.1,1.51-0.52,1.38-1.57c-1.62-1.1-3.42-0.51-5.15-0.56c0,0-0.01-0.01-0.01-0.01
		c-0.04-2.35-0.08-4.7-0.12-7.05c2.39,0.01,4.78,0.01,7.16,0.02c0.12,1.73,0.24,3.45,0.36,5.18
		C153.34,103.81,158.3,103.64,158.83,105.8z"/>
	<path class="st0" d="M169.53,119.15c-9.19-0.78-9.19-0.78-8.99-10.18c0.64-0.07,1.28-0.19,1.92-0.21c7.38-0.22,7.38-0.21,8.29,7.11
		c-0.07,1.02-0.14,2.05-0.2,3.07C170.21,119.01,169.87,119.08,169.53,119.15z"/>
	<path class="st0" d="M80.54,63.71c-3.68,0.76-4.85-0.68-4.91-4.45c-0.08-4.21,2.02-4.31,5.18-4.39c3.34-0.08,4.61,0.82,4.62,4.4
		C85.44,63.06,84.2,64.5,80.54,63.71z"/>
	<path class="st0" d="M59.85,106.53c-3.48,0.82-4.29-0.83-4.45-4.22c-0.2-4.31,2.12-4.3,5.2-4.28c2.88,0.02,4.93-0.03,4.94,4.02
		C65.57,106.49,63.34,106.95,59.85,106.53z"/>
	<path class="st0" d="M86.32,82.85c0.52,3.13-0.06,4.94-3.98,4.93c-3.96,0-4.67-1.71-4.69-5.14c-0.02-3.46,1.18-4.57,4.65-4.66
		C86.19,77.89,86.86,79.69,86.32,82.85z"/>
	<path class="st0" d="M96.33,72.37c0.63,3.27-0.54,4.6-4.22,4.64c-4.26,0.04-4.35-2.24-4.43-5.39c-0.09-3.37,0.98-4.61,4.55-4.74
		C96.71,66.72,96.56,69.28,96.33,72.37z"/>
	<path class="st0" d="M71.79,84.9c-4.8,0.89-4.25-2.25-4.48-5.17c-0.34-4.41,2.64-3.52,5.23-3.78c4.22-0.44,3.8,2.24,3.98,5.03
		C76.78,84.94,74.73,85.51,71.79,84.9z"/>
	<path class="st0" d="M80.34,155.34c0.9,4.27-1.37,4.57-4.45,4.64c-3.31,0.08-4.63-0.82-4.64-4.39c-0.01-3.62,0.98-4.87,4.73-4.83
		C79.73,150.81,81.23,152,80.34,155.34z"/>
	<path class="st0" d="M61.68,65.9c-0.82-3.82,1.53-3.99,4.57-4.16c4.03-0.22,3.95,2.06,4.05,4.95c0.13,3.66-1.63,4.26-4.83,4.38
		C61.33,71.23,61.39,68.85,61.68,65.9z"/>
	<path class="st0" d="M64.54,87.25c3.41-0.68,4.06,1.08,4.16,4.2c0.11,3.61-1.27,4.45-4.64,4.48c-3.47,0.03-4.58-1.03-4.58-4.54
		C59.48,87.53,61.35,86.85,64.54,87.25z"/>
	<path class="st0" d="M120.5,173.83c0.04,0.66,0.14,1.32,0.12,1.97c-0.18,8.85,1.5,8.19-8.14,8.03c-0.03-0.66-0.08-1.32-0.07-1.97
		C112.59,172.64,111.03,173.8,120.5,173.83z"/>
	<path class="st0" d="M115.44,69.9c2.28-3.82,5.9-1.11,8.82-1.8c0.16,0.98,0.32,1.96,0.47,2.94c-0.11,1.93-0.21,3.86-0.32,5.8
		C115.68,77.03,115.68,77.03,115.44,69.9z"/>
	<path class="st0" d="M72.26,54.05c0.64,3.54-0.96,4.68-4.4,4.71c-3.45,0.03-4.08-1.55-4.17-4.56c-0.1-3.29,1.03-4.33,4.29-4.24
		C70.95,50.05,72.97,50.45,72.26,54.05z"/>
	<path class="st0" d="M64.7,115.74c4.5,0.43,3.58,3.33,2.91,6.2c-0.56,2.4-2.42,1.77-3.98,1.8c-1.78,0.03-2.09-1.18-2.16-2.65
		c-0.16-3.27,1.31-6.32,1.1-9.65c-0.13-2.12,2.03-1.66,3.44-1.7c1.19-0.04,2.37,0.13,2.55,1.69c0.18,1.58-0.38,2.53-2.11,2.61
		C65.84,114.07,65.08,114.06,64.7,115.74z"/>
	<path class="st0" d="M86.3,71.31c0.57,3.25-0.39,4.87-4.16,4.76c-3.19-0.09-4.41-1.05-4.46-4.32c-0.05-3.4,1.02-4.7,4.56-4.75
		C85.58,66.95,86.91,67.98,86.3,71.31z"/>
	<path class="st0" d="M60.53,143.89c-7.59,3.1-9.16,1.89-9.14-7.03c2.92-0.82,5.89-1,8.9-0.7c0.2,0.9,0.39,1.81,0.59,2.71
		C60.76,140.54,60.65,142.22,60.53,143.89z"/>
	<path class="st0" d="M102.14,176.78c-4.71,0.83-7.47-0.52-6.64-5.91c0,0,0,0,0,0c1-0.12,2-0.24,4.48-0.54
		c-2.45-0.36-3.41-0.5-4.36-0.64c-0.12-0.57-0.24-1.14-0.36-1.71c0.59-2.09-0.97-5.48,3.25-5.38c2.77,0.49,3.75,2.61,2.84,4.73
		c-0.97,2.26,0.35,3.72,0.68,5.53c-0.47,0.79-0.29,1.49,0.31,2.13C102.27,175.59,102.2,176.19,102.14,176.78z"/>
	<path class="st0" d="M131.49,171.82c0,1.16,0.02,2.32,0.01,3.48c-0.01,6.81-0.01,6.81-7.15,6.58c0.05-3.67,0.1-7.34,0.15-11.01
		c0,0-0.01,0.02-0.01,0.02C126.84,171.11,129.3,170.46,131.49,171.82z"/>
	<path class="st0" d="M76.54,167.8c-0.23,1.78,0.79,4.48-2.53,4.79c-2.1,0.2-6.36-4.45-6.52-6.75c-0.25-3.58,2.3-2.94,4.38-2.96
		C76.51,162.83,76.54,162.88,76.54,167.8z"/>
	<path class="st0" d="M58.5,125.81c1.16-0.02,2.32-0.1,3.47-0.04c2.63,0.13,5.8-1.42,5.78,3.83c-0.02,4.96-2.79,4.27-5.74,4.25
		c-0.5,0-0.99,0.03-1.49,0.05C56.31,132.09,59.21,128.5,58.5,125.81z"/>
	<path class="st0" d="M168.52,138.09c-1.15-0.07-2.31-0.27-3.45-0.19c-3,0.21-4.93-0.17-4.93-4.09c0-3.95,1.96-4.28,4.95-4.07
		c1.47,0.1,2.97-0.08,4.45-0.13c0.14,0.44,0.27,0.88,0.4,1.32c-0.18,2.32-0.35,4.63-0.53,6.95
		C169.12,137.94,168.82,138.01,168.52,138.09z"/>
	<path class="st0" d="M147.45,90.9c-0.06-8.92-1.56-8.41,8.15-8.05c0.31,0.29,0.61,0.58,0.92,0.88c0.09,0.39,0.19,0.79,0.28,1.18
		c-0.41,1.67-0.41,3.35,0,5.02c-0.08,0.4-0.16,0.8-0.24,1.19C153.52,91.05,150.49,90.98,147.45,90.9z"/>
	<path class="st0" d="M54.01,107.93c1.53,0.17,4.34-1.06,4.48,3.15c0.14,4.31-2.51,3.77-5.15,3.75c-2.44-0.02-4.94,0.56-4.94-3.47
		C48.41,107.4,50.81,107.79,54.01,107.93z"/>
	<path class="st0" d="M113.06,165.69c1.77-2.84,4.87-3.13,7.28-2.25c2.23,0.81,1.42,4.02,0.9,5.75c-1.41,4.67-4.96,2.36-7.89,1.78
		C113.25,169.21,113.15,167.45,113.06,165.69z"/>
	<path class="st0" d="M56.46,59.61c-2.94,0.3-4.73-0.2-4.74-3.55c-0.01-3.14,1.35-3.97,4.2-3.91c2.62,0.05,4.46,0.37,4.47,3.68
		C60.41,58.97,59.1,60.09,56.46,59.61z"/>
	<path class="st0" d="M72.65,93.64c-0.78-4.14,2.12-3.85,4.88-3.76c1.94,0.07,4.36-0.39,4.04,2.76c-0.34,3.36-2.03,5.32-5.77,5.37
		C72.48,98.05,72.48,96.09,72.65,93.64z"/>
	<path class="st0" d="M124.51,169.79c-2.34-6-1.81-6.83,6.87-9.82c0,3.4,0,6.59,0,9.78C129.09,169.77,126.8,169.78,124.51,169.79z"
		/>
	<path class="st0" d="M111.73,171.92c-1.74,3.1-5.16,3.59-7.4,2.36c-1.99-1.1-1.44-4.9-0.52-6.9c1.5-3.24,4.95-1.05,7.53-1.42
		C111.47,167.95,111.6,169.93,111.73,171.92z"/>
	<path class="st0" d="M94.34,170.97c0,2.93,0,5.86,0,8.78c-2.25,1.19-4.92,1.53-6.28-0.61c-1.28-2.02-1.17-5.13-0.09-7.21
		C89.24,169.52,92.13,170.97,94.34,170.97z"/>
	<path class="st0" d="M44.45,56.2c0.74,3.57-1.25,4.03-4.24,4.16c-3.25,0.15-3.78-1.18-3.87-4.05c-0.1-3.37,1.15-4.28,4.34-4.27
		C43.82,52.05,44.99,53.18,44.45,56.2z"/>
	<path class="st0" d="M157.38,134.02c0.3,3.99-2.45,3.68-5,3.7c-2.25,0.02-4.04-0.48-3.9-3.25c0.16-3.38,2.18-4.47,5.32-4.44
		C156.66,130.05,157.69,131.41,157.38,134.02z"/>
	<path class="st0" d="M78.53,170.81c-0.08-0.96-0.21-1.92-0.23-2.88c-0.06-2.73-0.87-5.45,3.94-5.22c4.87,0.23,4.24,3.06,4.11,6.02
		c-0.03,0.77-0.49,1.51-0.75,2.27C83.24,170.93,80.89,170.87,78.53,170.81z"/>
	<path class="st0" d="M112.34,82.82c-3.88,0.73-7.86-0.79-11.75,0.69c-1.88,0.72-2.09-0.87-2.16-2.29
		c-0.08-1.68,0.31-2.84,2.32-3.04c2-0.2,3.65,1.79,5.72,0.77C108.85,79.6,113.18,77.31,112.34,82.82z"/>
	<path class="st0" d="M61.54,154.84c-2.95-0.01-5.57-0.61-6.66-3.84c-0.55-1.62-2.58-3.58-1-4.79c1.27-0.97,3.82-0.61,5.72-0.32
		c2.35,0.37,1.5,2.55,1.64,4.06c0.15,1.64,0.17,3.29,0.24,4.93L61.54,154.84z"/>
	<path class="st0" d="M46.54,75.27c2.84-0.34,3.69,1.03,3.83,3.72c0.17,3.21-1.24,3.84-4.08,3.86c-2.94,0.02-3.59-1.23-3.56-3.88
		C42.76,76.22,43.77,74.95,46.54,75.27z"/>
	<path class="st0" d="M125.54,67.97c-0.09-2.67,1.24-3.84,3.63-2.67c2.28,1.11,5.93,0.55,6.23,4.44c0.09,1.13-0.5,2-1.7,1.93
		c-2.72-0.15-5.58,0.92-8.15-0.8C125.55,69.91,125.54,68.94,125.54,67.97z"/>
	<path class="st0" d="M145.35,148.65c0.65,0.07,1.29,0.13,1.94,0.2c2.19,0.25,5.25-1.01,5.06,3.2c-0.15,3.5-1.89,5-5.28,4.81
		c-0.81-0.05-1.62-0.13-2.43-0.2c-0.06-0.26-0.12-0.52-0.17-0.79c-0.09-1.7-0.19-3.41-0.28-5.11
		C144.58,150.05,144.97,149.35,145.35,148.65z"/>
	<path class="st0" d="M50.55,134.83c-2.13-2.73-2.65-5.62-0.91-8.75c2.64,0.27,6.04-1.29,6.02,3.91
		C55.64,134.04,54.29,135.35,50.55,134.83z"/>
	<path class="st0" d="M49.83,124.54c-1.19-7.01-0.61-7.9,4.69-7.46c5.24,0.43,2.27,4.34,2.91,6.72
		C54.9,124.06,52.43,125.05,49.83,124.54z"/>
	<path class="st0" d="M88.63,83.71c-0.73-3.81,0.61-5.15,3.92-4.85c2.01,0.18,4.09-0.19,4.03,2.9c-0.09,4.37-4.06,4.88-6.59,5.48
		C87.34,87.87,89.17,84.54,88.63,83.71z"/>
	<path class="st0" d="M151.52,120.91c0.49,0,0.98,0,1.47,0c6.49-0.02,6.49-0.02,6.21,6.76c-0.32,0.04-0.64,0.1-0.96,0.13
		C151,128.39,151,128.39,151.52,120.91z"/>
	<path class="st0" d="M113.57,69.87c-0.01,0.49-0.03,0.97-0.03,1.46c-0.03,6.8-0.03,6.8-6.92,6.42c-0.04-1.48,0.03-2.97-0.16-4.43
		c-0.4-3.13,1.05-4.18,3.95-3.76c0.37,0.02,0.75,0.05,1.12,0.07C112.22,69.71,112.89,69.79,113.57,69.87z"/>
	<path class="st0" d="M136.42,167.17c-3.5-0.9-2.36-3.8-1.91-5.69c0.64-2.65,3.32-1.27,5.13-1.5c1.84-0.23,2.75,0.73,2.7,2.63
		c-0.06,2.1,0.56,4.58-2.86,4.55C138.47,167.16,137.45,167.17,136.42,167.17z"/>
	<path class="st0" d="M52.35,68.57c0.51,3.17-1.38,3.44-3.87,3.51c-2.68,0.07-3.84-0.68-3.87-3.61c-0.02-3.09,1.45-3.47,3.98-3.47
		C51.2,64.99,52.88,65.52,52.35,68.57z"/>
	<path class="st0" d="M150.43,111.88c1.31,0,2.63,0.07,3.94-0.02c2.45-0.16,4.04,0.25,4.04,3.36c0,2.95-1.21,3.77-3.85,3.52
		c-1.3-0.12-2.63-0.05-3.94-0.06C150.56,116.42,150.49,114.15,150.43,111.88z"/>
	<path class="st0" d="M135.44,177.22c-1.43-2.8-2.9-5.61,1.01-7.72c3.5,0.17,7.22,0.08,6.35,5.39c-0.81,1.18-1.98,1.83-3.31,2.24
		C138.14,177.16,136.79,177.19,135.44,177.22z"/>
	<path class="st0" d="M61.48,154.9c1.65-0.01,3.31,0.06,4.95-0.06c2.62-0.2,2.92,1.33,2.92,3.41c0,2.42-0.82,3.82-3.46,3.57
		c-1.82-0.17-4.27,0.75-4.29-2.51c-0.01-1.49-0.04-2.97-0.07-4.46C61.54,154.84,61.48,154.9,61.48,154.9z"/>
	<path class="st0" d="M60.42,45.16c0.36,3.08-1.5,3.46-3.93,3.56c-3.41,0.13-2.89-2.15-3.03-4.26c-0.18-2.68,1.11-3.34,3.53-3.3
		C59.85,41.19,60.75,42.6,60.42,45.16z"/>
	<path class="st0" d="M144.49,164.93c2.95,0.02,5.9,0.04,8.85,0.07c-0.95,4.83-4.46,6.77-8.79,7.77c-0.12-1.34-0.24-2.69-0.36-4.03
		C144.29,167.47,144.39,166.2,144.49,164.93z"/>
	<path class="st0" d="M153.27,146.85c-2.55-0.06-5.09-0.12-7.64-0.18c-0.11-2.8-0.69-5.91,3.17-6.74
		C153.25,138.98,153.95,140.13,153.27,146.85z"/>
	<path class="st0" d="M55.62,87.76c0.21,2.27-0.04,3.98-3.01,3.94c-2.6-0.04-4.04-0.7-4.05-3.66c0-2.77,1.01-3.88,3.81-3.9
		C55.09,84.12,55.97,85.32,55.62,87.76z"/>
	<path class="st0" d="M103.53,67.88c-1.57-0.3-4.49,0.88-4.36-2.21c0.17-3.74,3.68-3.02,6.12-3.43c1.85-0.31,3.17,0.16,3.22,2.54
		C108.59,68.6,105.95,67.82,103.53,67.88z"/>
	<path class="st0" d="M156.46,92c7.09-0.2,8.29,0.84,7.94,6.85c-1.35,0.09-2.71,0.18-4.06,0.27c-0.97-0.04-1.94-0.08-2.91-0.12
		c-0.37-1.39-0.74-2.77-1.11-4.16c0.07-0.96,0.13-1.93,0.2-2.89C156.52,91.95,156.46,92,156.46,92z"/>
	<path class="st0" d="M136.86,93.02c3.22,0,5.03,0.01,6.83,0c1.51-0.01,2.72,0.45,2.6,2.21c-0.12,1.76,0.66,3.76-0.76,5.23
		c-0.88,0.91-1.84,0.18-2.54-0.59C141.24,97.94,139.51,95.99,136.86,93.02z"/>
	<path class="st0" d="M169.32,127.75c-2.6-0.72-7.28,2.42-7.02-3.62c0.24-5.55,4.59-2.3,7.04-3.12
		C169.33,123.26,169.33,125.5,169.32,127.75z"/>
	<path class="st0" d="M48.67,103.79c-2.76,0.4-3.31-1.12-3.35-3.53c-0.05-2.62,0.99-3.41,3.54-3.47c2.95-0.06,3.64,1.2,3.62,3.88
		C52.46,103.53,51.02,104.07,48.67,103.79z"/>
	<path class="st0" d="M57.83,72.91c2.41-0.3,3.75,0.37,3.78,3.17c0.03,2.74-0.78,3.9-3.68,3.85c-2.59-0.05-3.53-0.94-3.5-3.52
		C54.46,73.93,55.12,72.51,57.83,72.91z"/>
	<path class="st0" d="M95.37,58.92c0.32,2.57-0.22,4.01-3.07,4.01c-2.61,0-4.03-0.54-3.96-3.56c0.06-2.54,0.88-3.6,3.49-3.51
		C94.13,55.95,95.95,56.16,95.37,58.92z"/>
	<path class="st0" d="M124.57,84.86c0.02-0.78,0.04-1.56,0.06-2.34c0.3-0.15,0.59-0.31,0.88-0.47c2.24-0.03,4.48-0.06,6.72-0.09
		c0.44,2.21,1.32,5.82-0.27,6.27C129.44,88.96,126.48,87.27,124.57,84.86z"/>
	<path class="st0" d="M164.46,99.89c3.41,0.63,4.23,3.35,3.52,5.9c-0.55,1.97-3.28,1.24-4.85,0.87c-3.33-0.79-1.38-3.77-1.89-5.76
		C162.32,100.55,163.39,100.22,164.46,99.89z"/>
	<path class="st0" d="M74.64,100.28c-0.92,1.86-1.45,3.06-2.09,4.19c-0.86,1.5-1.3,4.11-3.63,3.25c-2.39-0.88-1.07-3.5-1.24-5.35
		c-0.23-2.51,1.66-2.45,3.37-2.4C72.02,100,72.99,100.13,74.64,100.28z"/>
	<path class="st0" d="M78.13,173.8c0.11-0.33,0.22-0.67,0.33-1c2.64,0.08,5.28,0.16,7.92,0.24c-0.17,2.07,1.06,5.14-0.63,5.99
		c-2.18,1.1-4.42-1.34-6.5-2.52c-0.49-0.28-0.7-1.05-1.04-1.6C78.18,174.54,78.15,174.17,78.13,173.8z"/>
	<path class="st0" d="M142.87,156.04c-1.07,1.59-6.73,2.96-7.83,1.87c-0.53-0.53-0.59-1.31-0.11-1.77c2.16-2.08,3.54-5.33,7.32-5.1
		C142.45,152.71,142.66,154.37,142.87,156.04z"/>
	<path class="st0" d="M114.64,66.67c-2.02-0.38-4.59,0.7-4.99-2.25c-0.35-2.59,1.77-2.44,3.37-2.24c2.05,0.26,5.27-0.92,5.31,2.69
		C118.36,67.44,115.81,66.14,114.64,66.67z"/>
	<path class="st0" d="M63.45,140.34c-0.23-2.15,0.34-3.45,2.93-3.41c2.29,0.03,3.31,0.76,3.3,3.18c-0.01,2.37-0.48,3.78-3.28,3.73
		C63.86,143.79,63.24,142.52,63.45,140.34z"/>
	<path class="st0" d="M114.49,82.92c-0.74-4.73,2.59-4.07,5.35-3.96c4.8,0.2,2.56,3.51,2.48,5.85
		C119.71,84.18,117.1,83.55,114.49,82.92z"/>
	<path class="st0" d="M101.01,76.07c-2.29,0.26-3.39-0.65-3.27-3.08c0.11-2.38,1.39-3.05,3.55-3.11c2.4-0.07,3.16,0.98,3.18,3.27
		C104.49,75.72,103.17,76.28,101.01,76.07z"/>
	<path class="st0" d="M45.69,47.65c-2.26,0.03-2.98-1.14-2.99-3.15c0-2.37,1.43-2.6,3.28-2.59c1.97,0.02,2.52,1.05,2.56,2.83
		C48.58,46.87,47.66,47.81,45.69,47.65z"/>
	<path class="st0" d="M144.83,158.22c2.08-0.41,4.3-1.14,6.11,0.36c0.87,0.72,0.68,2.27-0.13,3.17c-1.71,1.9-3.9,1.18-5.98,0.77
		C144.83,161.08,144.83,159.65,144.83,158.22z"/>
	<path class="st0" d="M54.31,33.51c0.17,2.11-0.81,3.1-2.9,3.05c-1.78-0.04-2.7-0.87-2.8-2.72c-0.12-2.19,0.87-2.93,2.95-2.88
		C53.36,30.99,54.44,31.54,54.31,33.51z"/>
	<path class="st0" d="M93.92,168.06c-0.48,0.11-0.97,0.22-1.45,0.33c-0.99-0.47-1.97-0.47-2.96,0c-2.8-5.45-2.06-6.62,4.22-6.67
		C93.8,163.84,93.86,165.95,93.92,168.06z"/>
	<path class="st0" d="M65.41,151.01c-1.83,0.14-2.76-0.57-2.8-2.52c-0.05-2.18,0.97-2.89,3.01-2.85c1.8,0.03,2.73,0.65,2.78,2.59
		C68.45,150.41,67.44,151.21,65.41,151.01z"/>
	<path class="st0" d="M88.97,52.52c-2.06,0.08-2.42-1.04-2.49-2.54c-0.08-1.84,0.64-2.77,2.56-2.76c1.73,0.01,2.3,0.91,2.3,2.48
		C91.37,51.53,90.56,52.5,88.97,52.52z"/>
	<path class="st0" d="M72.42,143.72c2.76-0.06,3.5,1.61,3.7,3.44c0.21,1.89-1.38,1.83-2.68,1.9c-1.68,0.09-2.84-0.4-2.85-2.38
		C70.59,145.06,70.77,143.7,72.42,143.72z"/>
	<path class="st0" d="M96.27,182.95c0.39-1.42-0.63-3.54,1.79-3.97c1.25-0.22,2.67-0.49,3.75,0.44c0.99,0.85,0.81,2.14,0.45,3.19
		c-0.67,1.95-2.49,0.95-3.8,1.27c0,0,0-0.01,0-0.01c-0.33-0.13-0.65-0.27-0.98-0.4C97.07,183.29,96.67,183.12,96.27,182.95z"/>
	<path class="st0" d="M86.67,158.49c0.07,1.58-0.56,2.53-2.25,2.6c-1.72,0.08-2.93-0.36-2.98-2.39c-0.05-1.7,0.27-2.98,2.37-2.93
		C85.62,155.81,86.56,156.7,86.67,158.49z"/>
	<path class="st0" d="M105.46,54.76c0.04,1.7-0.95,2.21-2.47,2.2c-1.64-0.01-2.35-0.82-2.27-2.41c0.08-1.61,1.06-2.25,2.55-2.28
		C104.96,52.24,105.52,53.24,105.46,54.76z"/>
	<path class="st0" d="M39.74,31.63c-1.75,0.03-2.15-1.02-2.14-2.53c0.01-1.74,0.97-2.21,2.49-2.19c1.63,0.02,2.38,0.78,2.26,2.42
		C42.22,30.95,41.18,31.51,39.74,31.63z"/>
	<path class="st1" d="M124.5,170.88c-0.05,3.67-0.1,7.34-0.15,11.01"/>
	<path class="st1" d="M169.42,137.88c0.17-2.32,0.35-4.63,0.53-6.95"/>
	<path class="st1" d="M60.53,143.89c0.11-1.67,0.23-3.35,0.35-5.02"/>
	<path class="st1" d="M135.44,177.22c1.35-0.03,2.7-0.06,4.04-0.09"/>
	<path class="st1" d="M136.42,167.17c1.02-0.01,2.04-0.01,3.07-0.02"/>
	<path class="st1" d="M170.55,118.94c0.07-1.02,0.14-2.05,0.2-3.07"/>
	<path class="st1" d="M144.26,83.12c-0.27-0.41-0.54-0.81-0.8-1.22"/>
	<path class="st1" d="M156.52,83.73c-0.31-0.29-0.61-0.58-0.92-0.88C155.91,83.14,156.22,83.44,156.52,83.73z"/>
	<path class="st1" d="M111.54,69.63c-0.37-0.02-0.75-0.04-1.12-0.07"/>
	<path class="st1" d="M97.48,183.47c0.33,0.13,0.65,0.27,0.98,0.4C98.13,183.74,97.8,183.6,97.48,183.47z"/>
</g>
</svg>
