<?xml version="1.0" encoding="utf-8"?>
<!-- Generator: Adobe Illustrator 27.9.0, SVG Export Plug-In . SVG Version: 6.00 Build 0)  -->
<svg version="1.1" id="Layer_1" xmlns="http://www.w3.org/2000/svg" xmlns:xlink="http://www.w3.org/1999/xlink" x="0px" y="0px"
	 viewBox="0 0 207.09 211.75" style="enable-background:new 0 0 207.09 211.75;" xml:space="preserve">
<style type="text/css">
	.st0{fill:#3C6EB6;}
	.st1{fill:#3A6CB5;}
</style>
<g>
	<path class="st0" d="M103.65,151.62c19.25,0,38.5-0.2,57.74,0.19c3.4,0.07,9.48-3.68,10.13,3.87c0.6,6.93,0.78,14.11-7.61,16.97
		c-2.56,0.87-5.48,0.96-8.24,0.97c-37.25,0.06-74.51-0.38-111.75,0.29c-11.77,0.21-7.73-7.19-8.43-12.8
		c-0.82-6.51,0.37-9.99,8.57-9.71C63.9,152.08,83.78,151.62,103.65,151.62z"/>
	<path class="st0" d="M103.38,60.22c-19.26,0-38.53,0.19-57.78-0.18c-3.43-0.07-9.53,3.59-10.05-4.08c-0.47-7-0.44-14.15,7.83-17
		c2.83-0.98,6.11-0.9,9.18-0.91c36.66-0.06,73.32,0.16,109.97-0.2c7.21-0.07,9.6,1.66,9.27,9.13c-0.59,13.22-0.11,13.24-13.43,13.24
		C140.04,60.22,121.71,60.22,103.38,60.22z"/>
	<path class="st0" d="M123.11,97.75c-10.84,0-21.73-0.65-32.5,0.2c-8.67,0.69-11.09-2.63-9.85-10.44c0.24-1.51,0.21-3.12,0-4.64
		c-0.8-5.87,1.94-7.31,7.45-7.26c24.16,0.25,48.32-0.05,72.47,0.25c4.23,0.05,11.17-3.6,11.06,6.11
		c-0.12,10.13-3.15,15.4-11.47,15.64c-12.38,0.36-24.77,0.09-37.16,0.09C123.11,97.73,123.11,97.74,123.11,97.75z"/>
	<path class="st1" d="M81.19,135.37c-12.09,0-24.19,0.24-36.27-0.16c-3.24-0.11-8.81,3.07-9.35-3.8
		c-0.55-6.98-0.49-14.02,7.84-16.86c1.99-0.68,4.3-0.55,6.46-0.55c22.94-0.04,45.9,0.43,68.82-0.23c10.27-0.3,7.54,6.15,7.88,11.53
		c0.36,5.88,0.78,10.88-8.18,10.28C106.03,134.76,93.59,135.37,81.19,135.37z"/>
</g>
</svg>
